<?xml version="1.0" encoding="UTF-8" standalone="no" ?>
<!DOCTYPE svg PUBLIC "-//W3C//DTD SVG 1.1//EN" "http://www.w3.org/Graphics/SVG/1.1/DTD/svg11.dtd">
<svg xmlns="http://www.w3.org/2000/svg" xmlns:xlink="http://www.w3.org/1999/xlink" version="1.1" viewBox="90 305 1060 413" preserveAspectRatio="xMidYMid meet" xml:space="preserve">
<desc>Created with Fabric.js 5.3.0</desc>
<defs>
</defs>
<g transform="matrix(1 0 0 1 640 512)" id="background-logo"  >
<rect style="stroke: none; stroke-width: 0; stroke-dasharray: none; stroke-linecap: butt; stroke-dashoffset: 0; stroke-linejoin: miter; stroke-miterlimit: 4; fill: rgb(255,255,255); fill-opacity: 0; fill-rule: nonzero; opacity: 1;"  paint-order="stroke"  x="-640" y="-512" rx="0" ry="0" width="1280" height="1024" />
</g>
<g transform="matrix(2.0230614879382727 0 0 2.023061487938273 260.6553289473683 511.64473684210543)" id="logo-logo"  >
<g style=""  paint-order="stroke"   >
		<g transform="matrix(0.161645759433766 0 0 0.161645759433766 -7.741215419283023 -22.535740980662183)"  >
<linearGradient id="SVGID_33_306354" gradientUnits="userSpaceOnUse" gradientTransform="matrix(1 0 0 1 567 456.23988918322675)"  x1="0" y1="0" x2="0" y2="857">
<stop offset="0%" style="stop-color:rgb(250,217,97);stop-opacity: 1"/>
<stop offset="100%" style="stop-color:rgb(247,107,28);stop-opacity: 1"/>
</linearGradient>
<path style="stroke: none; stroke-width: 1; stroke-dasharray: none; stroke-linecap: butt; stroke-dashoffset: 0; stroke-linejoin: miter; stroke-miterlimit: 4; fill: url(#SVGID_33_306354); fill-rule: nonzero; opacity: 1;"  paint-order="stroke"  transform=" translate(-976.1880000000001, -884.7977823079343)" d="M 946.031 456.275 C 948.4209999999999 456.17999999999995 950.6959999999999 456.275 953.0669999999999 456.594 C 955.6109999999999 457.128 957.9869999999999 457.916 960.4079999999999 458.852 C 964.5109999999999 460.50399999999996 968.512 462.38 972.5109999999999 464.26599999999996 C 974.7409999999999 465.30899999999997 976.9839999999998 466.32099999999997 979.2259999999999 467.33599999999996 Q 984.1359999999999 469.55999999999995 989.0309999999998 471.81199999999995 C 994.7809999999998 474.45699999999994 1000.5569999999998 477.03499999999997 1006.3549999999998 479.56999999999994 L 1007.6279999999998 480.12699999999995 Q 1010.7979999999998 481.51199999999994 1013.9679999999998 482.89399999999995 C 1017.7909999999998 484.56199999999995 1021.6089999999998 486.24099999999993 1025.4279999999999 487.9189999999999 L 1029.263 489.60299999999995 Q 1037.7839999999999 493.34399999999994 1046.3039999999999 497.09 C 1063.091 504.46999999999997 1079.8819999999998 511.84 1096.716 519.114 L 1100.356 520.687 L 1101.273 521.0840000000001 C 1106.09 523.167 1110.899 525.2650000000001 1115.706 527.369 Q 1120.463 529.451 1125.221 531.53 L 1127.647 532.592 C 1138.7746504931429 537.4614645840842 1149.9315193909322 542.2638849668286 1161.117 546.9990000000001 C 1165.821 548.994 1170.527 550.989 1175.2369999999999 552.972 C 1194.0529999999999 560.89 1194.0529999999999 560.89 1201.1129999999998 564.269 L 1202.493 564.902 Q 1203.712 565.505 1204.896 566.1750000000001 L 1206 567 C 1207.464 568.58 1208.76 570.24 1210 572 C 1211.687176201162 571.7789893530246 1213.3576024885522 571.4449040955466 1215 571 C 1217.05 570.196 1219.037 569.277 1221.025 568.332 Q 1222.505 567.631 1223.9950000000001 566.945 Q 1228.218 564.99 1232.4260000000002 563.0020000000001 C 1234.1526941256836 562.188157028168 1235.8833817371426 561.3828139485676 1237.618 560.5860000000001 Q 1238.5940000000003 560.133 1239.5660000000003 559.668 C 1241.6740000000002 558.657 1243.7800000000002 557.746 1246.0000000000002 557 C 1248.0250000000003 556.535 1250.0550000000003 556.291 1252.1200000000001 556.06 C 1253.5400000000002 556.015 1254.7700000000002 556.049 1256.1670000000001 556.2159999999999 C 1257.1540000000002 556.3689999999999 1258.142 556.5339999999999 1259.114 556.7669999999999 C 1260.108 557.1329999999999 1261.051 557.5279999999999 1262 557.9999999999999 C 1263.536 558.9339999999999 1264.934 559.9709999999999 1266.312 561.1249999999999 C 1267.6519999999998 562.3389999999999 1268.8719999999998 563.5879999999999 1270 564.9999999999999 C 1270.626 565.9599999999999 1271.142 566.9019999999999 1271.62 567.9429999999999 C 1272.1236808931885 569.2567539927675 1272.5238998406487 570.6078690860733 1272.8169999999998 571.9839999999999 C 1273.1179999999997 573.6579999999999 1273.37 575.2979999999999 1273.4369999999997 576.9999999999999 C 1273.3709999999996 578.4159999999999 1273.2809999999997 579.6299999999999 1272.9999999999998 580.9999999999999 C 1272.5919999999999 582.4379999999999 1272.0629999999999 583.7689999999999 1271.4369999999997 585.1249999999999 C 1270.7054239963509 586.4657274882951 1269.8915334349394 587.7598702562351 1269 589 C 1267.52 590.694 1265.8 592.113 1264.054 593.526 C 1262.7244494934762 594.5302419169187 1261.3150975560511 595.4242138506485 1259.8400000000001 596.199 C 1257.4630000000002 597.3629999999999 1255.0320000000002 598.3919999999999 1252.594 599.418 Q 1251.2540000000001 599.998 1249.916 600.581 C 1247.5882253921206 601.5900507178579 1245.2565411449502 602.5900582577453 1242.9210000000003 603.5810000000001 C 1240.559 604.589 1238.204 605.61 1235.847 606.631 C 1231.68625865798 608.4300099811617 1227.5209116338367 610.2183491924715 1223.3509999999999 611.9959999999998 C 1220.2334551282117 613.328614980007 1217.1167877863322 614.6632819358246 1214.001 616.0000000000008 L 1213.001 682 L 1239.001 670 L 1251.001 666 C 1254.593 666.156 1257.567 666.301 1261.001 667 C 1263.7939999999999 668.851 1266.488 670.775 1269.001 673 Q 1269.737 673.725 1270.422 674.5 C 1271.5 676.062 1271.5 676.062 1272.39 677.789 C 1272.736 678.794 1272.736 678.794 1273 680 C 1273.422 684.326 1273.254 688.668 1273 693 C 1271.773 695.428 1270.438 697.709 1268.86 699.926 C 1268 701 1268 701 1267.1899999999998 701.792 C 1266.2899999999997 702.518 1265.37 703.164 1264.4019999999998 703.797 L 1263.2619999999997 704.548 C 1256.8429999999996 708.548 1249.6429999999998 711.237 1242.6819999999998 714.132 C 1240.716 714.952 1238.7549999999999 715.781 1236.793 716.6089999999999 Q 1233.399 718.045 1230.001 719.468 C 1225.797 721.228 1221.609 723.0129999999999 1217.484 724.953 C 1216.6653695474295 725.3238251018824 1215.8370802964187 725.6729470204849 1215 726 L 1213 726 L 1213 910 L 1207 920 C 1196.81 925.202 1186.543 930.099 1176.053 934.666 Q 1173.323 935.8580000000001 1170.594 937.057 C 1167.1932623259906 938.5475516905157 1163.7912611024592 940.0352188922212 1160.388 941.5199999999988 Q 1154.853 943.939 1149.3190000000002 946.364 C 1143.07165869778 949.1017896577309 1136.8226575485253 951.8357901605428 1130.5720000000008 954.5660000000012 Q 1126.134 956.51 1121.6870000000001 958.4340000000001 Q 1119.4520000000002 959.402 1117.218 960.373 L 1115.0610000000001 961.3050000000001 Q 1113.5670000000002 961.95 1112.074 962.6 L 1110.346 963.347 L 1109 964 L 1108 965 L 1107.995 966.133 Q 1107.9399999999998 979.832 1107.8159999999998 993.5310000000001 C 1107.7759999999998 997.9470000000001 1107.744 1002.364 1107.7289999999998 1006.7800000000001 Q 1107.7099999999998 1012.5600000000001 1107.6449999999998 1018.339 C 1107.621161742437 1020.3759140958937 1107.608828212386 1022.412946586209 1107.6079999999997 1024.4500000000003 C 1107.6079999999997 1034.422 1107.6079999999997 1034.422 1106.9999999999998 1039 C 1106.6984743286223 1040.300204501456 1106.290773175664 1041.573476272835 1105.7809999999997 1042.807 C 1105.3067082226182 1043.7577334567777 1104.7722911963608 1044.677264752582 1104.1809999999998 1045.56 C 1103.0469999999998 1046.943 1101.9249999999997 1048.156 1100.5749999999998 1049.328 C 1098.1059999999998 1051.0439999999999 1095.503 1052.456 1092.7969999999998 1053.758 L 1091.2599999999998 1054.511 C 1084.0699999999997 1057.993 1076.7339999999997 1061.167 1069.4149999999997 1064.365 Q 1066.4559999999997 1065.661 1063.4999999999998 1066.961 C 1059.6679310904133 1068.6435508570005 1055.8345966718723 1070.323217999177 1052.0000000000007 1071.9999999999998 C 1040.95 1089.447 1029.971 1106.94 1019.117 1124.51 Q 1016.7429999999999 1128.35 1014.3629999999999 1132.186 Q 1012.353 1135.427 1010.353 1138.673 Q 1008.323 1141.968 1006.275 1145.253 C 1005.7675196427481 1146.069132169572 1005.262517317098 1146.8868026017963 1004.76 1147.706 C 1001.122 1153.638 1001.122 1153.638 999.342 1155.799 C 997.9961583360277 1157.3005641193554 996.545159707521 1158.704443722846 995 1160 L 991 1163 L 978 1164 Q 977.968 1169.733 977.948 1175.465 Q 977.941 1178.135 977.924 1180.8049999999998 C 977.911 1182.8529999999998 977.9069999999999 1184.9009999999998 977.9019999999999 1186.9489999999998 L 977.886 1188.86 C 977.886 1191.116 977.8979999999999 1193.3139999999999 978.2289999999999 1195.549 C 978.4599999999999 1196.708 978.709 1197.855 978.9999999999999 1199 L 980.1639999999999 1199.567 C 1002.4612320991589 1210.416535938302 1024.7452486100772 1221.2932106638366 1047.0160000000187 1232.197000000012 L 1051.4679999999998 1234.3770000000002 L 1054.444 1235.8340000000003 Q 1065.251 1241.1240000000003 1076.062 1246.4060000000002 L 1080.752 1248.698 L 1094.117 1255.227 L 1099.557 1257.885 L 1102.039 1259.097 L 1104.352 1260.227 Q 1105.471 1260.7730000000001 1106.592 1261.315 C 1108.6112829534377 1262.2956810274165 1110.6084460628233 1263.3212692952748 1112.582 1264.391 C 1115.009 1265.693 1117.4340000000002 1266.987 1120 1268 L 1121.76 1268.416 C 1123.262 1268.494 1123.262 1268.494 1124.658 1268.3529999999998 C 1126 1267.9999999999998 1126 1267.9999999999998 1127.4029999999998 1267.4759999999999 C 1128.9249999999997 1266.7589999999998 1130.3549999999998 1265.953 1131.8039999999999 1265.098 L 1134.33 1263.675 Q 1135.676 1262.911 1137.0159999999998 1262.134 C 1139.899 1260.468 1142.8039999999999 1258.842 1145.7069999999999 1257.21 Q 1147.2369999999999 1256.349 1148.7669999999998 1255.484 C 1155.5569999999998 1251.655 1162.4419999999998 1248.011 1169.34 1244.3829999999998 C 1179.8059999999998 1238.8779999999997 1190.1899999999998 1233.2679999999998 1200.452 1227.3919999999998 C 1207.409 1223.4119999999998 1214.442 1219.6169999999997 1221.562 1215.937 C 1228.9579999999999 1212.1139999999998 1236.322 1208.245 1243.625 1204.25 L 1244.965 1203.517 C 1251.530245960783 1199.9189215782776 1258.0869311455717 1196.3052447054617 1264.6349999999995 1192.6760000000006 L 1266.47 1191.661 L 1271.107 1189.098 C 1279.83 1184.274 1288.587 1179.518 1297.375 1174.812 C 1305.5569090756412 1170.437018943872 1313.682572578888 1165.9576531800515 1321.7499999999998 1161.3750000000002 C 1329.064 1157.214 1336.397 1153.092 1343.78 1149.054 Q 1345.235 1148.258 1346.69 1147.459 Q 1348.694 1146.3590000000002 1350.703 1145.266 L 1351.893 1144.611 C 1353.445 1143.7700000000002 1354.957 1143.017 1356.604 1142.373 C 1358 1142 1358 1142 1359.315 1141.823 C 1362.885 1141.6570000000002 1366.4460000000001 1141.5710000000001 1370 1142 C 1371.21 1142.288 1372.3 1142.646 1373.446 1143.128 C 1374.7579999999998 1143.7859999999998 1375.984 1144.494 1377.1799999999998 1145.345 C 1378.26326858099 1146.2106582508368 1379.2807348856438 1147.1555916421826 1380.224 1148.172 C 1381.2549999999999 1149.384 1382.135 1150.666 1383 1152 L 1383.746 1153.144 C 1384.3120000000001 1154.25 1384.3120000000001 1154.25 1384.7160000000001 1155.465 C 1385.1080000000002 1157.581 1385.3090000000002 1159.6609999999998 1385.3760000000002 1161.812 C 1385.3662593536746 1163.547773828296 1385.2406467081792 1165.2809610751847 1385 1167 C 1384.7778190999663 1168.0670843686391 1384.4728977679401 1169.115251447479 1384.088 1170.135 C 1383.6476154977668 1171.1360367104564 1383.1258663287463 1172.0992659455715 1382.528 1173.015 C 1381.818 1174.0200000000002 1381.818 1174.0200000000002 1381 1175 C 1379.66 1176.221 1378.22 1177.243 1376.722 1178.262 L 1375.412 1179.165 C 1369.7930000000001 1182.934 1363.78 1186.0049999999999 1357.785 1189.119 C 1355.0980000000002 1190.5179999999998 1352.421 1191.935 1349.7430000000002 1193.3509999999999 L 1347.717 1194.4209999999998 C 1341.6180000000002 1197.6429999999998 1335.6070000000002 1201.003 1329.625 1204.437 C 1320.413 1209.7169999999999 1311.073 1214.7289999999998 1301.687 1219.687 L 1300.6309999999999 1220.2459999999999 L 1298.5279999999998 1221.3559999999998 L 1293.4099999999999 1224.0619999999997 L 1292.4099999999999 1224.5909999999997 C 1287.112772361128 1227.3905440693839 1281.850695790672 1230.2561006230515 1276.6249999999993 1233.1870000000001 C 1269.5429999999997 1237.1649999999997 1262.4059999999997 1241.0329999999997 1255.2499999999998 1244.8749999999998 C 1247.1498666457544 1249.2188885234477 1239.0664735031114 1253.593920894466 1230.9999999999961 1258.000000000002 C 1223.015687853305 1262.3622331409697 1215.0156356022414 1266.695594776963 1207 1271.0000000000005 Q 1193.574 1278.215 1180.2 1285.525 C 1175.4266383736315 1288.135527010384 1170.6466228099353 1290.7338688038997 1165.8600000000004 1293.3200000000002 L 1164.296 1294.1650000000002 L 1158.096 1297.5130000000001 C 1153.063 1300.229 1148.039 1302.9560000000001 1143.07 1305.785 L 1141.933 1306.432 C 1140.223424133334 1307.4041083193356 1138.5187360138734 1308.3847873274415 1136.819 1309.3739999999998 C 1132.779 1311.707 1132.779 1311.707 1130.839 1312.438 C 1129.269 1312.862 1127.6699999999998 1313.046 1126.062 1313.2730000000001 C 1124.1686748386567 1313.3997816331498 1122.2684018851996 1313.3807254124695 1120.378 1313.2160000000001 C 1119 1313.0000000000002 1119 1313.0000000000002 1117.6879999999999 1312.6070000000002 C 1116.2877834386923 1312.0707826835267 1114.9013408929068 1311.4992669251146 1113.53 1310.8930000000003 L 1111.961 1310.2210000000002 C 1106.009 1307.6320000000003 1100.214 1304.7280000000003 1094.425 1301.7970000000003 Q 1092.06 1300.6040000000003 1089.693 1299.4190000000003 C 1086.3615925111008 1297.7457979656576 1083.0315913358813 1296.0697973741655 1079.7029999999984 1294.3909999999992 Q 1071.318 1290.1640000000002 1062.925 1285.9510000000002 L 1060.966 1284.9670000000003 C 1052.713 1280.8220000000003 1044.437 1276.7340000000004 1036.09 1272.7810000000004 C 1021.252 1265.7510000000004 1006.5579999999999 1258.4250000000004 991.8629999999999 1251.1020000000003 Q 984.478 1247.4220000000003 977.0809999999999 1243.7650000000003 C 973.5571509108332 1242.021409743983 970.0364784119992 1240.2714068450168 966.5190000000002 1238.5150000000003 C 964.4391198435655 1237.4760599839904 962.3564456250656 1236.4427229037487 960.2709999999996 1235.4150000000002 C 958.3243942622142 1234.4566054917632 956.3820418865962 1233.4895960114702 954.4439999999995 1232.5140000000001 Q 953.3849999999999 1231.9840000000004 952.3219999999999 1231.4660000000003 C 950.1459999999998 1230.4030000000002 948.0429999999999 1229.3030000000003 945.9999999999999 1228.0000000000005 C 944.1889985550868 1226.4842040844214 942.5157959155789 1224.8110014449135 940.9999999999999 1223.0000000000005 C 940.1426910301336 1221.8031960752053 939.3346826395816 1220.5718339903467 938.5779999999999 1219.3090000000004 C 937.9999999999999 1218.0000000000005 937.9999999999999 1218.0000000000005 937.4759999999999 1216.2330000000004 C 937.1973640990251 1215.1171437068447 937.0028183612974 1213.9819592990727 936.8939999999999 1212.8370000000004 C 936.8412008365124 1211.5439081892323 936.8078637288996 1210.250095042786 936.7939999999999 1208.9560000000004 L 936.7639999999999 1207.4760000000003 Q 936.7199999999999 1205.0740000000003 936.6839999999999 1202.6720000000003 Q 936.6539999999999 1200.9990000000003 936.6199999999999 1199.3260000000002 Q 936.5389999999999 1194.9370000000004 936.4679999999998 1190.5470000000003 Q 936.3909999999998 1186.0620000000004 936.3059999999998 1181.5780000000002 Q 936.1459999999998 1172.7890000000002 935.9999999999998 1164.0000000000002 L 935.0439999999998 1163.9280000000003 Q 932.8769999999997 1163.7580000000003 930.7109999999998 1163.5780000000004 L 929.2069999999998 1163.4650000000004 C 927.800119462425 1163.3543448427472 926.3970862113459 1163.1992674807902 925 1163 C 923.792 1162.674 922.772 1162.268 921.625 1161.75 C 920.253 1160.938 920.253 1160.938 919 1160 C 917.216 1158.438 915.583 1156.764 914 1155 C 912.611 1153.174 911.395 1151.262 910.187 1149.312 L 909.071 1147.5449999999998 C 907.7044376306482 1145.3695025461498 906.3477569883071 1143.1878134050876 905.001 1140.9999999999998 L 904.143 1139.6149999999998 C 900.4392926687312 1133.6207245814169 896.7459538131881 1127.6200489426528 893.0630000000001 1121.6129999999985 Q 888.479 1114.1439999999998 883.851 1106.7029999999997 C 879.2027876364597 1099.236373332472 874.604352331293 1091.7388737395909 870.0559999999997 1084.211 Q 869.258 1082.8899999999999 868.4580000000001 1081.5699999999997 Q 867.3580000000001 1079.7519999999997 866.2650000000001 1077.9299999999996 L 865.6110000000001 1076.8529999999996 L 865.0090000000001 1075.8429999999996 L 864.4890000000001 1074.9789999999996 C 863.8470000000001 1073.6949999999995 863.4310000000002 1072.3659999999995 863.0000000000001 1070.9999999999995 L 861.9400000000002 1070.6769999999995 C 857.7450000000001 1069.3469999999995 853.8040000000002 1067.6139999999994 849.8360000000001 1065.7339999999995 L 847.7960000000002 1064.7769999999994 C 846.3744718876064 1064.1098308681173 844.9538040415418 1063.4408303127323 843.5339999999994 1062.769999999999 Q 840.8660000000002 1061.5079999999994 838.1900000000002 1060.2559999999994 C 834.7491295895429 1058.6431368744982 831.3144378227101 1057.0171249918692 827.8859999999999 1055.3779999999995 C 826.3188786040043 1054.6269487485956 824.7488669316576 1053.881943209807 823.1759999999998 1053.1429999999996 C 821.5158285790914 1052.3624193617147 819.8594755311356 1051.5737433078884 818.2069999999999 1050.7769999999996 L 816.7570000000001 1050.1069999999995 C 815.442 1049.4649999999995 814.2170000000001 1048.8129999999994 813.0000000000001 1047.9999999999995 C 811.6280000000002 1046.7019999999995 810.4400000000002 1045.3269999999995 809.3120000000001 1043.8119999999994 C 808.4620000000001 1042.5709999999995 807.6550000000001 1041.3559999999995 807.0000000000001 1039.9999999999995 C 806.4800000000001 1038.6419999999996 806.4800000000001 1038.6419999999996 806.0000000000001 1036.9999999999995 C 805.8610000000001 1035.4439999999995 805.8610000000001 1035.4439999999995 805.8420000000001 1033.7539999999995 L 805.8120000000001 1031.8039999999994 L 805.7940000000001 1029.6829999999993 L 805.7640000000001 1027.4349999999993 Q 805.7240000000002 1024.3929999999993 805.6960000000001 1021.3489999999993 C 805.6760000000002 1019.2269999999993 805.6470000000002 1017.1049999999992 805.6200000000001 1014.9829999999993 Q 805.5470000000001 1008.9589999999993 805.4820000000001 1002.9349999999993 Q 805.407 996.0749999999992 805.3230000000001 989.2149999999992 Q 805.1530000000001 975.1079999999993 805.0000000000001 960.9999999999992 C 787.8200000000002 952.3719999999992 787.8200000000002 952.3719999999992 780.2650000000001 948.8159999999992 L 778.0780000000001 947.7809999999993 Q 775.2450000000001 946.4429999999993 772.4100000000001 945.1089999999992 L 768.8550000000001 943.4329999999992 C 760.1430000000001 939.3239999999992 751.4260000000002 935.2289999999992 742.6250000000001 931.3119999999992 C 734.8697745006394 927.852653411216 727.1428515801697 924.3302032601979 719.445 920.7449999999992 Q 717.4750000000001 919.8289999999992 715.5030000000002 918.9189999999992 C 707.5060000000002 915.2259999999992 699.6710000000002 911.3349999999992 692.0000000000001 906.9999999999992 L 690.0000000000001 902.9999999999992 C 682.9530000000001 904.4949999999992 676.2750000000001 906.9359999999992 669.5130000000001 909.3869999999991 Q 667.0540000000002 910.2769999999991 664.5910000000001 911.1599999999992 C 661.4365946746703 912.2946931719633 658.2832599396186 913.4323603443448 655.1310000000005 914.5729999999987 Q 651.3260000000001 915.9489999999992 647.5210000000001 917.3199999999991 C 627.5980000000001 924.4999999999991 607.691 931.7249999999991 587.8340000000001 939.0859999999991 L 584.9480000000001 940.1529999999991 C 582.4390000000001 941.0819999999991 579.9340000000001 942.0159999999992 577.4530000000001 943.0179999999991 L 576.3430000000001 943.4589999999992 Q 575.013 943.9939999999991 573.6930000000001 944.5459999999991 L 572 945 L 567 945 L 567 904 C 572 901 572 901 574.258 900.035 Q 575.428 899.603 576.601 899.188 L 577.921 898.706 Q 580.094 897.917 582.269 897.141 L 585.417 895.9989999999999 Q 589.7090000000001 894.4429999999999 594.005 892.901 C 597.069 891.798 600.131 890.688 603.193 889.5799999999999 C 610.7893181642653 886.8335652964613 618.388321801884 884.0945639853077 625.9899999999996 881.3629999999976 Q 627.497 880.8219999999999 629.003 880.279 Q 646.546 873.969 664.0930000000001 867.672 C 683.9797113516703 860.5349832775636 703.8484408608017 853.3479605458523 723.6989999999989 846.1110000000003 C 737.6806079176997 841.0106528528813 751.6753209448528 835.9463027428029 765.6830000000036 830.9179999999989 L 766.6830000000001 830.559 C 808.964 815.362 808.964 815.362 828.0560000000002 808.139 L 831.6060000000001 806.798 Q 834.2960000000002 805.783 836.9810000000001 804.757 L 839.8020000000001 803.6859999999999 L 841.4580000000001 803.05 L 842.8850000000001 802.5039999999999 L 844 802 L 845 801 Q 845.106 794.05 845.155 787.097 C 845.1709999999999 784.944 845.192 782.7909999999999 845.226 780.638 C 845.437 767.121 845.437 767.121 844.746 762.187 C 844.2834047666611 759.8009539808879 843.652154230499 757.4507236892904 842.857 755.154 C 841.943 752.775 840.9209999999999 750.482 839.6519999999999 748.269 L 838.8749999999999 747 Q 838.0859999999999 745.658 837.3049999999998 744.312 L 836.6159999999999 743.176 C 836 742 836 742 835.418 740.355 L 835 739 C 820.1210384345468 743.8256799340278 805.3271344501168 748.9097821483955 790.6249999999999 754.2500000000002 L 788.335 755.082 L 787.181 755.502 L 781.359 757.617 L 780.186 758.043 C 771.817 761.081 763.4200000000001 764.0360000000001 755.017 766.975 C 740.9251022710397 771.905829673302 726.8503509277973 776.8855262988388 712.7929999999972 781.9140000000003 C 698.8870000000001 786.884 684.988 791.8729999999999 671.091 796.865 Q 657.399 801.7860000000001 643.699 806.684 L 642.391 807.151 Q 635.1909999999999 809.7239999999999 627.9879999999999 812.2909999999999 L 622.7579999999999 814.156 L 621.4449999999999 814.6239999999999 C 615.3297760550961 816.8058077030017 609.2184330774239 818.9984778299315 603.1109999999994 821.2020000000003 Q 597.965 823.0569999999999 592.817 824.9069999999999 Q 588.6080000000001 826.4189999999999 584.404 827.944 Q 581.814 828.88 579.22 829.809 Q 578.017 830.241 576.817 830.678 Q 575.176 831.275 573.529 831.861 L 571.672 832.531 L 570 833 L 567 833 L 567 791 C 586.427 783.618 605.971 776.6 625.554 769.646 Q 633.4 766.8589999999999 641.244 764.0609999999999 Q 647.928 761.6769999999999 654.615 759.3 Q 658.675 757.856 662.735 756.4079999999999 Q 666.545 755.0479999999999 670.36 753.6959999999999 Q 671.77 753.1959999999999 673.177 752.6919999999999 Q 675.104 752.0029999999999 677.033 751.3219999999999 L 678.173 750.9119999999999 C 679.1090500726075 750.5888570854784 680.0515784838772 750.28479415266 681 750 L 683 750 L 683.003 748.77 Q 683.089 712.683 683.229 676.596 L 683.2620000000001 667.926 L 683.269 666.182 Q 683.32 652.217 683.35 638.2520000000001 Q 683.383 623.916 683.448 609.5820000000001 Q 683.489 600.7400000000001 683.499 591.8980000000001 Q 683.508 585.8300000000002 683.5450000000001 579.7640000000001 C 683.5590000000001 577.4320000000001 683.5690000000001 575.1000000000001 683.565 572.7680000000001 Q 683.5600000000001 569.5600000000002 683.5930000000001 566.3510000000001 Q 683.6010000000001 565.1960000000001 683.5930000000001 564.0410000000002 C 683.5780000000001 561.6670000000001 683.6550000000001 559.3550000000001 684.0000000000001 557.0000000000001 C 684.5480000000001 555.0820000000001 685.3320000000001 553.3090000000001 686.1680000000001 551.5000000000001 C 686.9716223157285 550.0482861364104 687.8983563287817 548.6682219472971 688.9380000000001 547.3750000000001 C 689.9600000000002 546.4550000000002 690.8500000000001 545.7230000000001 692.0000000000001 545.0000000000001 C 693.5770000000001 544.1740000000001 695.1970000000001 543.4870000000001 696.8440000000002 542.8120000000001 L 698.3970000000002 542.1720000000001 C 706.3130000000002 538.9880000000002 714.4400000000002 536.3590000000002 722.5270000000002 533.6450000000001 C 727.2590000000001 532.056 731.9870000000002 530.4530000000001 736.7170000000002 528.8500000000001 L 739.9630000000002 527.7500000000001 C 750.5560527142377 524.1575456994703 761.1308548292328 520.5114989987444 771.6869999999994 516.812 L 772.9750000000003 516.3620000000001 Q 779.0240000000002 514.2460000000001 785.0730000000002 512.1260000000001 Q 795.6890000000002 508.4070000000001 806.3130000000002 504.7050000000001 C 830.4960000000002 496.2730000000001 854.6630000000002 487.8010000000001 878.7650000000002 479.1440000000001 Q 882.9290000000002 477.64800000000014 887.0960000000002 476.15800000000013 C 890.284533630381 475.0174902277073 893.4725339786546 473.8754901029511 896.6599999999987 472.7320000000025 C 902.7542298857055 470.5482128731081 908.8346831589473 468.32616904220896 914.9010000000003 466.066 C 917.6633794509065 465.0371089422597 920.4290604175256 464.01710366832293 923.1979999999999 463.0060000000004 C 924.954908696208 462.36532305781174 926.7063060757625 461.7096324134296 928.4520000000001 461.03900000000016 C 934.1750000000002 458.83500000000015 939.8890000000002 456.8460000000002 946.0320000000003 456.27500000000015 M 944.7490000000003 499.1970000000001 C 943.3340000000003 499.5580000000001 941.9790000000003 500.00600000000014 940.6020000000002 500.49200000000013 L 938.9950000000002 501.02800000000013 C 937.2010000000002 501.63100000000014 935.4150000000002 502.25300000000016 933.6260000000002 502.8750000000001 Q 932.1790000000002 503.3700000000001 930.7290000000002 503.8610000000001 C 915.8320000000001 508.9250000000001 901.0610000000001 514.3610000000001 886.2750000000002 519.7420000000001 C 874.1780000000002 524.143 862.0600000000002 528.455 849.8760000000002 532.6100000000001 C 842.6136242405801 535.0943109483683 835.3733416094143 537.6427437621464 828.1559999999995 540.2550000000003 C 812.5960000000002 545.8710000000001 796.9100000000002 551.0920000000001 781.2030000000002 556.2800000000001 C 776.2749745028442 557.9082188023389 771.3496344869548 559.5445543558034 766.4269999999967 561.1890000000006 L 761 563 L 761 566 L 762.628 566.708 C 777.119 573.019 791.5400000000001 579.4789999999999 805.9380000000001 586 L 807.2840000000001 586.61 L 822.4670000000001 593.492 C 839.5751705661675 601.247474619687 856.6888415403364 608.9908099020089 873.8079999999859 616.7219999999886 C 893.392 625.5799999999999 913.0080000000002 634.361 932.6880000000001 643 L 934.0480000000001 643.597 Q 937.9040000000001 645.2909999999999 941.7640000000001 646.981 L 944.0950000000001 648.003 C 948.0390000000001 649.7320000000001 951.9850000000001 651.4430000000001 956.0000000000001 653 C 958.0400000000001 652.812 960.0040000000001 652.461 962.0000000000001 652 C 965.3480000000001 650.946 968.6000000000001 649.598 971.863 648.309 L 974.7890000000001 647.169 Q 978.7290000000002 645.633 982.6640000000001 644.085 Q 986.8610000000001 642.438 991.0600000000001 640.801 Q 997.0440000000001 638.465 1003.023 636.1220000000001 C 1008.4890386679754 633.9787557236098 1013.9603888564841 631.8490824962192 1019.4369999999993 629.733 C 1043.079 620.6030000000001 1066.611 611.1980000000001 1090.144 601.791 L 1098.474 598.4630000000001 Q 1105.768 595.5490000000001 1113.061 592.6290000000001 L 1118.009 590.6510000000002 Q 1120.898 589.4970000000002 1123.784 588.3390000000002 Q 1124.834 587.9180000000001 1125.8850000000002 587.4990000000001 C 1129.3270000000002 586.1260000000001 1132.7180000000003 584.7280000000002 1136.0000000000002 583.0000000000001 L 1135.0000000000002 580.0000000000001 C 1112.6317966848067 569.9016132105882 1090.1745823772474 560.0015581745891 1067.6309999999985 550.3009999999991 L 1066.2140000000004 549.6910000000001 L 1063.3570000000004 548.4620000000001 C 1055.6140000000005 545.1320000000001 1047.8790000000004 541.7820000000002 1040.1480000000004 538.4220000000001 L 1038.4980000000003 537.7040000000002 L 1031.8380000000002 534.8090000000002 C 1021.2285476992894 530.1985925062734 1010.6158784470645 525.5955913848451 1000.0000000000023 520.9999999999991 L 998.254 520.244 Q 987.014 515.374 975.764 510.531 Q 972.524 509.136 969.2860000000001 507.734 C 966.7729503278335 506.646144502605 964.2579462606576 505.5628094173401 961.7409999999986 504.48399999999907 Q 960.3640000000001 503.892 958.9910000000001 503.29499999999996 C 951.277 499.94599999999997 951.277 499.94599999999997 948.2530000000002 499.164 C 946.9880000000002 498.977 946.0130000000001 498.998 944.7480000000002 499.197 M 725 594 L 725 734 C 731.907 732.849 731.907 732.849 735.15 731.728 L 736.271 731.353 Q 738.073 730.745 739.871 730.121 L 741.132 729.686 Q 744.434 728.543 747.7299999999999 727.383 C 749.5285461710938 726.7514441383408 751.331933062082 726.133759127435 753.1399999999999 725.5300000000002 C 764.4529999999999 721.7420000000001 764.4529999999999 721.7420000000001 769.0799999999999 719.5010000000001 C 769.9999999999999 719.0000000000001 769.9999999999999 719.0000000000001 771.492 717.9410000000001 C 772.6072909357875 716.9550649392298 773.6406862714288 715.8802000173039 774.582 714.7270000000001 C 775.2601052966465 713.8084924195739 775.8928618488022 712.857355197188 776.478 711.8770000000001 C 777.62 709.9580000000001 779.016 708.219 780.4409999999999 706.504 C 781.2889999999999 705.624 782.1569999999999 704.878 783.1239999999999 704.128 C 787.038752676065 701.3199650960622 791.1838392375051 698.8478329284371 795.5149999999999 696.738 C 797.9377436855592 695.6387638360414 800.4398163381783 694.7235100053305 803 694 C 806.961 693.025 810.945 692.427 815 692 L 816.248 691.858 C 818.2182754788629 691.6578326777145 820.2004647321869 691.6006830634304 822.1790000000001 691.6869999999999 C 826.513 692.0699999999999 830.7690000000001 693.0529999999999 834.9670000000001 694.1699999999998 C 839.1790000000001 695.3339999999998 843.2950000000001 696.6839999999999 847.2500000000001 698.5619999999999 C 849.8034776025492 699.881906455412 852.2393587174812 701.4178397336228 854.5310000000001 703.1529999999999 C 858.2950000000001 706.1419999999999 861.7610000000001 709.4519999999999 865.0010000000001 712.9999999999999 C 868.3125939277036 716.7565355133357 871.3219722069546 720.7690398856705 874.001 724.9999999999999 C 876.6150000000001 729.3339999999998 878.7320000000001 733.8189999999998 880.6050000000001 738.5179999999999 C 882.2460000000001 742.8549999999999 883.4500000000002 747.2499999999999 884.3590000000002 751.7959999999999 C 886.0110000000002 761.1419999999999 886.2300000000001 770.592 886.2500000000001 780.0619999999999 C 886.2140000000002 792.68 886.0450000000001 805.5209999999998 884.0000000000001 817.9999999999999 C 883.1740000000001 822.3339999999998 881.9470000000001 826.5139999999999 880.4140000000001 830.6479999999999 C 879.1720000000001 833.7059999999999 877.7980000000001 836.6529999999999 876.1250000000001 839.4999999999999 C 875.1331365270066 841.0339797620377 874.0909022286775 842.5347971516317 873 844 L 872.228 845.076 C 870.6519999999999 847.2230000000001 868.978 849.2090000000001 867.063 851.062 C 864.6659999999999 853.177 862.054 854.938 859.345 856.624 C 856.520814682793 858.2787243389976 853.5631712535813 859.6943256726804 850.503 860.856 C 847.063 862.095 843.589 863.27 840 864 C 837.192 864.261 834.38 864.291 831.562 864.312 L 830.357 864.325 C 827.564 864.341 824.7769999999999 864.311 822 864 C 819.554 863.551 817.211 862.781 814.875 861.937 L 813.412 861.335 C 811.937 860.7560000000001 810.5540000000001 860.315 809 860 C 807.333 859.931 807.333 859.931 805.48 860.074 C 803.46 860.356 801.53 860.837 799.58 861.4359999999999 C 795.812 862.6869999999999 792.104 864.0959999999999 788.3950000000001 865.511 C 786.772 866.1279999999999 785.1450000000001 866.7339999999999 783.5190000000001 867.341 L 782.5160000000001 867.715 L 780.484 868.472 L 777.384 869.631 C 769.844 872.4499999999999 762.2570000000001 875.139 754.666 877.8199999999999 L 750.5100000000001 879.289 Q 745.256 881.148 740 883 L 741 886 L 742.663 886.756 C 756.476 893.038 770.229 899.4399999999999 783.953 905.914 L 790.563 909.031 L 791.656 909.5469999999999 C 799.2319426079043 913.1086416525131 806.8209942136626 916.6423323483731 814.4230000000005 920.148 Q 825.252 925.1579999999999 836.027 930.281 L 837.2130000000001 930.8449999999999 L 842.0240000000001 933.1329999999999 L 846.9110000000001 935.4569999999999 C 859.1325429285299 941.2723202583047 871.4131839061082 946.962617258502 883.7509999999991 952.5269999999996 C 891.6819385305042 956.0913117274913 899.5776532162685 959.7334876397035 907.437000000001 963.4530000000003 L 909.8070000000001 964.576 C 913.2342779656386 966.1993776831567 916.6576213283228 967.8310491301219 920.0769999999987 969.4709999999986 Q 922.1630000000001 970.471 924.2530000000002 971.462 Q 925.2180000000002 971.922 926.1790000000002 972.387 C 928.0970000000002 973.3169999999999 930.0160000000002 974.217 932.0000000000002 975 C 933.6580000000002 975.445 935.2980000000002 975.78 937.0000000000002 976 L 938.0000000000002 975 L 938.0000000000002 691 L 934.0000000000002 687 C 932.7470000000002 686.253 931.6540000000002 685.661 930.3340000000002 685.1 L 929.2890000000002 684.628 C 928.1552239559813 684.1217832473995 927.0185383928106 683.6221082740292 925.8790000000004 683.129 Q 924.6610000000003 682.588 923.4460000000003 682.043 C 921.2734812425518 681.0756414645728 919.0981386101614 680.1146373565153 916.9200000000003 679.16 C 914.6310000000003 678.153 912.3470000000003 677.134 910.0620000000004 676.117 C 906.3965980890191 674.4858963254727 902.7289278702958 672.8598947507261 899.0590000000029 671.2390000000007 C 893.0901309930993 668.595740198228 887.1294359253078 665.9340608493679 881.1770000000002 663.2539999999998 Q 877.7520000000004 661.7149999999999 874.3240000000004 660.1809999999999 C 863.9252624803214 655.5194727470032 853.5309245224059 650.8481373353285 843.1409999999959 646.1669999999971 Q 830.7840000000004 640.6059999999999 818.4280000000005 635.0389999999999 L 804.1880000000004 628.6249999999999 L 802.9110000000004 628.0499999999998 C 791.1746258559667 622.7596308436556 779.4219028773451 617.505605669538 767.6530000000015 612.2880000000001 C 762.1155506135564 609.837445918525 756.5871795029763 607.3664290332233 751.0680000000001 604.8749999999998 L 748.0220000000003 603.5009999999997 L 747.0150000000003 603.0469999999998 L 745.0130000000004 602.1449999999998 Q 742.1100000000004 600.8339999999997 739.2080000000004 599.5169999999997 Q 736.9980000000004 598.5149999999998 734.7850000000004 597.5189999999997 L 733.1850000000004 596.7889999999996 L 731.6880000000004 596.1159999999996 L 730.4000000000004 595.5329999999997 C 728.6510000000004 594.8669999999996 726.8150000000004 594.4539999999997 725.0000000000005 593.9999999999997 M 1169.0000000000005 612.9999999999997 C 1167.7470000000005 613.3749999999997 1167.7470000000005 613.3749999999997 1166.4900000000005 613.9109999999996 L 1165.0300000000004 614.5229999999996 L 1163.4530000000004 615.2029999999995 L 1160.0080000000005 616.6539999999995 L 1158.1620000000005 617.4389999999995 C 1154.8438803358936 618.8440755728012 1151.5205238177753 620.2367519552182 1148.1920000000005 621.6169999999994 L 1147.1480000000004 622.0519999999995 C 1140.2050000000004 624.9409999999995 1133.2090000000003 627.6829999999994 1126.1880000000003 630.3749999999994 Q 1122.3200000000004 631.8599999999994 1118.4530000000004 633.3479999999994 L 1117.4000000000003 633.7529999999994 C 1106.0040000000004 638.1389999999993 1094.6450000000002 642.6199999999993 1083.2810000000004 647.0879999999994 L 1077.7510000000004 649.2619999999994 C 1059.5983129370493 656.3948163797374 1041.4533024429502 663.5471538496074 1023.31599999999 670.7190000000124 L 1022.2520000000005 671.1389999999993 Q 1015.0220000000005 673.9959999999993 1007.7820000000005 676.8259999999993 L 1004.8030000000005 677.9909999999993 L 1002.8760000000004 678.7449999999993 L 1001.9300000000004 679.1149999999993 Q 998.8700000000005 680.3109999999994 995.8070000000004 681.5029999999994 L 992.6680000000003 682.7299999999993 L 991.3190000000003 683.2519999999994 C 986.8030000000003 685.0239999999994 982.4500000000003 687.0219999999994 978.0000000000003 688.9999999999994 L 978.0000000000003 975.9999999999994 L 985.0000000000003 974.9999999999994 C 986.6550000000003 974.4069999999995 988.1100000000004 973.8269999999994 989.6680000000003 973.0589999999994 L 990.9530000000003 972.4559999999994 Q 992.3420000000003 971.8039999999994 993.7240000000003 971.1389999999994 C 996.3480000000003 969.8809999999994 998.9870000000003 968.6559999999995 1001.6250000000002 967.4259999999995 L 1003.3720000000002 966.6079999999995 C 1010.7100000000002 963.1829999999995 1018.1190000000001 959.9169999999995 1025.5240000000001 956.6399999999995 Q 1030.22 954.5599999999995 1034.912 952.4779999999995 L 1037.243 951.4439999999995 C 1043.918 948.4839999999995 1050.5839999999998 945.5029999999995 1057.2459999999999 942.5099999999995 C 1074.8 934.6219999999995 1092.3909999999998 926.8169999999996 1109.9799999999998 919.0069999999995 C 1119.7807020860996 914.65374625286 1129.580035903289 910.2974127043996 1139.377999999979 905.9379999999818 L 1146.8119999999997 902.6309999999995 L 1153.7619999999997 899.5399999999995 L 1156.2949999999996 898.4119999999995 C 1161.178240616103 896.2326553243968 1166.0800876559724 894.0952433407423 1171 892.0000000000001 C 1171.492 891.126 1171.492 891.126 1172 890 C 1172.124 889.022 1172.124 889.022 1172.124 887.975 L 1172.131 886.759 L 1172.123 885.428 L 1172.126 884.004 C 1172.129 882.417 1172.124 880.83 1172.12 879.243 L 1172.1229999999998 875.811 Q 1172.1249999999998 871.08 1172.1159999999998 866.349 C 1172.1109999999996 863.301 1172.1129999999998 860.2520000000001 1172.1139999999998 857.2030000000001 Q 1172.1139999999998 847.8460000000001 1172.1059999999998 838.489 Q 1172.0959999999998 829.222 1172.0959999999998 819.956 C 1172.0959999999998 819.572 1172.0959999999998 819.188 1172.0939999999998 818.793 L 1172.0939999999998 812.944 Q 1172.09 792.223 1172.0749999999998 771.502 Q 1172.061 751.37 1172.0549999999998 731.237 L 1172.0549999999998 729.9839999999999 L 1172.0499999999997 717.5239999999999 L 1172.0419999999997 692.1399999999999 L 1172.0419999999997 690.9609999999999 Q 1172.0269999999996 651.9809999999999 1171.9999999999998 612.9999999999999 Q 1170.4999999999998 612.9759999999999 1168.9999999999998 612.9999999999999 M 847 980 L 847 1019 C 866.703 1028.852 866.703 1028.852 875.437 1033.062 L 877.102 1033.866 C 888.2289999999999 1039.23 899.462 1044.359 910.727 1049.424 Q 912.751 1050.334 914.774 1051.2459999999999 Q 915.748 1051.686 916.722 1052.1219999999998 C 921.184 1054.128 925.592 1056.2179999999998 929.879 1058.579 C 930.913 1059.125 931.8960000000001 1059.614 933 1060 C 934.153 1060.125 934.153 1060.125 935.268 1060.129 L 937 1060 Q 937.266 1053.26 937.495 1046.517 Q 937.599 1043.385 937.723 1040.255 Q 937.843 1037.2310000000002 937.937 1034.2060000000001 Q 937.976 1033.056 938.027 1031.9050000000002 C 938.125 1029.5930000000003 938.188 1027.3100000000002 938 1025.0000000000002 C 937.555 1023.6130000000003 937.555 1023.6130000000003 937.001 1022.4970000000002 L 936.001 1021.0000000000002 C 931.7529534446563 1018.9333108023295 927.502951540597 1016.870643211558 923.250999999995 1014.8119999999965 L 922.266 1014.3360000000002 C 911.9889867776318 1009.3623881436205 901.6641718062174 1004.4881607677762 891.293 999.7140000000002 C 884.4605957654844 996.5768072148577 877.6635037372836 993.3632727787685 870.9029999999997 990.0740000000001 L 868.875 989.0870000000003 C 865.9372445816299 987.6580380805706 863.0038973348989 986.2200312598437 860.0749999999997 984.7730000000003 C 858.6030000000001 984.0460000000004 857.1270000000001 983.3270000000003 855.652 982.6050000000004 L 854.046 981.8030000000003 L 852.558 981.0790000000003 L 851.273 980.4440000000003 L 850 980 z M 1064 983 C 1062.8 983.462 1061.653 983.95 1060.49 984.49 L 1059.42 984.975 Q 1057.65 985.78 1055.883 986.594 Q 1054.623 987.168 1053.3600000000001 987.7410000000001 Q 1050.6540000000002 988.9710000000001 1047.9520000000002 990.2080000000001 C 1043.6699831613053 992.1637504836677 1039.3856468109127 994.1144185240089 1035.0989999999997 996.0600000000009 L 1032.171 997.3910000000001 C 1025.2899524025613 1000.5211077599781 1018.3942093445792 1003.6188087430988 1011.4839999999998 1006.6839999999997 L 1010.234 1007.238 C 1006.3166223718571 1008.9743338781955 1002.3976206557026 1010.7070013036091 998.4770000000004 1012.4360000000013 L 994.1830000000001 1014.3340000000001 Q 992.7530000000002 1014.965 991.3230000000001 1015.5930000000001 C 986.796 1017.5960000000001 982.4430000000001 1019.7790000000001 978.0000000000001 1022.0000000000001 L 978.0000000000001 1061 C 984.7500000000001 1058.75 984.7500000000001 1058.75 987.8260000000001 1057.314 L 988.8530000000002 1056.838 C 989.9641370054248 1056.3214352250416 991.0741396753714 1055.802433976661 992.183 1055.281 L 994.5980000000002 1054.1589999999999 Q 997.8450000000001 1052.647 1001.0890000000002 1051.1299999999999 C 1004.7520000000002 1049.418 1008.4190000000002 1047.713 1012.0840000000002 1046.0069999999998 L 1016.3570000000002 1044.0159999999998 C 1022.5375129574151 1041.137828080906 1028.7275469466867 1038.2801457228002 1034.9269999999995 1035.443 L 1039.0410000000002 1033.5569999999998 L 1040.3870000000002 1032.9399999999998 L 1043.0400000000002 1031.7229999999997 Q 1046.2780000000002 1030.2379999999998 1049.5200000000002 1028.7599999999998 Q 1052.5570000000002 1027.3759999999997 1055.5900000000001 1025.9809999999998 Q 1056.7010000000002 1025.4709999999998 1057.814 1024.9669999999999 C 1058.8254813250287 1024.5072382471249 1059.8354865124272 1024.0442358691391 1060.844 1023.5779999999997 L 1062.555 1022.7959999999998 L 1064 1022 L 1066 1020 L 1066 983 z M 931 1102 C 931.281 1103.371 931.577 1104.669 932 1106 C 932.67 1107.427 933.466 1108.763 934.285 1110.109 L 934.953 1111.2359999999999 Q 936.0029999999999 1112.9959999999999 937.063 1114.7499999999998 L 938.494 1117.1519999999998 Q 940.239 1120.08 942 1122.9999999999998 C 942.836 1123.4929999999997 942.836 1123.4929999999997 944 1123.9999999999998 C 945.227 1124.1199999999997 945.227 1124.1199999999997 946.614 1124.1129999999998 L 948.19 1124.1129999999998 L 949.883 1124.0979999999997 L 951.623 1124.0929999999996 Q 954.374 1124.0829999999996 957.125 1124.0619999999997 L 960.855 1124.0489999999998 Q 965.427 1124.0319999999997 970 1123.9999999999998 C 971.041 1123.0219999999997 972.04 1122.0549999999998 973 1120.9999999999998 C 973.901 1119.7789999999998 974.693 1118.5029999999997 975.48 1117.2069999999999 L 976.14 1116.1439999999998 Q 977.168 1114.4809999999998 978.187 1112.8119999999997 L 979.592 1110.5409999999997 C 980.7316530999354 1108.6962493355104 981.8676553232549 1106.8492457206587 982.9999999999997 1105 L 983 1103 C 981.621 1103.27 980.337 1103.577 979 1104 C 976.801 1104.932 974.652 1105.965 972.5 1107 C 967.012 1109.638 967.012 1109.638 964.883 1110.399 C 963.547 1110.77 962.201 1110.9769999999999 960.825 1111.135 C 958.036652787995 1111.356927370968 955.2357517924277 1111.3733049543548 952.445 1111.184 C 951 1111 951 1111 949.676 1110.684 C 946.663 1109.7259999999999 943.832 1108.395 941 1107 L 939.593 1106.32 C 936.708142086312 1104.9211935940903 933.8435136048333 1103.4810452128513 931 1102" stroke-linecap="round" />
</g>
		<g transform="matrix(0.161645759433766 0 0 0.161645759433766 1.105016244007345 67.59895679242271)"  >
<linearGradient id="SVGID_33_306355" gradientUnits="userSpaceOnUse" gradientTransform="matrix(1 0 0 1 580.6720721641951 1292.6238070690683)"  x1="0" y1="0" x2="0" y2="300">
<stop offset="0%" style="stop-color:rgb(250,217,97);stop-opacity: 1"/>
<stop offset="100%" style="stop-color:rgb(247,107,28);stop-opacity: 1"/>
</linearGradient>
<path style="stroke: none; stroke-width: 1; stroke-dasharray: none; stroke-linecap: butt; stroke-dashoffset: 0; stroke-linejoin: miter; stroke-miterlimit: 4; fill: url(#SVGID_33_306355); fill-rule: nonzero; opacity: 1;"  paint-order="stroke"  transform=" translate(-1030.9140360820975, -1442.4041067102605)" d="M 595.274 1292.84 C 598.6040042771532 1292.575772256486 601.9488004899621 1292.5537142478886 605.282 1292.774 C 607 1293 607 1293 608.5260000000001 1293.3919999999998 C 612.0360000000001 1294.6119999999999 615.297 1296.3259999999998 618.5820000000001 1298.0469999999998 Q 620.1820000000001 1298.8479999999997 621.7840000000001 1299.6419999999998 C 624.5773604833439 1301.038861996943 627.3610928231218 1302.454895403646 630.1349999999999 1303.8899999999999 C 632.8800000000001 1305.2979999999998 635.6390000000001 1306.677 638.3970000000002 1308.059 Q 644.9770000000002 1311.363 651.5380000000001 1314.709 C 658.2475771551343 1318.1301883701956 664.9702935887302 1321.5255468386902 671.7059999999989 1324.8949999999988 C 678.6632473423161 1328.3697624312142 685.6576515558153 1331.7696255793164 692.6879999999996 1335.094 C 702.7340000000002 1339.857 712.6850000000001 1344.8010000000002 722.6250000000001 1349.781 L 723.8090000000001 1350.374 Q 733.5210000000001 1355.241 743.229 1360.117 C 749.2761624931453 1363.1539978351575 755.3248299027965 1366.1879982078376 761.3750000000043 1369.2190000000026 L 762.567 1369.816 C 771.715 1374.3980000000001 780.873 1378.945 790.125 1383.313 C 800.915 1388.409 811.581 1393.75 822.25 1399.093 L 823.636 1399.788 Q 835.044 1405.502 846.448 1411.227 C 854.0112935047779 1415.0227365186063 861.5762942703427 1418.8150702357195 869.1430000000106 1422.6040000000078 C 879.181 1427.631 889.219 1432.65 899.375 1437.438 C 910.38 1442.625 921.248 1448.084 932.125 1453.5310000000002 L 933.578 1454.2590000000002 Q 945.552 1460.2570000000003 957.521 1466.2630000000001 Q 968.6959999999999 1471.871 979.875 1477.469 L 981.328 1478.1960000000001 C 992.398 1483.7400000000002 1003.4739999999999 1489.2600000000002 1014.669 1494.5490000000002 C 1022.837 1498.4080000000001 1030.924 1502.4210000000003 1039 1506.4690000000003 L 1039.989 1506.9640000000002 Q 1048.002 1510.9820000000002 1056.01 1515.0080000000003 Q 1063.504 1518.7740000000003 1071 1522.5310000000002 L 1071.977 1523.0210000000002 C 1083.1088365403784 1528.592173918821 1094.3028754357326 1534.0381838483447 1105.5569999999996 1539.3580000000002 C 1110.747 1541.8200000000002 1115.884 1544.3870000000002 1121 1547.0000000000002 C 1123.02 1546.8820000000003 1125.008 1546.6680000000001 1126.994 1546.2680000000003 C 1128 1546.0000000000002 1128 1546.0000000000002 1129.8139999999999 1545.2220000000002 C 1131.447 1544.3750000000002 1133.0349999999999 1543.4500000000003 1134.617 1542.5100000000002 C 1136.557 1541.3600000000001 1138.521 1540.2500000000002 1140.481 1539.1330000000003 L 1141.784 1538.3860000000002 C 1147.3280000000002 1535.2190000000003 1152.969 1532.2300000000002 1158.604 1529.2280000000003 Q 1160.864 1528.0220000000004 1163.123 1526.8140000000003 L 1164.034 1526.3270000000002 L 1165.8600000000001 1525.3520000000003 Q 1167.2310000000002 1524.6170000000004 1168.604 1523.8860000000004 C 1174.7833819777272 1520.5806516755513 1180.95705782902 1517.2646467423049 1187.1249999999975 1513.938000000002 L 1190.354 1512.1980000000003 L 1200 1507 L 1212.875 1500.063 L 1214.491 1499.192 C 1222.6939451593255 1494.7746836943809 1230.9026187366396 1490.368013317864 1239.1170000000047 1485.971999999997 C 1256.8419999999999 1476.482 1274.5639999999999 1466.9859999999999 1292.203 1457.336 C 1300.0736504287202 1453.0413414286595 1307.9644039153313 1448.7836279154585 1315.8749999999989 1444.5630000000003 C 1324.719 1439.833 1333.557 1435.092 1342.375 1430.313 L 1343.865 1429.505 C 1351.3257241837746 1425.4576357697479 1358.7794021279778 1421.397296293055 1366.2260000000035 1417.3239999999987 C 1371.5416860471223 1414.4165034414284 1376.8687268153483 1411.5298146827245 1382.2069999999987 1408.6640000000002 L 1383.8080000000002 1407.804 L 1385.4230000000002 1406.939 C 1395.0000000000002 1401.8020000000001 1404.5460000000003 1396.616 1414.0400000000002 1391.327 Q 1416.5890000000002 1389.908 1419.1390000000001 1388.494 C 1424.0020000000002 1385.7939999999999 1428.8600000000001 1383.088 1433.6860000000001 1380.3239999999998 C 1435.6569026358516 1379.200101968601 1437.631915888214 1378.0834278090374 1439.6109999999999 1376.9740000000002 Q 1440.968 1376.206 1442.314 1375.4199999999998 C 1445.133 1373.7759999999998 1447.952 1372.1799999999998 1451 1370.9999999999998 C 1452.923 1370.4189999999999 1454.848 1369.9799999999998 1456.82 1369.6059999999998 L 1458.1689999999999 1369.3479999999997 C 1459.463 1369.1459999999997 1460.6899999999998 1369.0149999999996 1461.9999999999998 1368.9999999999998 C 1463.273329093862 1369.1805356140774 1464.5346168162462 1369.4376686684159 1465.7769999999998 1369.7699999999998 C 1467.5989999999997 1370.3589999999997 1469.3059999999998 1371.1099999999997 1470.9999999999998 1371.9999999999998 C 1472.5269999999998 1372.8519999999999 1472.5269999999998 1372.8519999999999 1473.8129999999999 1373.7499999999998 C 1475.07 1374.9069999999997 1476.0939999999998 1376.1189999999997 1477.1519999999998 1377.4599999999998 C 1477.9259999999997 1378.6329999999998 1478.5929999999998 1379.7029999999997 1479.2029999999997 1380.9529999999997 C 1479.8159999999998 1382.3989999999997 1480.2559999999999 1383.8299999999997 1480.6089999999997 1385.3599999999997 C 1480.9139999999998 1387.0569999999996 1481.0969999999998 1388.7219999999998 1481.1559999999997 1390.4449999999997 C 1481.1249999999998 1391.7319999999997 1481.1249999999998 1391.7319999999997 1480.9999999999998 1392.9999999999998 C 1480.750675649971 1394.2291780591625 1480.4073330412637 1395.4373963530945 1479.9729999999997 1396.6139999999998 L 1479.4999999999998 1397.7499999999998 L 1479.0899999999997 1398.7799999999997 C 1478.5939999999996 1399.7969999999998 1478.5939999999996 1399.7969999999998 1477.9299999999996 1400.8439999999998 C 1476.7249999999997 1402.3419999999999 1475.3929999999996 1403.6509999999998 1473.9569999999997 1404.9219999999998 C 1472.0019999999997 1406.5769999999998 1469.9839999999997 1408.0549999999998 1467.7889999999998 1409.3779999999997 C 1465.2899999999997 1410.8179999999998 1462.7399999999998 1412.1579999999997 1460.1879999999996 1413.4999999999998 L 1457.3069999999996 1415.0429999999997 Q 1454.2469999999996 1416.6809999999996 1451.1809999999996 1418.3089999999997 C 1447.9656172951336 1420.0189354361396 1444.7556015302666 1421.738943883358 1441.5509999999997 1423.4689999999996 L 1439.9209999999994 1424.3469999999998 L 1436.6469999999995 1426.1129999999998 L 1431.6769999999995 1428.7869999999998 C 1424.7713557895072 1432.500068817584 1417.8789786053212 1436.2377592642786 1410.9999999999986 1440.0000000000018 C 1399.802 1446.122 1388.564 1452.17 1377.323 1458.214 C 1336.7240000000002 1480.039 1336.7240000000002 1480.039 1318.594 1489.953 C 1318.153 1490.193 1317.713 1490.435 1317.259 1490.683 C 1316.818 1490.923 1316.378 1491.165 1315.924 1491.413 C 1306.722153655633 1496.4424273113432 1297.4973908287386 1501.4298126338836 1288.2500000000002 1506.3749999999995 L 1287.358 1506.853 L 1281.9959999999999 1509.721 L 1280.206 1510.678 C 1273.6745658888979 1514.1730659367765 1267.1475606547458 1517.6764020795151 1260.6249999999952 1521.188000000004 L 1258.992 1522.066 C 1251.2016639024569 1526.2640035393392 1243.4242935803265 1530.486023619062 1235.6599999999996 1534.7319999999997 C 1225.455 1540.311 1215.213 1545.821 1204.9689999999998 1551.328 Q 1199.2589999999998 1554.398 1193.5549999999998 1557.473 C 1184.906 1562.133 1176.2559999999999 1566.793 1167.5969999999998 1571.435 L 1165.7419999999997 1572.431 C 1162.4064285388567 1574.2205377257792 1159.0684254534094 1576.0055393757261 1155.7279999999994 1577.786 C 1150.8749999999998 1580.372 1146.0269999999998 1582.9560000000001 1141.254 1585.688 C 1134.406 1589.586 1134.406 1589.586 1131 1591 C 1129.6940264426441 1591.4166089782934 1128.3684397283046 1591.7690308237975 1127.028 1592.056 C 1125.3990000000001 1592.209 1123.83 1592.2150000000001 1122.196 1592.128 C 1121.0935572073274 1592.0115687202374 1120.002979736067 1591.8018165501512 1118.936 1591.501 C 1118.2356326985314 1591.2768337974117 1117.538239241896 1591.0434803463386 1116.8439999999998 1590.801 L 1115.6789999999999 1590.4009999999998 C 1110.878 1588.6899999999998 1106.3939999999998 1586.339 1101.8749999999998 1583.9999999999998 Q 1099.3109999999997 1582.6799999999998 1096.7419999999997 1581.3749999999998 L 1095.2519999999997 1580.6169999999997 C 1092.092829359741 1579.0233283948837 1088.912546596486 1577.4718571181343 1085.7119999999995 1575.9629999999995 C 1072.3409999999997 1569.6449999999998 1059.0969999999998 1563.0909999999997 1045.8749999999998 1556.4689999999998 L 1044.4279999999999 1555.744 Q 1032.4509999999998 1549.7459999999999 1020.4789999999999 1543.7369999999999 C 1013.0291700892574 1539.9986683558488 1005.5778361526296 1536.2633347200824 998.1250000000024 1532.530999999998 L 996.6659999999999 1531.801 C 975.852 1521.378 975.852 1521.378 965.4999999999999 1516.5 C 954.5369999999999 1511.334 943.7109999999999 1505.896 932.8749999999999 1500.469 L 931.4219999999999 1499.741 Q 919.4479999999999 1493.744 907.4789999999999 1487.737 C 900.0291700892574 1483.998668355849 892.5778361526296 1480.2633347200826 885.1250000000024 1476.5309999999981 L 883.6659999999999 1475.8010000000002 C 872.9129999999999 1470.4160000000002 862.1569999999999 1465.0500000000002 851.2769999999999 1459.9240000000002 C 840.6779999999999 1454.9220000000003 830.213 1449.6470000000002 819.7339999999999 1444.3990000000001 L 818.2729999999999 1443.6670000000001 C 810.7641310486943 1439.9053985525975 803.256463998905 1436.1413983605094 795.7499999999989 1432.3749999999916 Q 785.9089999999999 1427.4380000000003 776.0649999999999 1422.5050000000003 C 773.7004319806393 1421.3214649024715 771.336764630069 1420.1361312261736 768.9739999999991 1418.9489999999998 C 758.8159999999999 1413.8460000000002 748.631 1408.8180000000002 738.3389999999999 1403.9910000000002 C 733.7718486049138 1401.8516258230195 729.2327958646359 1399.6527721306816 724.723 1397.3950000000002 L 723.569 1396.8170000000002 Q 722.184 1396.1200000000003 720.8009999999999 1395.4210000000003 C 716.9743484744081 1393.490007410536 713.1446771173531 1391.565005052889 709.312000000002 1389.6460000000002 L 708.3969999999999 1389.1860000000001 Q 700.0129999999999 1384.986 691.6279999999999 1380.7880000000002 Q 686.4859999999999 1378.2140000000002 681.3449999999999 1375.6350000000002 C 665.978 1367.9250000000002 650.5809999999999 1360.3020000000001 635.05 1352.9270000000001 C 627.6914768798204 1349.434650508115 620.3572999643516 1345.8912317002141 613.0480000000003 1342.297 C 610.7739220288208 1341.1772082629873 608.4942265299375 1340.0688609119438 606.2089999999992 1338.9719999999998 C 603.9186602227082 1337.8720915860447 601.635610422214 1336.7570672638585 599.3599999999999 1335.627 Q 598.0929999999998 1335.002 596.8149999999999 1334.399 C 594.491 1333.2979999999998 592.209 1332.156 590.04 1330.7689999999998 C 588.9 1329.9259999999997 587.918 1329.0189999999998 586.918 1328.0139999999997 C 585.158 1326.1079999999997 583.416 1324.1799999999996 582 1321.9999999999998 C 581.324 1320.3469999999998 581.324 1320.3469999999998 581 1318.9999999999998 C 580.598 1315.7699999999998 580.649 1312.4839999999997 580.723 1309.2349999999997 C 580.7840468809025 1308.1542160483025 580.8764190289272 1307.0754294098185 581 1306 C 581.3 1304.79 581.3 1304.79 581.684 1303.766 C 582.273 1302.5410000000002 582.934 1301.558 583.723 1300.43 C 585.5021357673957 1298.440986995742 587.446406646732 1296.6061064428927 589.535 1294.9450000000002 C 591 1294.0000000000002 591 1294.0000000000002 592.2189999999999 1293.4650000000001 C 593.9999999999999 1293.0000000000002 593.9999999999999 1293.0000000000002 595.2739999999999 1292.8400000000001" stroke-linecap="round" />
</g>
		<g transform="matrix(0.161645759433766 0 0 0.161645759433766 13.459393425888827 58.64291034718368)"  >
<linearGradient id="SVGID_33_306356" gradientUnits="userSpaceOnUse" gradientTransform="matrix(1 0 0 1 733.7080992950885 1274.5322847898742)"  x1="0" y1="0" x2="0" y2="225">
<stop offset="0%" style="stop-color:rgb(250,217,97);stop-opacity: 1"/>
<stop offset="100%" style="stop-color:rgb(247,107,28);stop-opacity: 1"/>
</linearGradient>
<path style="stroke: none; stroke-width: 1; stroke-dasharray: none; stroke-linecap: butt; stroke-dashoffset: 0; stroke-linejoin: miter; stroke-miterlimit: 4; fill: url(#SVGID_33_306356); fill-rule: nonzero; opacity: 1;"  paint-order="stroke"  transform=" translate(-1107.3427480084604, -1386.9987160794676)" d="M 752.855 1274.613 C 754.5 1274.5 754.5 1274.5 756.0930000000001 1274.6490000000001 C 757.4730000000001 1274.903 758.6200000000001 1275.1660000000002 759.9230000000001 1275.623 Q 761.0360000000002 1276.0510000000002 762.1410000000001 1276.498 L 763.4280000000001 1277.016 C 770.4580000000001 1279.94 777.214 1283.491 784.0080000000002 1286.9180000000001 Q 787.1350000000001 1288.4930000000002 790.2680000000001 1290.0620000000001 C 794.2331719130992 1292.0503357900466 798.1968397130054 1294.041669692716 802.159000000002 1296.0360000000012 Q 812.7050000000002 1301.342 823.2590000000001 1306.636 Q 826.9290000000001 1308.4759999999999 830.5970000000001 1310.326 C 839.3786897944772 1314.750012242559 848.2105986143273 1319.0736273023256 857.0910000000005 1323.2960000000003 C 869.0690000000001 1328.993 880.9330000000001 1334.9080000000001 892.7860000000002 1340.8590000000002 L 900.7260000000002 1344.8370000000002 Q 908.5980000000002 1348.7770000000003 916.4680000000002 1352.7240000000002 L 917.4080000000002 1353.1950000000002 Q 921.1750000000003 1355.0850000000003 924.9420000000002 1356.9720000000002 L 931.5320000000003 1360.2760000000003 L 932.4690000000003 1360.7460000000003 Q 940.3210000000003 1364.6820000000002 948.1770000000002 1368.6160000000002 Q 952.5400000000003 1370.7980000000002 956.8990000000002 1372.9870000000003 C 968.0050000000002 1378.5620000000004 979.1260000000002 1384.0930000000003 990.3530000000002 1389.4210000000003 C 1002.0530000000002 1394.9750000000004 1013.6190000000001 1400.7850000000003 1025.179 1406.6230000000003 Q 1031.4070000000002 1409.7700000000002 1037.642 1412.9010000000003 L 1039.633 1413.9020000000003 L 1042.643 1415.4150000000002 L 1053.82 1421.0370000000003 L 1054.845 1421.5530000000003 Q 1063.144 1425.7300000000002 1071.435 1429.9230000000002 C 1077.160573415753 1432.8154541331492 1082.8905801565354 1435.6991241921676 1088.6249999999973 1438.574 Q 1093.895 1441.2170000000003 1099.152 1443.8850000000002 Q 1103.163 1445.9180000000001 1107.1860000000001 1447.9230000000002 Q 1108.8280000000002 1448.7470000000003 1110.4640000000002 1449.5830000000003 C 1111.9550000000002 1450.3440000000003 1113.4540000000002 1451.0910000000003 1114.9540000000002 1451.8340000000003 L 1116.2440000000001 1452.5070000000003 C 1117.4940000000001 1453.1140000000003 1118.6640000000002 1453.6130000000003 1120.0000000000002 1454.0000000000002 C 1121.5820000000003 1454.1500000000003 1123.1100000000001 1454.1710000000003 1124.6970000000001 1454.1270000000002 L 1126 1454 L 1127.712 1453.473 L 1129.085 1452.721 L 1130.692 1451.867 L 1132.375 1450.922 Q 1133.278 1450.432 1134.185 1449.945 C 1135.796 1449.075 1137.399 1448.1899999999998 1139.001 1447.301 C 1140.6879999999999 1446.369 1142.383 1445.452 1144.077 1444.533 C 1147.129 1442.876 1150.174 1441.206 1153.217 1439.531 Q 1157.5430000000001 1437.1509999999998 1161.882 1434.793 Q 1165.814 1432.654 1169.739 1430.5059999999999 C 1177.0563956972346 1426.5097846464885 1184.3934851957883 1422.5497363414217 1191.7499999999982 1418.6260000000007 Q 1192.643 1418.1459999999997 1193.536 1417.6689999999996 L 1197.1100000000001 1415.7569999999996 L 1198.0040000000001 1415.2789999999995 L 1199.794 1414.3219999999994 C 1215.1670000000001 1406.0979999999995 1230.518 1397.8319999999994 1245.816 1389.4659999999994 C 1250.501 1386.9039999999995 1255.192 1384.3519999999994 1259.894 1381.8199999999995 L 1265.937 1378.5619999999994 L 1267.454 1377.7439999999995 C 1274.3532245228182 1374.0149095958443 1281.2077123389304 1370.2036383575596 1288.0159999999998 1366.3109999999997 C 1297.4759999999999 1360.9109999999994 1307.0489999999998 1355.7919999999995 1316.7309999999998 1350.8039999999994 C 1323.5539916747312 1347.2898888877153 1330.3315510528164 1343.6882582979345 1337.062 1339.999999999999 L 1338.4119999999996 1339.2599999999993 L 1343.8319999999997 1336.2839999999992 C 1348.705335665683 1333.6140929713151 1353.587361603607 1330.9600788706903 1358.477999999998 1328.3220000000001 C 1367.114230041961 1323.6537969096782 1375.7399186546825 1318.9661183163053 1384.3550000000005 1314.2589999999982 C 1389.5288855294914 1311.4291385793401 1394.7112421455674 1308.6147926020117 1399.901999999999 1305.8159999999998 L 1405.9369999999997 1302.5619999999992 L 1407.4429999999998 1301.7499999999993 C 1414.556523063567 1297.903533994036 1421.625328981743 1293.9749380145167 1428.6479999999997 1289.9649999999992 C 1432.3539557817303 1287.8597136658082 1436.066306286296 1285.7657039801045 1439.7849999999985 1283.6829999999998 Q 1441.4939999999997 1282.7229999999993 1443.1959999999997 1281.7539999999992 C 1446.5759999999998 1279.8469999999993 1449.9689999999996 1277.9839999999992 1453.5579999999998 1276.4949999999992 C 1454.9999999999998 1275.9999999999993 1454.9999999999998 1275.9999999999993 1456.4139999999998 1275.6609999999991 C 1457.724181910607 1275.4492376321075 1459.0479749056165 1275.3325994712243 1460.3749999999998 1275.3119999999992 C 1461.5749999999998 1275.3749999999993 1462.7099999999998 1275.5059999999992 1463.8909999999998 1275.7279999999992 C 1465.3809999999999 1276.0929999999992 1466.8059999999998 1276.5219999999993 1468.2309999999998 1277.0909999999992 C 1469.577556833612 1277.7080526727234 1470.8689213857401 1278.4390453013245 1472.0909999999997 1279.2759999999992 C 1473.4209999999996 1280.335999999999 1474.5559999999996 1281.518999999999 1475.6859999999997 1282.7859999999991 C 1476.8346995382199 1284.1554725691703 1477.9399157611056 1285.560838037861 1479 1287 C 1479.838 1290.142 1480.524 1293.295 1480.92 1296.525 C 1481 1298 1481 1298 1480.8970000000002 1299.2910000000002 C 1480.6762115640563 1300.4632068053854 1480.376530040607 1301.6191689805637 1480.0000000000002 1302.7510000000002 L 1479.6960000000001 1303.7420000000002 C 1479.3120000000001 1304.7340000000002 1479.3120000000001 1304.7340000000002 1478.7620000000002 1305.7820000000002 C 1477.5560000000003 1307.708 1476.305 1309.5300000000002 1474.8400000000001 1311.266 C 1473.948660996171 1312.2331132117088 1473.000302658484 1313.1460750762283 1472 1314 C 1468.315 1316.572 1464.245 1318.527 1460.25 1320.562 Q 1458.517 1321.4669999999999 1456.786 1322.376 C 1454.692461701711 1323.4753475530154 1452.5961215432767 1324.5693511147867 1450.4969999999998 1325.658 C 1445.0910000000001 1328.4599999999998 1439.732 1331.35 1434.3770000000002 1334.2459999999999 C 1432.7431854930805 1335.1285802398406 1431.1085180624025 1336.009580651603 1429.4730000000004 1336.889 Q 1419.218 1342.4109999999998 1409.0000000000002 1348 C 1401.0974285566324 1352.317616763107 1393.1807193211355 1356.6093065065602 1385.2500000000005 1360.8749999999995 L 1383.6070000000002 1361.758 Q 1376.9710000000002 1365.33 1370.3330000000003 1368.895 Q 1364.5400000000004 1372.008 1358.7500000000002 1375.125 L 1357.1060000000002 1376.009 C 1349.27738303323 1380.2239085781036 1341.4626739535959 1384.464598260372 1333.6620000000019 1388.7309999999989 C 1326.1636374701156 1392.8254094645986 1318.6512599888936 1396.8941000416849 1311.1249999999995 1400.9370000000001 C 1302.7008928526704 1405.4648643521534 1294.2842148739408 1410.006537122854 1285.8749999999984 1414.5620000000008 L 1284.3850000000002 1415.37 Q 1279.1910000000003 1418.184 1274.0000000000002 1421 L 1263.6140000000003 1426.63 L 1260.6400000000003 1428.2420000000002 C 1254.8802900195958 1431.3650234632778 1249.1146128095281 1434.4770291540453 1243.3430000000017 1437.5780000000004 C 1233.5140000000004 1442.8580000000002 1223.6880000000003 1448.1380000000001 1213.9510000000002 1453.5880000000002 C 1207.0910000000003 1457.4230000000002 1200.1750000000002 1461.1550000000002 1193.2510000000002 1464.8750000000002 C 1185.068603727911 1469.2625196433235 1176.9018850981788 1473.679214412464 1168.7510000000004 1478.1249999999998 L 1167.4130000000002 1478.8550000000002 Q 1161.2090000000003 1482.2430000000002 1155.0090000000002 1485.6360000000002 Q 1151.2310000000002 1487.7030000000002 1147.4510000000002 1489.7680000000003 L 1141.9080000000004 1492.8050000000003 C 1140.6589715625585 1493.4825216764302 1139.406959372043 1494.1545282195823 1138.1520000000003 1494.8210000000004 C 1136.8996093866194 1495.4862632066283 1135.6817160302442 1496.2145293901335 1134.5030000000004 1497.0030000000004 C 1133.1870000000004 1497.8400000000004 1133.1870000000004 1497.8400000000004 1131.8740000000005 1498.4430000000004 C 1130.0000000000005 1499.0000000000005 1130.0000000000005 1499.0000000000005 1128.7510000000004 1499.1940000000004 C 1126.0510000000004 1499.4660000000003 1123.3650000000005 1499.5110000000004 1120.6540000000005 1499.4270000000004 C 1118.8180000000004 1499.2800000000004 1118.8180000000004 1499.2800000000004 1117.0000000000005 1499.0000000000005 C 1113.9980000000005 1498.1470000000004 1111.2400000000005 1496.8810000000005 1108.4360000000004 1495.5250000000005 C 1106.8906224315506 1494.7511188921865 1105.3528816245948 1493.9620808496838 1103.8230000000003 1493.1580000000006 C 1102.1460000000004 1492.2900000000006 1100.4530000000004 1491.4530000000007 1098.7630000000004 1490.6120000000005 C 1095.843936483905 1489.1529680644392 1092.9328927488752 1487.677945903955 1090.0300000000007 1486.1870000000006 C 1085.8060858949834 1484.0241217075536 1081.5727118965772 1481.87976777592 1077.3299999999995 1479.7540000000001 C 1070.4147540080767 1476.2779597814774 1063.5090613320622 1472.7829466179883 1056.6130000000012 1469.2690000000014 C 1049.5666210325417 1465.6796240748947 1042.5136089675327 1462.1032846238104 1035.4539999999988 1458.5399999999995 L 1026.8640000000003 1454.2050000000006 L 1017.2100000000003 1449.3350000000007 C 1011.4741550839683 1446.4399322735635 1005.7421500486807 1443.5372630570432 1000.0139999999972 1440.6269999999993 C 987.4790000000003 1434.2570000000007 974.9460000000003 1427.9040000000007 962.2350000000002 1421.8910000000005 C 953.4270000000002 1417.7220000000004 944.6990000000003 1413.4010000000005 935.9850000000002 1409.0410000000006 L 934.8990000000002 1408.4980000000007 Q 928.1060000000002 1405.1000000000008 921.3170000000002 1401.6940000000006 Q 915.2460000000002 1398.6510000000007 909.1730000000002 1395.6120000000005 C 898.0110988369742 1390.0267970097132 886.8510981910741 1384.4377966862385 875.6929999999788 1378.8449999999862 L 866.5580000000002 1374.2690000000005 L 865.2580000000003 1373.6190000000004 Q 854.4220000000003 1368.1890000000003 843.5830000000003 1362.7650000000003 Q 837.5450000000003 1359.7430000000004 831.5080000000003 1356.7160000000003 C 814.8740000000003 1348.3760000000004 798.2250000000003 1340.0900000000004 781.4010000000003 1332.1370000000004 C 778.8395908382433 1330.9241306952147 776.2812493436344 1329.7047934721163 773.7260000000003 1328.4790000000005 L 772.5320000000004 1327.9090000000006 C 769.1033538453441 1326.260750745403 765.6819872960258 1324.5974012636123 762.2679999999999 1322.919 C 760.731096609188 1322.1672037420376 759.1900733398445 1321.4238591842534 757.6450000000004 1320.6890000000005 C 746.6570000000004 1315.4550000000006 746.6570000000004 1315.4550000000006 743.0000000000003 1313.0000000000005 C 741.7273416532282 1311.9712498964097 740.5284002408027 1310.854510152729 739.4120000000004 1309.6580000000004 C 737.8090000000004 1307.7440000000004 736.4660000000003 1305.7480000000003 735.1450000000003 1303.6280000000004 Q 734.8570000000003 1303.1050000000005 734.5620000000004 1302.5620000000004 C 734.2100000000004 1301.4020000000003 734.2100000000004 1301.4020000000003 734.0000000000003 1300.0000000000005 C 733.7354787613317 1297.768074762307 733.6505393329122 1295.5185175379854 733.7460000000003 1293.2730000000004 C 733.8400000000004 1292.1470000000004 733.9780000000003 1291.0890000000004 734.2380000000003 1289.9890000000003 C 734.7240000000003 1288.4320000000002 735.3690000000003 1287.0130000000001 736.1050000000002 1285.5590000000002 L 737 1284 L 737.738 1282.597 C 738.562 1281.312 738.562 1281.312 739.5780000000001 1280.133 C 741 1279 741 1279 742.044 1278.401 C 744.55 1277.144 747.116 1276.151 749.795 1275.3290000000002 C 750.8074026812203 1275.058956027559 751.8278870413392 1274.820176026956 752.8549999999999 1274.6130000000003" stroke-linecap="round" />
</g>
		<g transform="matrix(0.161645759433766 0 0 0.161645759433766 13.385089577133272 43.69794812079698)"  >
<linearGradient id="SVGID_33_306357" gradientUnits="userSpaceOnUse" gradientTransform="matrix(1 0 0 1 733.5168102516864 1182.6756207892486)"  x1="0" y1="0" x2="0" y2="224">
<stop offset="0%" style="stop-color:rgb(250,217,97);stop-opacity: 1"/>
<stop offset="100%" style="stop-color:rgb(247,107,28);stop-opacity: 1"/>
</linearGradient>
<path style="stroke: none; stroke-width: 1; stroke-dasharray: none; stroke-linecap: butt; stroke-dashoffset: 0; stroke-linejoin: miter; stroke-miterlimit: 4; fill: url(#SVGID_33_306357); fill-rule: nonzero; opacity: 1;"  paint-order="stroke"  transform=" translate(-1106.8830771268008, -1294.5436941924854)" d="M 752.272 1182.703 C 754.543 1182.639 756.749 1182.668 759 1183 C 760.742 1183.486 762.351 1184.15 763.988 1184.914 C 765.7810000000001 1185.785 767.546 1186.702 769.312 1187.625 Q 770.815 1188.38 772.32 1189.129 C 774.4582793948887 1190.196811019711 776.5929581565725 1191.2718171106587 778.7240000000002 1192.3539999999998 C 781.9301070038357 1193.965091507912 785.1549953626848 1195.5385330061306 788.3980000000001 1197.0739999999998 C 799.5923429076481 1202.4074926686803 810.7348635594535 1207.8490802687545 821.8240000000006 1213.3980000000004 C 826.9861072730262 1215.9788053356815 832.1444460974764 1218.5671414243318 837.2990000000013 1221.1630000000011 C 846.2390000000001 1225.663 855.1930000000001 1230.117 864.2370000000001 1234.404 C 876.5680000000001 1240.256 888.782 1246.331 900.979 1252.455 Q 905.234 1254.589 909.491 1256.72 Q 916.626 1260.2930000000001 923.76 1263.8700000000001 L 924.663 1264.3220000000001 C 929.1879625982613 1266.5927371651385 933.7136294826666 1268.8620706076533 938.2399999999957 1271.1299999999974 C 938.538 1271.2800000000002 938.835 1271.43 939.142 1271.582 Q 946.696 1275.372 954.254 1279.153 Q 958.448 1281.2540000000001 962.64 1283.358 C 974.136 1289.129 985.658 1294.828 997.275 1300.3519999999999 C 1006.62 1304.7969999999998 1015.887 1309.3839999999998 1025.133 1314.032 Q 1028.378 1315.662 1031.626 1317.288 Q 1040.502 1321.735 1049.375 1326.19 Q 1058.841 1330.942 1068.312 1335.6860000000001 L 1070.934 1337.0000000000002 C 1082.3329999999999 1342.7110000000002 1093.745 1348.3800000000003 1105.295 1353.7810000000002 L 1107.727 1354.9240000000002 L 1108.864 1355.4540000000002 C 1110.9018750030887 1356.4220505956018 1112.8770795547919 1357.5168629933842 1114.778 1358.7320000000002 C 1116.128503489868 1359.589329773958 1117.5395570594621 1360.3473282334178 1119 1361 C 1120.777 1361.347 1120.777 1361.347 1122.565 1361.426 C 1124.319 1361.3129999999999 1124.319 1361.3129999999999 1126 1361 C 1127.582 1360.471 1128.979 1359.832 1130.449 1359.045 L 1131.9650000000001 1358.1760000000002 L 1133.6200000000001 1357.2740000000001 C 1135.0928711304334 1356.4670589614716 1136.5605677966064 1355.6507089420627 1138.0230000000001 1354.825 C 1139.575 1353.9550000000002 1141.1360000000002 1353.102 1142.6970000000001 1352.248 Q 1146.527 1350.1490000000001 1150.342 1348.026 C 1155.0970000000002 1345.386 1159.885 1342.803 1164.673 1340.222 C 1166.6259406393924 1339.1660176817888 1168.5776087216357 1338.1076835808285 1170.5280000000012 1337.0469999999993 Q 1177.4850000000001 1333.27 1184.465 1329.535 C 1195.4199999999998 1323.6680000000001 1206.317 1317.727 1217.109 1311.563 C 1224.627 1307.275 1232.243 1303.22 1239.9379999999999 1299.26 C 1247.225 1295.5049999999999 1254.386 1291.571 1261.4999999999998 1287.5 C 1269.0965884981388 1283.1478588221971 1276.7856916695125 1278.9592280381382 1284.5619999999994 1274.9370000000001 C 1294.3819999999996 1269.865 1304.0979999999997 1264.6229999999998 1313.7859999999996 1259.3049999999998 C 1317.1509999999996 1257.4589999999998 1320.5269999999996 1255.6319999999998 1323.9059999999995 1253.812 C 1333.8519999999994 1248.455 1343.7499999999995 1243.0349999999999 1353.5619999999994 1237.437 C 1362.0919999999994 1232.572 1370.7249999999995 1227.954 1379.4479999999994 1223.447 C 1388.2949999999994 1218.8729999999998 1397.0329999999994 1214.11 1405.7629999999995 1209.319 C 1409.196670520474 1207.4373289774142 1412.636354805317 1205.566652729082 1416.081999999999 1203.7070000000003 L 1417.6259999999995 1202.8719999999998 L 1423.7689999999996 1199.5549999999998 C 1428.9979999999996 1196.7289999999998 1434.2199999999996 1193.8909999999998 1439.4099999999996 1190.9919999999997 L 1440.6869999999997 1190.2789999999998 Q 1443.6269999999997 1188.6369999999997 1446.5579999999998 1186.9819999999997 L 1448.6129999999998 1185.8279999999997 L 1449.5279999999998 1185.3059999999998 C 1450.8273636050528 1184.5708805317079 1452.1797875667105 1183.9337772022666 1453.5739999999998 1183.3999999999999 C 1454.9999999999998 1182.9999999999998 1454.9999999999998 1182.9999999999998 1456.1319999999998 1182.8229999999999 C 1458.667 1182.677 1461.1799999999998 1182.6429999999998 1463.714 1182.829 C 1465 1183 1465 1183 1466.149 1183.269 C 1467.5829999999999 1183.729 1468.8929999999998 1184.312 1470.2259999999999 1185.012 C 1471.2007481506334 1185.6018382312184 1472.1282046712893 1186.2665042597203 1473 1187 C 1474.553 1188.585 1475.884 1190.3 1477.186 1192.094 C 1477.8349999999998 1193.044 1478.436 1193.998 1479 1195 L 1479.644 1196.45 C 1479.943 1197.75 1480.111 1198.91 1480.203 1200.2340000000002 C 1480.2839999999999 1202.8310000000001 1480.283 1205.4150000000002 1480 1208.0000000000002 C 1479.72 1209.3700000000001 1479.326 1210.4930000000002 1478.812 1211.8120000000001 C 1478.144 1213.332 1478.144 1213.332 1477.6719999999998 1214.1060000000002 C 1476.3899999999999 1215.8120000000001 1474.927 1217.3060000000003 1473.3949999999998 1218.7880000000002 C 1472.136843501974 1219.8859670018346 1470.7880313719547 1220.8754973293637 1469.3629999999998 1221.7460000000003 C 1468.3510104489278 1222.3186598034138 1467.333970588894 1222.8823485622854 1466.312 1223.4370000000004 L 1464.543 1224.4250000000004 C 1462.3688844886728 1225.6292237025286 1460.1878482833424 1226.820910151261 1458 1228 L 1456.622 1228.746 C 1451.2122816298831 1231.675026302592 1445.7966037322738 1234.593032353904 1440.3749999999998 1237.5 C 1433.8609630548965 1240.9946891691743 1427.3609112009744 1244.5153839220525 1420.874999999998 1248.0620000000013 C 1413.2999108557688 1252.202137976435 1405.716562404886 1256.3271461997176 1398.125 1260.437 L 1396.62 1261.252 Q 1388.9799999999998 1265.389 1381.337 1269.519 L 1372.094 1274.515 C 1365.7473691867124 1277.945815353219 1359.4242219921111 1281.4198962252804 1353.1249999999995 1284.9370000000004 C 1345.954 1288.9440000000002 1338.735 1292.8600000000001 1331.5 1296.7500000000002 L 1329.836 1297.6450000000002 C 1324.2311711553957 1300.6589084434765 1318.623168042023 1303.6669101134155 1313.0119999999986 1306.6689999999996 C 1310.2777229371366 1308.1315710799142 1307.5443890358142 1309.595904717536 1304.8119999999992 1311.0619999999992 L 1303.176 1311.94 C 1295.057 1316.3 1287.0249999999999 1320.796 1279.0249999999999 1325.3700000000001 C 1271.091 1329.8970000000002 1263.0339999999999 1334.144 1254.9099999999999 1338.317 C 1247.495372321626 1342.1261037199474 1240.169111353426 1346.1048172380622 1232.937 1350.25 C 1223.7259999999999 1355.532 1214.3919999999998 1360.548 1205 1365.5 C 1195.098 1370.72 1185.274 1376.034 1175.561 1381.601 C 1167.4489999999998 1386.247 1159.212 1390.621 1150.884 1394.8680000000002 C 1145.896 1397.4230000000002 1141.032 1400.093 1136.275 1403.0620000000001 L 1135.105 1403.785 L 1134.089 1404.4250000000002 C 1133 1405.0000000000002 1133 1405.0000000000002 1131.7369999999999 1405.5490000000002 C 1130.2179999999998 1405.9430000000002 1128.867 1406.159 1127.31 1406.2990000000002 C 1124.451 1406.4500000000003 1121.6219999999998 1406.4630000000002 1118.7649999999999 1406.2540000000001 C 1116.9999999999998 1406.0000000000002 1116.9999999999998 1406.0000000000002 1115.386 1405.554 C 1111.52 1404.135 1107.917 1402.1950000000002 1104.289 1400.2620000000002 C 1103.1083211636833 1399.6577413673492 1101.9263183201806 1399.0560732532706 1100.743 1398.4569999999999 C 1097.9604473786458 1397.0395505722777 1095.1870564789397 1395.6041874455789 1092.423 1394.1510000000003 C 1088.751 1392.226 1085.061 1390.337 1081.371 1388.448 L 1078.614 1387.035 L 1077.701 1386.568 C 1075.7337401397142 1385.5572817109344 1073.77006119099 1384.539608679114 1071.8099999999995 1383.5149999999999 C 1064.664 1379.7949999999998 1057.4379999999999 1376.2759999999998 1050.162 1372.8169999999998 C 1038.3700000000001 1367.2119999999998 1026.688 1361.4019999999998 1015.0210000000001 1355.5449999999998 Q 1010.7660000000001 1353.4099999999999 1006.509 1351.2799999999997 Q 999.374 1347.7069999999997 992.24 1344.1299999999997 L 991.337 1343.6769999999997 L 984.0939999999999 1340.0449999999996 L 977.76 1336.8689999999997 L 976.858 1336.4169999999997 L 961.746 1328.8469999999998 Q 957.5509999999999 1326.7469999999998 953.36 1324.6419999999998 C 941.789 1318.8329999999999 930.191 1313.099 918.5 1307.5369999999998 C 910.6296921904224 1303.7913895113845 902.8041404789253 1299.9524521946817 895.0250000000001 1296.0209999999997 C 891.648 1294.3159999999998 888.263 1292.6259999999997 884.88 1290.9329999999998 L 878.665 1287.8199999999997 Q 868.952 1282.9549999999997 859.2389999999999 1278.0929999999996 Q 851.9169999999999 1274.4289999999996 844.5989999999999 1270.7629999999997 C 806.0799999999999 1251.4579999999996 806.0799999999999 1251.4579999999996 787.6909999999999 1242.7569999999996 C 780.2509999999999 1239.2299999999996 772.8759999999999 1235.5679999999995 765.5049999999999 1231.8999999999996 Q 762.8949999999999 1230.6009999999997 760.2789999999999 1229.3179999999995 C 758.1030637441685 1228.248614626634 755.9303870160567 1227.1726096437642 753.7609999999995 1226.0899999999992 Q 752.5519999999999 1225.4899999999996 751.3389999999998 1224.8959999999995 C 745.4639999999998 1222.0229999999995 745.4639999999998 1222.0229999999995 743.0759999999998 1220.3539999999996 C 741.2889999999998 1219.0049999999997 739.5919999999998 1217.5779999999995 737.9999999999998 1215.9999999999995 C 737.1399999999998 1214.8469999999995 737.1399999999998 1214.8469999999995 736.5389999999998 1213.8599999999994 C 736.2131181683301 1213.1660478062245 735.9083119880256 1212.4623924009265 735.6249999999998 1211.7499999999995 L 735.1459999999997 1210.5899999999995 C 734.5554811584035 1209.0483834185989 734.0958565947616 1207.459768387496 733.7719999999997 1205.8409999999994 C 733.5681017597842 1204.3411030869195 733.4861665854719 1202.827141723199 733.5269999999997 1201.3139999999994 C 733.6133144152981 1200.2003196553244 733.771308473731 1199.0933591698142 734 1198 C 734.4211200856289 1196.5401344041209 734.9647164813272 1195.118420753833 735.625 1193.75 C 736.3161823296504 1192.4391195393196 737.1103438148341 1191.1851803521872 738 1190 C 738.9045334506405 1188.9684386601102 739.8863772334654 1188.0073215761397 740.937 1187.125 C 741.9368144940717 1186.3866069255369 742.9582615732313 1185.6779634246507 744 1185 L 745.144 1184.254 C 746.25 1183.687 746.25 1183.687 747.4110000000001 1183.329 C 749.0135763647329 1183.0001299381056 750.638389729783 1182.7908863325674 752.272 1182.703" stroke-linecap="round" />
</g>
</g>
</g>
<g transform="matrix(1.9211538461538462 0 0 1.9211538461538462 667.8662174644511 508.19347214439495)" id="text-logo"  >
<g style=""  paint-order="stroke"   >
		<g transform="matrix(1 0 0 1 0 0)" id="text-logo-path-0"  >
<path style="stroke: rgb(0,0,0); stroke-width: 3; stroke-dasharray: none; stroke-linecap: butt; stroke-dashoffset: 0; stroke-linejoin: miter; stroke-miterlimit: 4; fill: rgb(255,255,255); fill-rule: nonzero; opacity: 1;"  paint-order="stroke"  transform=" translate(-100.915, 27.65)" d="M 22.12 -17.38 C 31.76 -17.38 39.9 -25.52 39.9 -35.16 L 39.9 -37.52 C 39.9 -47.16 31.76 -55.3 22.12 -55.3 L 4.34 -55.3 L 4.34 0 L 5.92 0 C 9.48 0 12.25 -2.77 12.25 -6.32 L 12.25 -17.38 Z M 22.12 -25.28 L 12.25 -25.28 L 12.25 -47.4 L 22.12 -47.4 C 27.49 -47.4 32 -42.9 32 -37.52 L 32 -35.16 C 32 -29.78 27.49 -25.28 22.12 -25.28 Z M 81.8 -32.63 L 84.73 -36.18 C 81.8 -38.71 78.01 -40.29 73.82 -40.29 C 64.66 -40.29 57.23 -32.94 57.23 -23.7 L 57.23 0 L 58.81 0 C 62.37 0 65.13 -2.77 65.13 -6.32 L 65.13 -23.7 C 65.13 -28.52 69 -32.39 73.82 -32.39 C 74.93 -32.39 76.04 -32.15 76.98 -31.84 C 78.96 -31.05 80.46 -30.97 81.8 -32.63 Z M 106.8 -45.82 C 109.33 -45.82 111.54 -47.95 111.54 -50.56 C 111.54 -53.17 109.33 -55.3 106.8 -55.3 C 104.2 -55.3 102.06 -53.17 102.06 -50.56 C 102.06 -47.95 104.2 -45.82 106.8 -45.82 Z M 104.43 -39.5 L 102.85 -39.5 L 102.85 0 L 110.75 0 L 110.75 -33.18 C 110.75 -36.73 107.99 -39.5 104.43 -39.5 Z M 128.88 -23.7 L 128.88 0 L 130.46 0 C 134.02 0 136.78 -2.77 136.78 -6.32 L 136.78 -23.7 C 136.78 -28.52 140.65 -32.39 145.47 -32.39 C 150.21 -32.39 154.16 -28.52 154.16 -23.7 L 154.16 -6.32 C 154.16 -2.77 156.93 0 160.48 0 L 162.06 0 L 162.06 -23.7 C 162.06 -32.94 154.56 -40.29 145.47 -40.29 C 136.31 -40.29 128.88 -32.94 128.88 -23.7 Z M 191.25 0 L 197.49 0 L 197.49 -7.9 L 192.2 -7.9 C 189.51 -7.9 187.3 -10.11 187.3 -12.8 L 187.3 -31.6 L 191.17 -31.6 C 194.73 -31.6 197.49 -34.37 197.49 -37.92 L 197.49 -39.5 L 187.3 -39.5 L 187.3 -43.45 C 187.3 -47.01 184.53 -49.77 180.98 -49.77 L 179.4 -49.77 L 179.4 -11.85 C 179.4 -5.29 184.77 0 191.25 0 Z" stroke-linecap="round" />
</g>
</g>
</g>
<g transform="matrix(1.9211538461538462 0 0 1.9211538461538462 1009.0326837773544 520.6204828805669)" id="tagline-934d440a-8b9c-4856-b4d5-e5f809af3f4a-logo"  >
<g style=""  paint-order="stroke"   >
		<g transform="matrix(1 0 0 1 0 0)" id="tagline-934d440a-8b9c-4856-b4d5-e5f809af3f4a-logo-path-0"  >
<linearGradient id="SVGID_306358" gradientUnits="userSpaceOnUse" gradientTransform="matrix(1 0 0 1 4.340000000000003 -56.09)"  x1="-4.404252109527704" y1="-13.362059999999985" x2="-4.404252109527704" y2="75.63794000000001">
<stop offset="0%" style="stop-color:rgb(250,217,97);stop-opacity: 1"/>
<stop offset="100%" style="stop-color:rgb(247,107,28);stop-opacity: 1"/>
</linearGradient>
<path style="stroke: rgb(255,255,255); stroke-width: 0; stroke-dasharray: none; stroke-linecap: butt; stroke-dashoffset: 0; stroke-linejoin: miter; stroke-miterlimit: 4; fill: url(#SVGID_306358); fill-rule: nonzero; opacity: 1;"  paint-order="stroke"  transform=" translate(-67.7, 20.145000000000003)" d="M 22.12 0.79 C 31.76 0.79 39.9 -7.35 39.9 -16.98 L 39.9 -38.31 C 39.9 -47.95 31.76 -56.09 22.12 -56.09 C 12.48 -56.09 4.34 -47.95 4.34 -38.31 L 4.34 -16.98 C 4.34 -7.35 12.48 0.79 22.12 0.79 Z M 22.12 -7.11 C 16.75 -7.11 12.25 -11.61 12.25 -16.98 L 12.25 -38.31 C 12.25 -43.69 16.75 -48.19 22.12 -48.19 C 27.49 -48.19 32 -43.69 32 -38.31 L 32 -16.98 C 32 -11.61 27.49 -7.11 22.12 -7.11 Z M 70.31 0.79 C 81.05 0.79 89.66 -8.45 89.66 -19.83 C 89.66 -31.13 81.05 -40.29 70.31 -40.29 C 64.94 -40.29 59.96 -37.92 56.41 -34.05 C 56.01 -37.13 53.4 -39.5 50.16 -39.5 L 48.59 -39.5 L 48.59 15.8 L 56.48 15.8 L 56.48 -5.45 C 60.04 -1.58 64.94 0.79 70.31 0.79 Z M 69.13 -7.11 C 62.17 -7.11 56.48 -12.8 56.48 -19.83 C 56.48 -26.78 62.17 -32.39 69.13 -32.39 C 76.16 -32.39 81.77 -26.78 81.77 -19.83 C 81.77 -12.8 76.16 -7.11 69.13 -7.11 Z M 97.64 -1.58 L 97.64 0 L 118.82 0 C 125.69 0 131.06 -5.37 131.06 -12.25 C 131.06 -19.12 125.69 -24.49 118.82 -24.49 L 108.07 -24.49 C 106.1 -24.49 104.52 -26.07 104.52 -28.05 C 104.52 -30.02 106.1 -31.6 108.07 -31.6 L 120.55 -31.6 C 124.11 -31.6 126.87 -34.37 126.87 -37.92 L 126.87 -39.5 L 108.15 -39.5 C 101.75 -39.5 96.62 -34.37 96.62 -28.12 C 96.62 -21.73 101.75 -16.59 108.15 -16.59 L 118.82 -16.59 C 121.27 -16.59 123.16 -14.69 123.16 -12.25 C 123.16 -9.8 121.27 -7.9 118.82 -7.9 L 103.96 -7.9 C 100.41 -7.9 97.64 -5.13 97.64 -1.58 Z" stroke-linecap="round" />
</g>
</g>
</g>
</svg>