<?xml version="1.0" encoding="UTF-8"?>
<svg version="1.1" xmlns="http://www.w3.org/2000/svg" width="357" height="389">
<path d="M0 0 C9.98227912 9.24788802 16.30503127 20.76734057 17.328125 34.484375 C17.7722793 47.80900409 13.54523516 59.7919401 4.8671875 69.90625 C-2.52978337 77.71960665 -12.92863272 84.90139182 -23.98242188 85.83325195 C-40.90192715 86.29526194 -54.33881185 84.25228844 -67.359375 72.40234375 C-77.63281343 61.69941375 -82.43139497 49.40831147 -82.1328125 34.703125 C-80.97127127 20.54684127 -74.15773957 9.18118239 -63.8828125 -0.34375 C-44.56705951 -14.80810457 -18.99931826 -15.44660021 0 0 Z " fill="#FDB61A" transform="translate(332.8828125,290.34375)"/>
<path d="M0 0 C3.62283169 1.8575636 7.16543983 3.84592814 10.70996094 5.84790039 C12.70401023 6.94820518 14.69885367 8.04707154 16.69433594 9.14477539 C26.65804761 14.65342277 36.54668641 20.28308124 46.33447266 26.09838867 C52.10027366 29.51582554 57.93043349 32.81279985 63.77246094 36.09790039 C72.80803583 41.18031742 81.77592368 46.36884536 90.71899414 51.61206055 C97.59460946 55.6352586 104.51418089 59.57233473 111.45996094 63.47290039 C115.21323833 65.59215248 118.96232928 67.7186836 122.70996094 69.84790039 C123.64517578 70.37689941 124.58039063 70.90589844 125.54394531 71.45092773 C128.27568508 73.00452156 130.9941658 74.57913448 133.70996094 76.16040039 C134.91990723 76.84320068 134.91990723 76.84320068 136.15429688 77.53979492 C143.28497421 81.74239446 148.96514552 86.87712648 151.70996094 94.84790039 C151.95046997 97.30940247 151.95046997 97.30940247 151.93701172 99.91357422 C151.93686066 100.89421341 151.93670959 101.8748526 151.93655396 102.88520813 C151.92623138 103.93121689 151.91590881 104.97722565 151.90527344 106.05493164 C151.90102859 107.67572884 151.90102859 107.67572884 151.896698 109.32926941 C151.88552226 112.7730934 151.86042212 116.21665529 151.83496094 119.66040039 C151.82492778 121.99828725 151.81580252 124.3361782 151.80761719 126.67407227 C151.7855914 132.3987823 151.75107915 138.12329694 151.70996094 143.84790039 C146.42996094 143.84790039 141.14996094 143.84790039 135.70996094 143.84790039 C135.68808716 141.98657471 135.68808716 141.98657471 135.66577148 140.08764648 C135.60765371 135.46919418 135.53042147 130.85122255 135.44750977 126.2331543 C135.4143238 124.2371401 135.38627226 122.2410335 135.36352539 120.24487305 C135.329863 117.36996199 135.27754117 114.49589296 135.22167969 111.62133789 C135.2120948 110.28974136 135.2120948 110.28974136 135.20231628 108.9312439 C135.08327018 103.87679637 134.68855869 100.12314351 131.70996094 95.84790039 C129.04070759 93.68305218 129.04070759 93.68305218 125.84667969 91.94555664 C125.27286057 91.61024429 124.69904144 91.27493195 124.10783386 90.92945862 C122.3166885 89.8873313 120.51418065 88.86718377 118.70996094 87.84790039 C117.09275146 86.90986572 117.09275146 86.90986572 115.44287109 85.95288086 C112.14603278 84.04571425 108.83609341 82.16322031 105.52246094 80.28540039 C103.05178497 78.88024562 100.58207988 77.47338766 98.11230469 76.06665039 C97.18215546 75.53726112 97.18215546 75.53726112 96.23321533 74.99717712 C90.00358009 71.45005983 83.79245873 67.87110375 77.58496094 64.28540039 C75.98938354 63.36392212 75.98938354 63.36392212 74.36157227 62.42382812 C72.21686506 61.18497816 70.07225214 59.94596498 67.92773438 58.70678711 C61.44610512 54.96239218 54.96160851 51.22296314 48.47705078 47.48364258 C42.95838692 44.300855 37.44177369 41.11460023 31.92871094 37.92211914 C26.51119971 34.78535626 21.08527097 31.66354674 15.65576172 28.54760742 C12.89248598 26.9532161 10.14203192 25.33871618 7.39355469 23.71899414 C5.81187967 22.80301415 4.22987322 21.88760612 2.64746094 20.97290039 C1.96425781 20.56193115 1.28105469 20.15096191 0.57714844 19.72753906 C-4.22312054 16.98682883 -8.71250669 15.59417335 -14.29003906 15.84790039 C-17.75879009 16.86733678 -17.75879009 16.86733678 -20.91503906 18.72290039 C-21.81295166 19.20545288 -21.81295166 19.20545288 -22.72900391 19.69775391 C-27.47650077 22.28555419 -32.11339359 25.07452083 -36.72729492 27.89208984 C-43.23681004 31.86055682 -49.85367339 35.63689822 -56.47753906 39.41040039 C-57.07515045 39.75099487 -57.67276184 40.09158936 -58.28848267 40.44250488 C-60.75333287 41.8471323 -63.21840659 43.25136554 -65.6839447 44.65478516 C-69.96452174 47.09149154 -74.24170938 49.53404805 -78.51660156 51.98071289 C-89.34091194 58.17491679 -100.173125 64.35358536 -111.04003906 70.47290039 C-119.13807646 75.03739114 -127.1957443 79.66781171 -135.22753906 84.34790039 C-136.21657227 84.92362793 -137.20560547 85.49935547 -138.22460938 86.0925293 C-140.07432347 87.17370021 -141.92040828 88.26111244 -143.76220703 89.35571289 C-145.37869462 90.30993079 -147.00713544 91.24435839 -148.64990234 92.15258789 C-149.35743652 92.55735352 -150.0649707 92.96211914 -150.79394531 93.37915039 C-151.40181885 93.71495117 -152.00969238 94.05075195 -152.63598633 94.39672852 C-155.59334643 96.99134821 -157.03376038 100.03108541 -157.58335876 103.92730713 C-157.73152014 106.34985056 -157.78338279 108.7568579 -157.80175781 111.18383789 C-157.82868462 112.50286606 -157.82868462 112.50286606 -157.8561554 113.84854126 C-157.91006719 116.63994644 -157.94409235 119.4311825 -157.97753906 122.22290039 C-158.01072906 124.12266341 -158.04522027 126.02240417 -158.08105469 127.92211914 C-158.16578255 132.56392384 -158.23268467 137.20568004 -158.29003906 141.84790039 C-159.21030884 141.60450928 -159.21030884 141.60450928 -160.14916992 141.35620117 C-162.4535734 140.80907287 -164.48697225 140.71489509 -166.85253906 140.72290039 C-167.99916016 140.7190332 -167.99916016 140.7190332 -169.16894531 140.71508789 C-171.48002402 140.76882655 -171.48002402 140.76882655 -174.29003906 141.84790039 C-174.39185414 135.15858022 -174.46167821 128.46946152 -174.50976562 121.77954102 C-174.52982223 119.50602755 -174.55707444 117.23256529 -174.59179688 114.95922852 C-174.64057618 111.6824069 -174.66306803 108.40627014 -174.68066406 105.12915039 C-174.7013092 104.12049927 -174.72195435 103.11184814 -174.7432251 102.07263184 C-174.74548753 94.88081942 -173.55652811 89.36676004 -168.56469727 83.98925781 C-162.74100578 80.00094046 -156.66945303 76.54487714 -150.47753906 73.16040039 C-148.22694034 71.91538833 -145.97694472 70.66928547 -143.72753906 69.42211914 C-142.62667969 68.81287598 -141.52582031 68.20363281 -140.39160156 67.57592773 C-136.22588878 65.25501187 -132.09686679 62.87492738 -127.97753906 60.47290039 C-120.25059989 55.9739144 -112.49394722 51.52829309 -104.72753906 47.09790039 C-95.56788431 41.87163379 -86.42090485 36.62438052 -77.29003906 31.34790039 C-63.649907 23.46786393 -49.97856716 15.64351171 -36.29003906 7.84790039 C-35.38785645 7.33340332 -34.48567383 6.81890625 -33.55615234 6.28881836 C-31.28169486 4.99290133 -29.00520535 3.70066699 -26.72753906 2.41040039 C-26.09702637 2.05091309 -25.46651367 1.69142578 -24.81689453 1.32104492 C-16.67555955 -3.27132505 -8.64142297 -4.0762959 0 0 Z " fill="#0F1117" transform="translate(190.2900390625,2.152099609375)"/>
<path d="M0 0 C20.59444044 10.16271372 40.93328885 20.83061716 61 32 C62.02867187 32.56589844 63.05734375 33.13179687 64.1171875 33.71484375 C64.73851562 34.13894531 65.35984375 34.56304687 66 35 C66 35.66 66 36.32 66 37 C65.35264893 37.36125977 64.70529785 37.72251953 64.03833008 38.09472656 C52.87320668 44.3285297 41.71440636 50.56973784 30.625 56.9375 C22.89648293 61.36482323 15.14970321 65.75934684 7.37689209 70.10842896 C6.17995709 70.77904997 4.9840098 71.45143731 3.78912354 72.1257019 C2.11354587 73.07060475 0.43379009 74.00808672 -1.24609375 74.9453125 C-2.21216553 75.48687988 -3.1782373 76.02844727 -4.17358398 76.58642578 C-11.76874236 80.38498905 -11.76874236 80.38498905 -15.37988281 79.25585938 C-16.14655273 78.78986328 -16.91322266 78.32386719 -17.703125 77.84375 C-19.03017456 77.06221558 -19.03017456 77.06221558 -20.3840332 76.26489258 C-21.80268677 75.39127075 -21.80268677 75.39127075 -23.25 74.5 C-25.3095377 73.28234379 -27.37080377 72.06760723 -29.43359375 70.85546875 C-30.50722168 70.21915527 -31.58084961 69.5828418 -32.68701172 68.92724609 C-38.15294819 65.74757752 -43.73167316 62.78434366 -49.3125 59.8125 C-77.62377618 44.64962578 -77.62377618 44.64962578 -90 37 C-88.65669512 32.97008535 -87.08355165 32.72864377 -83.33203125 30.84765625 C-82.74909805 30.55136322 -82.16616486 30.25507019 -81.56556702 29.94979858 C-80.30794549 29.31167445 -79.04809952 28.6779195 -77.78631592 28.04806519 C-74.46086539 26.3876022 -71.15154804 24.69547599 -67.83984375 23.0078125 C-67.17341858 22.66932785 -66.50699341 22.3308432 -65.82037354 21.98210144 C-59.77972233 18.90744081 -53.81477832 15.70277358 -47.875 12.4375 C-47.03171143 11.9741626 -46.18842285 11.5108252 -45.31958008 11.03344727 C-44.10564575 10.36526978 -44.10564575 10.36526978 -42.8671875 9.68359375 C-42.08182617 9.2541748 -41.29646484 8.82475586 -40.48730469 8.38232422 C-38.67365206 7.37438339 -36.87394937 6.3412208 -35.08300781 5.29345703 C-34.10944336 4.73384277 -33.13587891 4.17422852 -32.1328125 3.59765625 C-31.2473877 3.07824463 -30.36196289 2.55883301 -29.44970703 2.02368164 C-27 1 -27 1 -24.75952148 1.20996094 C-23 2 -23 2 -21.71484375 4.04296875 C-20.05034632 6.38033527 -20.05034632 6.38033527 -16.56640625 6.42578125 C-15.23134801 6.40854614 -13.89642852 6.37005205 -12.5625 6.3125 C-11.24378906 6.28800781 -9.92507812 6.26351562 -8.56640625 6.23828125 C-5.84837473 6.05668221 -3.57719148 5.81072775 -1 5 C-0.67 3.35 -0.34 1.7 0 0 Z " fill="#FDB61A" transform="translate(190,163)"/>
<path d="M0 0 C1.48831242 0.00667405 2.97660807 0.01863442 4.46484375 0.03515625 C5.22345703 0.03966797 5.98207031 0.04417969 6.76367188 0.04882812 C8.64326246 0.06064945 10.52281274 0.07858547 12.40234375 0.09765625 C12.41114311 0.99848434 12.41114311 0.99848434 12.42012024 1.91751099 C12.48415592 8.17968973 12.56860197 14.4413594 12.66479492 20.703125 C12.69800708 23.03866862 12.72605051 25.37429178 12.7487793 27.70996094 C12.78239276 31.0713077 12.83471378 34.43192794 12.890625 37.79296875 C12.89701492 38.83381622 12.90340485 39.8746637 12.9099884 40.947052 C13.01922425 46.3583807 13.21848964 50.5033254 16.40234375 55.09765625 C18.24629307 56.8510817 18.24629307 56.8510817 20.43359375 58.11328125 C21.23152344 58.60892578 22.02945313 59.10457031 22.8515625 59.61523438 C27.15567561 62.11662936 31.50811851 64.50859315 35.90234375 66.84765625 C42.72611142 70.52243231 49.49421003 74.25510035 56.15234375 78.22265625 C61.70516865 81.53066646 67.30108306 84.7333427 72.96484375 87.84765625 C81.03564482 92.29330192 88.99749939 96.91331839 96.94873047 101.56884766 C112.71176608 110.79811122 128.54649166 119.9039075 144.40234375 128.97265625 C145.28688232 129.47877441 146.1714209 129.98489258 147.08276367 130.50634766 C147.8894751 130.96702637 148.69618652 131.42770508 149.52734375 131.90234375 C150.23117188 132.30437012 150.935 132.70639648 151.66015625 133.12060547 C155.58514243 135.32180988 158.95145465 135.62685959 163.40234375 135.09765625 C166.13188537 134.17677063 168.53536373 132.84420297 171.02734375 131.41015625 C171.74535156 131.01368896 172.46335938 130.61722168 173.203125 130.20874023 C175.61745766 128.86246285 178.01158894 127.48535577 180.40234375 126.09765625 C181.27858398 125.58912109 182.15482422 125.08058594 183.05761719 124.55664062 C191.23778858 119.78657272 199.36393594 114.92679224 207.4765625 110.04296875 C208.25837891 109.57560303 209.04019531 109.1082373 209.84570312 108.62670898 C211.30490277 107.75439588 212.76083662 106.87658826 214.21289062 105.99243164 C219.06402187 103.09765625 219.06402187 103.09765625 222.40234375 103.09765625 C223.05005883 105.01368782 223.69544323 106.93050738 224.33984375 108.84765625 C224.69949219 109.915 225.05914062 110.98234375 225.4296875 112.08203125 C226.18308438 114.41786414 226.82498954 116.71635096 227.40234375 119.09765625 C226.77070313 119.44844238 226.1390625 119.79922852 225.48828125 120.16064453 C212.47742262 127.39488815 199.52119377 134.69266644 186.72460938 142.30126953 C164.60656961 155.35371078 164.60656961 155.35371078 153.40234375 153.09765625 C147.75535437 150.95276973 142.63094448 148.10153863 137.40234375 145.09765625 C135.81168602 144.20485898 134.22052237 143.31296261 132.62890625 142.421875 C128.17439022 139.9108802 123.74577828 137.35699823 119.32275391 134.79101562 C116.28327094 133.02861353 113.23980479 131.27326453 110.1953125 129.51953125 C101.38451993 124.44320298 92.57933281 119.35720112 83.77734375 114.265625 C71.53317153 107.18665056 59.25691926 100.16979378 46.9375 93.22265625 C39.73350418 89.1589287 32.54284856 85.07248425 25.375 80.9453125 C22.10873571 79.06531525 18.82547655 77.22260529 15.5234375 75.40625 C-0.46278241 66.50227778 -0.46278241 66.50227778 -3.59765625 57.09765625 C-3.71865597 55.27840697 -3.78450309 53.45526945 -3.81884766 51.63232422 C-3.84202057 50.51461639 -3.86519348 49.39690857 -3.8890686 48.24533081 C-3.90891815 47.03902008 -3.9287677 45.83270935 -3.94921875 44.58984375 C-3.98394791 42.73530075 -3.98394791 42.73530075 -4.01937866 40.84329224 C-4.07922848 37.55906935 -4.13441661 34.27480532 -4.18817139 30.99047852 C-4.22267413 28.9716103 -4.26100944 26.95285291 -4.30078125 24.93408203 C-4.37647561 21.06941167 -4.44522223 17.20468217 -4.51171875 13.33984375 C-4.53561676 12.12948456 -4.55951477 10.91912537 -4.58413696 9.67208862 C-4.60100555 8.56068512 -4.61787415 7.44928162 -4.63525391 6.30419922 C-4.65222321 5.32063446 -4.6691925 4.3370697 -4.68667603 3.32369995 C-4.53710418 -0.41651905 -3.89294713 0.10567175 0 0 Z " fill="#0F1217" transform="translate(19.59765625,235.90234375)"/>
<path d="M0 0 C24.09 0 48.18 0 73 0 C74.12522739 11.25227393 74.12522739 11.25227393 74.03759766 15.25024414 C74.02072906 16.14719498 74.00386047 17.04414581 73.98648071 17.96827698 C73.9625827 18.89784714 73.93868469 19.8274173 73.9140625 20.78515625 C73.89282318 21.76745712 73.87158386 22.749758 73.84970093 23.76182556 C73.8038047 25.81646439 73.75491229 27.87103833 73.703125 29.92553711 C73.62443988 33.0849906 73.55768471 36.24454526 73.4921875 39.40429688 C73.44601535 41.40626633 73.39916528 43.4082203 73.3515625 45.41015625 C73.33171295 46.35794449 73.3118634 47.30573273 73.29141235 48.28224182 C73.25665298 49.58511391 73.25665298 49.58511391 73.22119141 50.91430664 C73.20263092 51.68134415 73.18407043 52.44838165 73.16494751 53.23866272 C73 55 73 55 72 56 C69.83280414 56.10483132 67.66215113 56.13856845 65.49243164 56.14526367 C64.81274826 56.14862228 64.13306488 56.1519809 63.43278503 56.15544128 C61.17522376 56.16497745 58.91773644 56.16689573 56.66015625 56.16796875 C55.09695911 56.17117951 53.53376229 56.17454344 51.9705658 56.17805481 C48.68943586 56.18405278 45.4083323 56.18589403 42.12719727 56.18530273 C37.91574556 56.18520108 33.70446233 56.19885364 29.49305058 56.21607494 C26.26321125 56.2271751 23.0334129 56.22922256 19.80355644 56.22869301 C18.2505682 56.22987612 16.69757901 56.2343163 15.14460945 56.24202538 C12.97527277 56.25178539 10.80630508 56.24896328 8.63696289 56.24291992 C7.40087784 56.24434494 6.16479279 56.24576996 4.89125061 56.24723816 C2 56 2 56 0 54 C-0.24050903 51.70944214 -0.24050903 51.70944214 -0.22705078 48.81591797 C-0.22680908 47.71981201 -0.22656738 46.62370605 -0.22631836 45.49438477 C-0.21608643 44.33865967 -0.20585449 43.18293457 -0.1953125 41.9921875 C-0.19329834 40.93265869 -0.19128418 39.87312988 -0.18920898 38.78149414 C-0.17872206 34.8126189 -0.15079963 30.84380523 -0.125 26.875 C-0.08375 18.00625 -0.0425 9.1375 0 0 Z " fill="#0E1117" transform="translate(141,65)"/>
<path d="M0 0 C14.68426546 7.26714107 14.68426546 7.26714107 21.5625 11.1875 C22.21629639 11.55858887 22.87009277 11.92967773 23.54370117 12.31201172 C27.27997453 14.43571489 31.00627062 16.57684381 34.734375 18.71484375 C36.42702611 19.68499567 38.11973598 20.65504509 39.8125 21.625 C40.66755127 22.11548828 41.52260254 22.60597656 42.40356445 23.11132812 C51.34552714 28.22611457 60.35695929 33.21471722 69.37817383 38.18798828 C70.48572021 38.80013184 71.5932666 39.41227539 72.734375 40.04296875 C73.72663086 40.58977295 74.71888672 41.13657715 75.74121094 41.69995117 C78 43 78 43 79 44 C79.0883967 46.3756852 79.11530305 48.72208674 79.09765625 51.09765625 C79.0962413 51.80651474 79.09482635 52.51537323 79.09336853 53.24571228 C79.08775443 55.51801712 79.07519963 57.79022475 79.0625 60.0625 C79.05748681 61.59960796 79.05292359 63.13671745 79.04882812 64.67382812 C79.03778042 68.44925642 79.02050641 72.22461171 79 76 C75.08230411 75.4073297 72.21696736 74.21629761 68.78125 72.26171875 C67.77771484 71.69517578 66.77417969 71.12863281 65.74023438 70.54492188 C64.13631836 69.62549805 64.13631836 69.62549805 62.5 68.6875 C61.38431641 68.05521484 60.26863281 67.42292969 59.11914062 66.77148438 C55.74182152 64.8550432 52.37013624 62.92903931 49 61 C47.18752796 59.9647948 45.37503013 58.92963474 43.5625 57.89453125 C41.03949644 56.45271162 38.51713058 55.00982828 35.99658203 53.5637207 C27.72866744 48.82529578 19.41022603 44.1779923 11.08398438 39.54296875 C10.07400391 38.97964844 9.06402344 38.41632813 8.0234375 37.8359375 C6.67644775 37.08642822 6.67644775 37.08642822 5.30224609 36.32177734 C3.493532 35.28334913 1.73533456 34.15688971 0 33 C-0.26711404 30.44604513 -0.34849029 28.13725626 -0.29296875 25.5859375 C-0.28872391 24.85629791 -0.28447906 24.12665833 -0.28010559 23.37490845 C-0.26329353 21.04123241 -0.22563868 18.7084156 -0.1875 16.375 C-0.17245634 14.79428329 -0.15876738 13.21355307 -0.14648438 11.6328125 C-0.11338201 7.75487656 -0.06158404 3.87758402 0 0 Z " fill="#0F1117" transform="translate(96,207)"/>
<path d="M0 0 C3.63 1.98 7.26 3.96 11 6 C13.49626953 7.34578125 13.49626953 7.34578125 16.04296875 8.71875 C27.84638721 15.08997172 39.4752254 21.71630842 51.0390625 28.51171875 C57.87707283 32.52660446 64.76597858 36.45074036 71.66625977 40.35742188 C72.48666748 40.82341797 73.3070752 41.28941406 74.15234375 41.76953125 C74.87413818 42.17792236 75.59593262 42.58631348 76.33959961 43.00708008 C78 44 78 44 79 45 C79.08790975 47.29151417 79.10694038 49.58572524 79.09765625 51.87890625 C79.0962413 52.5655687 79.09482635 53.25223114 79.09336853 53.95970154 C79.08775479 56.16067801 79.07520007 58.36155409 79.0625 60.5625 C79.05748676 62.05143083 79.05292355 63.54036324 79.04882812 65.02929688 C79.03778093 68.68623075 79.02050713 72.34310558 79 76 C75.08230411 75.4073297 72.21696736 74.21629761 68.78125 72.26171875 C67.77795654 71.69533691 66.77466309 71.12895508 65.7409668 70.54541016 C64.67144775 69.9322998 63.60192871 69.31918945 62.5 68.6875 C61.38214111 68.05376465 60.26428223 67.4200293 59.11254883 66.76708984 C55.73774443 64.85157609 52.36839702 62.92675351 49 61 C47.22285506 59.98793208 45.44552774 58.97618429 43.66796875 57.96484375 C39.43594356 55.55377948 35.20957337 53.13296395 30.984375 50.70996094 C26.29208051 48.02141131 21.59611373 45.33929364 16.90039062 42.65673828 C11.26665562 39.43830066 5.6333734 36.21907051 0 33 C0 22.11 0 11.22 0 0 Z " fill="#0F1117" transform="translate(96,247)"/>
<path d="M0 0 C0.99 0.495 0.99 0.495 2 1 C2 11.56 2 22.12 2 33 C-2.125 35.35125 -6.25 37.7025 -10.5 40.125 C-19.79908105 45.43169732 -29.07406833 50.7756468 -38.3125 56.1875 C-46.47453721 60.96159937 -54.65722281 65.69740599 -62.875 70.375 C-63.86282471 70.94114014 -64.85064941 71.50728027 -65.8684082 72.09057617 C-66.77550537 72.60467041 -67.68260254 73.11876465 -68.6171875 73.6484375 C-69.41753418 74.10395996 -70.21788086 74.55948242 -71.04248047 75.02880859 C-73 76 -73 76 -75 76 C-75 65.11 -75 54.22 -75 43 C-71.41125 40.999375 -67.8225 38.99875 -64.125 36.9375 C-53.91728665 31.23263347 -43.76927998 25.43205783 -33.65112305 19.56958008 C-25.11816029 14.63005713 -16.54414653 9.7665687 -7.94287109 4.94702148 C-7.04262207 4.44114502 -6.14237305 3.93526855 -5.21484375 3.4140625 C-4.42198975 2.9701416 -3.62913574 2.5262207 -2.81225586 2.06884766 C-1.04493381 1.12821573 -1.04493381 1.12821573 0 0 Z " fill="#0F1117" transform="translate(258,207)"/>
<path d="M0 0 C0.24873662 4.28630589 0.4292977 8.56871843 0.54931641 12.86010742 C0.59936705 14.31658102 0.66744172 15.77255796 0.75439453 17.22729492 C1.45419821 29.24333572 1.45419821 29.24333572 -1.98486328 33.39770508 C-4.57319583 35.24080631 -7.1303128 36.64232359 -10 38 C-11.36061 38.78636313 -12.71774091 39.57879587 -14.0703125 40.37890625 C-15.41924686 41.11163003 -16.77091872 41.83933202 -18.125 42.5625 C-25.38887178 46.52031427 -32.55369438 50.62499068 -39.6875 54.8125 C-48.05686269 59.7135329 -56.44518971 64.57855684 -64.875 69.375 C-66.35552856 70.22348511 -66.35552856 70.22348511 -67.8659668 71.08911133 C-68.77386963 71.60368896 -69.68177246 72.1182666 -70.6171875 72.6484375 C-71.41753418 73.10395996 -72.21788086 73.55948242 -73.04248047 74.02880859 C-75 75 -75 75 -77 75 C-77.24828873 70.5529579 -77.42909832 66.10963106 -77.54931641 61.65771484 C-77.59943968 60.14593236 -77.66756841 58.63463087 -77.75439453 57.12451172 C-78.45229864 44.66897611 -78.45229864 44.66897611 -75.16235352 40.88818359 C-72.51647711 39.29284842 -69.86247345 38.15958423 -67 37 C-65.00871848 35.87957138 -63.03377484 34.7297204 -61.07421875 33.5546875 C-58.94588108 32.32713867 -56.81695294 31.10061314 -54.6875 29.875 C-53.55320557 29.22120361 -52.41891113 28.56740723 -51.25024414 27.89379883 C-43.30744705 23.31755995 -35.35127361 18.76497712 -27.38208008 14.23486328 C-23.23928341 11.87436215 -19.11773461 9.48551285 -15.02734375 7.03515625 C-14.24174072 6.5656958 -13.4561377 6.09623535 -12.64672852 5.61254883 C-11.17359606 4.72898599 -9.70380026 3.83982664 -8.23803711 2.9440918 C-3.3299976 0 -3.3299976 0 0 0 Z " fill="#0F1117" transform="translate(260,248)"/>
<path d="M0 0 C3.65079944 1.36925526 6.9330795 3.01646469 10.296875 4.984375 C11.32522461 5.58266113 12.35357422 6.18094727 13.41308594 6.79736328 C14.51426758 7.4417334 15.61544922 8.08610352 16.75 8.75 C19.10271766 10.11968962 21.45727991 11.48618101 23.8125 12.8515625 C24.41165222 13.19907562 25.01080444 13.54658875 25.62811279 13.90463257 C31.63115774 17.37897894 37.68756302 20.75554829 43.75 24.125 C52.06105155 28.75301419 60.30970603 33.47375701 68.5 38.3125 C69.44456055 38.87018066 70.38912109 39.42786133 71.36230469 40.00244141 C77.86578868 43.86578868 77.86578868 43.86578868 79 45 C79.08713831 46.70772358 79.10700007 48.41898649 79.09765625 50.12890625 C79.09282227 51.68061523 79.09282227 51.68061523 79.08789062 53.26367188 C79.07532227 54.8965918 79.07532227 54.8965918 79.0625 56.5625 C79.05798828 57.65498047 79.05347656 58.74746094 79.04882812 59.87304688 C79.03699826 62.58208495 79.02051543 65.29101599 79 68 C75.22184858 67.42090398 72.51821204 66.36074423 69.24609375 64.40234375 C67.86236572 63.58334595 67.86236572 63.58334595 66.45068359 62.74780273 C65.45633301 62.15040283 64.46198242 61.55300293 63.4375 60.9375 C61.27290803 59.65494516 59.10751026 58.37374952 56.94140625 57.09375 C55.80719238 56.42214844 54.67297852 55.75054687 53.50439453 55.05859375 C48.83799554 52.30780573 44.13068206 49.62984328 39.41918945 46.95727539 C37.05235949 45.6134771 34.69666237 44.25266555 32.34838867 42.87670898 C26.78004295 39.62719484 21.22343562 36.58228966 15.3359375 33.94140625 C3.45076241 28.35340609 3.45076241 28.35340609 0 24 C-2.47118263 16.19909883 -1.38663672 7.93098021 0 0 Z " fill="#0F1117" transform="translate(96,287)"/>
<path d="M0 0 C0 4.35578594 -2.20953717 7.34327513 -4.26782227 11.11523438 C-6.61532387 15.64202761 -7.35450023 19.38671757 -7.9375 24.5 C-9.30070888 30.1276059 -10.97900621 32.3417765 -15.7734375 35.6015625 C-20.94003907 38.7450189 -26.28009038 41.53577105 -31.66796875 44.27832031 C-36.97653142 47.02128514 -42.13247688 50.02366634 -47.3125 53 C-54.50246929 57.0731071 -61.73879891 61.05535398 -69 65 C-69.33 56.75 -69.66 48.5 -70 40 C-68.47375 39.15179688 -66.9475 38.30359375 -65.375 37.4296875 C-53.44490494 30.78335767 -41.57821289 24.05106529 -29.796875 17.14355469 C-19.91017048 11.34892036 -9.96226011 5.66351972 0 0 Z " fill="#101217" transform="translate(252,291)"/>
<path d="M0 0 C3.63103257 0.29318897 5.35698403 2.00696301 7.8125 4.5625 C8.85664062 5.64724609 8.85664062 5.64724609 9.921875 6.75390625 C12.41947483 9.45337975 14.86624303 12.18663069 17.2578125 14.98046875 C18.48073431 16.39807094 19.7278817 17.79496099 20.9921875 19.17578125 C21.63414063 19.88089844 22.27609375 20.58601563 22.9375 21.3125 C23.52402344 21.94800781 24.11054687 22.58351562 24.71484375 23.23828125 C26 25 26 25 26 28 C20.72 28 15.44 28 10 28 C10 42.52 10 57.04 10 72 C4.72 72 -0.56 72 -6 72 C-7.08155348 67.67378607 -7.12578576 63.7144982 -7.09765625 59.296875 C-7.0962413 58.45908508 -7.09482635 57.62129517 -7.09336853 56.75811768 C-7.08778197 54.08870843 -7.07523194 51.4193838 -7.0625 48.75 C-7.05748326 46.93750121 -7.05292066 45.12500111 -7.04882812 43.3125 C-7.03781694 38.87496752 -7.02056155 34.43749809 -7 30 C-14.425 29.01 -14.425 29.01 -22 28 C-20.88032315 23.52129259 -19.63405424 22.22148585 -16.5 18.9375 C-12.04782228 14.17827554 -7.89599404 9.29733544 -3.8125 4.21484375 C-2 2 -2 2 0 0 Z " fill="#FCB61C" transform="translate(22,155)"/>
<path d="M0 0 C5.28 0 10.56 0 16 0 C16 14.19 16 28.38 16 43 C20.95 43 25.9 43 31 43 C29.88526434 48.57367829 29.88526434 48.57367829 27 51.125 C23.02627363 54.84629703 19.74511023 58.96197585 16.40625 63.25390625 C13.53476263 66.53094459 10.36798532 69.24943873 7 72 C-14.41933789 49.32264845 -14.41933789 49.32264845 -16 43 C-10.72 43 -5.44 43 0 43 C0 28.81 0 14.62 0 0 Z " fill="#FBB61C" transform="translate(326,155)"/>
<path d="M0 0 C18.81 0 37.62 0 57 0 C57 4.348582 56.91995025 4.58048389 54.11328125 7.4609375 C53.50419922 8.09773437 52.89511719 8.73453125 52.26757812 9.390625 C51.62240234 10.04546875 50.97722656 10.7003125 50.3125 11.375 C47.86418613 13.90652124 45.42738355 16.44840873 43 19 C42.48896729 19.52013672 41.97793457 20.04027344 41.45141602 20.57617188 C38.0766564 24.23030101 37.3861098 26.83513 37.3125 31.75 C37.18086348 37.81913652 37.18086348 37.81913652 35 40 C32.25 40.265625 32.25 40.265625 29 40.25 C27.39125 40.25773437 27.39125 40.25773437 25.75 40.265625 C23 40 23 40 21 38 C20.90176948 35.96027216 20.87026198 33.9170863 20.875 31.875 C20.56500363 26.84309458 20.03658274 24.21529414 16.375 20.6875 C14.92179438 19.45227523 13.46347175 18.22304425 12 17 C10.76386918 15.67115937 9.55438142 14.31695506 8.375 12.9375 C7.81425781 12.28652344 7.25351563 11.63554687 6.67578125 10.96484375 C6.12277344 10.31644531 5.56976563 9.66804687 5 9 C4.41605469 8.32066406 3.83210937 7.64132813 3.23046875 6.94140625 C1.81744048 5.296734 0.40829078 3.64873067 -1 2 C-0.67 1.34 -0.34 0.68 0 0 Z " fill="#101217" transform="translate(149,126)"/>
<path d="M0 0 C1.88700623 -0.00472824 1.88700623 -0.00472824 3.81213379 -0.009552 C5.19571975 -0.00776222 6.5793054 -0.00571127 7.96289062 -0.00341797 C9.37154151 -0.00409106 10.78019229 -0.00506112 12.18884277 -0.00631714 C15.14462385 -0.00779389 18.10037476 -0.0056403 21.05615234 -0.00097656 C24.85288647 0.00472073 28.64954991 0.0014416 32.44628143 -0.00454903 C35.35610491 -0.00815526 38.2659115 -0.00701577 41.17573547 -0.00442123 C42.57603463 -0.00375214 43.9763353 -0.00457979 45.37663269 -0.00690079 C47.33051526 -0.00942829 49.28440318 -0.0048958 51.23828125 0 C52.35223267 0.00079559 53.46618408 0.00159119 54.6138916 0.00241089 C57.11914062 0.12939453 57.11914062 0.12939453 58.11914062 1.12939453 C58.11914062 5.08939453 58.11914062 9.04939453 58.11914062 13.12939453 C36.66914063 13.12939453 15.21914062 13.12939453 -6.88085938 13.12939453 C-6.88085938 0.00491437 -6.88085938 0.00491437 0 0 Z " fill="#131518" transform="translate(226.880859375,88.87060546875)"/>
<path d="M0 0 C20.79 0 41.58 0 63 0 C63 4.29 63 8.58 63 13 C54.8030903 13.02255425 46.60620455 13.04091696 38.40927219 13.05181217 C34.60348423 13.0570402 30.79771852 13.06413638 26.99194336 13.07543945 C23.32207456 13.0862712 19.65222722 13.09227744 15.98234367 13.09487724 C14.57925008 13.09673097 13.17615771 13.1003506 11.7730732 13.10573006 C9.8143032 13.11294419 7.8555118 13.11340809 5.89672852 13.11352539 C4.77976089 13.115746 3.66279327 13.11796661 2.51197815 13.12025452 C0 13 0 13 -1 12 C-1.09854655 10.35659133 -1.12972411 8.7088539 -1.125 7.0625 C-1.12757812 6.16660156 -1.13015625 5.27070312 -1.1328125 4.34765625 C-1 2 -1 2 0 0 Z " fill="#131418" transform="translate(72,89)"/>
<path d="M0 0 C2.26953125 0.3984375 2.26953125 0.3984375 4.14453125 1.5859375 C5.26953125 3.3984375 5.26953125 3.3984375 5.25390625 5.5859375 C3.77732297 9.80474687 0.85362807 12.19164577 -2.35546875 15.2109375 C-3.6476485 16.46166906 -4.93803508 17.71425606 -6.2265625 18.96875 C-6.84128418 19.56461914 -7.45600586 20.16048828 -8.08935547 20.77441406 C-9.96702626 22.6325316 -11.71391452 24.56786836 -13.41796875 26.5859375 C-16.29907638 29.95089527 -19.28712369 33.20400303 -22.35546875 36.3984375 C-23.25523437 37.3471875 -24.155 38.2959375 -25.08203125 39.2734375 C-27.73046875 41.3984375 -27.73046875 41.3984375 -30.296875 41.96484375 C-33.56352997 41.20454685 -34.79210344 39.80077903 -37.04296875 37.3359375 C-40.57840744 33.5572891 -44.20305378 30.26170519 -48.296875 27.1015625 C-49.73046875 25.3984375 -49.73046875 25.3984375 -50.01953125 22.8125 C-49.73046875 20.3984375 -49.73046875 20.3984375 -48.54296875 18.5234375 C-46.73046875 17.3984375 -46.73046875 17.3984375 -44.48046875 17.54296875 C-40.89762081 18.65751946 -38.76055314 20.52932917 -35.91796875 22.9609375 C-34.94214844 23.78722656 -33.96632813 24.61351562 -32.9609375 25.46484375 C-32.22488281 26.10292969 -31.48882812 26.74101562 -30.73046875 27.3984375 C-26.5805997 25.81287433 -24.09885617 22.76487973 -21.23046875 19.5234375 C-20.16831869 18.3539662 -19.10446822 17.18603737 -18.0390625 16.01953125 C-17.22284424 15.12403564 -17.22284424 15.12403564 -16.39013672 14.21044922 C-13.72549263 11.30121291 -11.03267425 8.42459593 -8.29296875 5.5859375 C-7.80957031 5.06467285 -7.32617188 4.5434082 -6.828125 4.00634766 C-4.58371484 1.70816517 -3.22770788 0.470996 0 0 Z " fill="#FCFAF4" transform="translate(322.73046875,307.6015625)"/>
<path d="M0 0 C1.32 0.33 2.64 0.66 4 1 C5.33105261 1.08839021 6.66602596 1.13021084 8 1.125 C8.66 1.12757813 9.32 1.13015625 10 1.1328125 C12.36158102 1.03549022 12.36158102 1.03549022 16 0 C16 15.51 16 31.02 16 47 C12.84195212 45.42097606 9.88603116 43.76658908 6.875 41.9375 C3.48988716 39.87361481 3.48988716 39.87361481 0 38 C0 25.46 0 12.92 0 0 Z " fill="#161719" transform="translate(326,237)"/>
</svg>
