<?xml version="1.0" encoding="UTF-8"?>
<svg version="1.1" xmlns="http://www.w3.org/2000/svg" width="1206" height="391">
<path d="M0 0 C0.70917572 -0.0049649 1.41835144 -0.00992981 2.14901733 -0.01504517 C4.51121988 -0.02972405 6.8733549 -0.03648415 9.2355957 -0.04199219 C10.88214621 -0.04774636 12.52869671 -0.05350406 14.17524719 -0.05926514 C17.64141146 -0.06979637 21.10755244 -0.07562268 24.57373047 -0.07910156 C28.97912273 -0.08453982 33.38419857 -0.10845696 37.78949261 -0.13707352 C41.19996472 -0.15587642 44.61036403 -0.16091514 48.02088356 -0.16243744 C49.64211538 -0.16543345 51.26334689 -0.17335652 52.88452721 -0.18662262 C68.19885718 -0.30281804 84.7968297 0.66669936 96.78637695 11.53222656 C106.68460645 22.74842683 109.65300102 35.8508893 109.5012207 50.48925781 C108.52135595 63.46211516 104.5633285 75.30394195 95.03637695 84.47363281 C84.2280373 93.46544479 72.0425775 95.49084593 58.4074707 95.35644531 C57.31040298 95.35361542 56.21333527 95.35078552 55.08302307 95.34786987 C51.60902597 95.33675279 48.13529499 95.31166393 44.66137695 95.28613281 C42.29354216 95.27609207 39.92570329 95.26696814 37.55786133 95.25878906 C31.77968369 95.23855026 26.00207515 95.19938495 20.22387695 95.16113281 C20.22387695 107.37113281 20.22387695 119.58113281 20.22387695 132.16113281 C10.98387695 132.16113281 1.74387695 132.16113281 -7.77612305 132.16113281 C-7.79866976 115.09812387 -7.81710204 98.03512758 -7.82793522 80.97210789 C-7.83309825 73.05000336 -7.84014109 65.12790873 -7.8515625 57.20581055 C-7.86150911 50.30338644 -7.86797642 43.4009695 -7.87021154 36.49853843 C-7.87151869 32.8415262 -7.87460479 29.18453445 -7.8818531 25.52752876 C-7.88986652 21.45169275 -7.8901142 17.37589268 -7.88964844 13.30004883 C-7.89324371 12.07869736 -7.89683899 10.85734589 -7.90054321 9.59898376 C-7.89916855 8.49535492 -7.89779388 7.39172607 -7.89637756 6.25465393 C-7.89729936 5.28953668 -7.89822115 4.32441942 -7.89917088 3.33005619 C-7.634151 -1.34136153 -3.89378235 0.02064318 0 0 Z M20.22387695 26.16113281 C20.22387695 40.68113281 20.22387695 55.20113281 20.22387695 70.16113281 C26.48682874 70.25323504 32.74740726 70.33279268 39.01049805 70.38085938 C41.13850897 70.40090749 43.26646528 70.42815335 45.39428711 70.46289062 C48.46262128 70.5117083 51.53022368 70.53417008 54.59887695 70.55175781 C55.54190674 70.57240295 56.48493652 70.5930481 57.45654297 70.61431885 C64.18975193 70.61657831 69.64044624 69.39778453 74.74829102 64.78424072 C80.20670936 58.72960957 80.67864124 52.16319784 80.53637695 44.35644531 C79.95525919 38.41451617 77.74062024 34.28493064 73.34887695 30.28613281 C67.04597082 26.00015664 61.38514937 25.88377048 54.01293945 25.96582031 C52.72456177 25.96884155 52.72456177 25.96884155 51.41015625 25.97192383 C48.22300828 25.98233291 45.03593686 26.01025527 41.84887695 26.03613281 C34.71262695 26.07738281 27.57637695 26.11863281 20.22387695 26.16113281 Z " fill="#14171E" transform="translate(435.776123046875,133.8388671875)"/>
<path d="M0 0 C14.45359286 13.31707103 19.51680825 31.6788005 20.84765625 50.7265625 C21.3769086 70.87123001 14.89479104 89.89607258 1.24047852 104.70800781 C-11.00935913 117.19104051 -28.94266152 122.80705449 -46.1171875 123.10546875 C-63.73924946 123.00826593 -79.80491414 118.72733565 -93.33984375 107.04296875 C-94.14035156 106.35332031 -94.94085937 105.66367188 -95.765625 104.953125 C-107.87931922 93.69451508 -114.58264184 77.1960077 -115.46240234 60.75219727 C-116.1817729 38.48004884 -112.4971561 19.18707953 -96.83984375 2.35546875 C-95.60234375 1.21078125 -95.60234375 1.21078125 -94.33984375 0.04296875 C-93.88738281 -0.41464844 -93.43492187 -0.87226563 -92.96875 -1.34375 C-67.9059741 -25.15651214 -24.92504128 -20.84715473 0 0 Z M-79.15234375 18.73046875 C-89.51864833 30.94659093 -91.50114937 45.52823234 -90.33984375 61.04296875 C-88.73568347 73.22919476 -84.02616889 84.18696832 -74.33984375 92.04296875 C-63.57438213 100.26877032 -51.46750299 101.2919322 -38.33984375 100.04296875 C-27.68908666 98.14019305 -19.16347488 92.46951127 -12.96484375 83.60546875 C-12.05873314 82.10296331 -11.18225561 80.5820923 -10.33984375 79.04296875 C-9.95054687 78.34558594 -9.56125 77.64820313 -9.16015625 76.9296875 C-2.40402645 63.44208531 -2.99137645 47.12288506 -7.33984375 33.04296875 C-11.19863568 22.82594011 -17.90725231 14.60099184 -27.48828125 9.26171875 C-45.54091226 1.54607372 -65.46588008 4.5487712 -79.15234375 18.73046875 Z " fill="#FCB924" transform="translate(994.33984375,147.95703125)"/>
<path d="M0 0 C1.07338623 0.62148926 2.14677246 1.24297852 3.25268555 1.88330078 C5.50840018 3.19133668 7.75958609 4.50721124 10.00634766 5.83056641 C14.31542425 8.36579498 18.65012767 10.85512049 22.98510742 13.34570312 C26.22264158 15.20771103 29.45548127 17.0776561 32.6875 18.94921875 C39.67368508 22.99042953 46.67849655 26.99855172 53.6875 31 C54.27888763 31.33770416 54.87027527 31.67540833 55.47958374 32.02334595 C60.39532178 34.83032949 65.3119585 37.63573689 70.22900391 40.44042969 C84.97185187 48.85025357 99.68626084 57.30849312 114.375 65.8125 C115.27492676 66.33215332 116.17485352 66.85180664 117.10205078 67.38720703 C119.46644513 68.75375843 121.82757878 70.12574236 124.1875 71.5 C125.19055176 72.07838623 125.19055176 72.07838623 126.21386719 72.66845703 C133.03620899 76.66093568 137.74709066 80.10043987 140.375 87.8125 C140.89466355 91.87510281 140.84265926 95.87864434 140.765625 99.96875 C140.75996521 101.11162476 140.75430542 102.25449951 140.74847412 103.43200684 C140.72619848 107.05927552 140.67601625 110.68553309 140.625 114.3125 C140.60492371 116.78123567 140.58667493 119.24998692 140.5703125 121.71875 C140.52636252 127.75034124 140.45953811 133.78134836 140.375 139.8125 C137.72875716 139.67228195 135.08315422 139.52560224 132.4375 139.375 C131.68275391 139.33568359 130.92800781 139.29636719 130.15039062 139.25585938 C124.48828125 138.92578125 124.48828125 138.92578125 123.375 137.8125 C123.26402275 134.78173242 123.21332898 131.76993306 123.19921875 128.73828125 C123.17601018 126.85480666 123.15189243 124.97134309 123.12695312 123.08789062 C123.09189644 120.11003363 123.06253426 117.1325788 123.04907227 114.15454102 C123.03355697 111.28612014 122.99331114 108.4188869 122.94921875 105.55078125 C122.95208138 104.2238903 122.95208138 104.2238903 122.95500183 102.87019348 C122.84700039 97.38731476 122.11728438 94.09950867 118.375 89.8125 C116.26440205 88.1197526 116.26440205 88.1197526 113.8671875 86.91015625 C112.97652588 86.42039307 112.08586426 85.93062988 111.16821289 85.42602539 C110.20520264 84.91418701 109.24219238 84.40234863 108.25 83.875 C106.16198916 82.7305727 104.0747793 81.58468308 101.98828125 80.4375 C100.90111816 79.84453125 99.81395508 79.2515625 98.69384766 78.640625 C93.22963591 75.63076642 87.83486731 72.50267395 82.4375 69.375 C81.35073975 68.7473877 80.26397949 68.11977539 79.14428711 67.47314453 C72.84493889 63.83281532 66.56032762 60.16805985 60.28295898 56.48999023 C50.1704518 50.56643975 39.99448164 44.77550359 29.75439453 39.07543945 C22.35009467 34.94422281 15.00589084 30.71888233 7.6875 26.4375 C6.6864624 25.85468262 5.6854248 25.27186523 4.65405273 24.67138672 C0.43343102 22.21009264 -3.77298009 19.73690233 -7.921875 17.15625 C-8.55005127 16.77388184 -9.17822754 16.39151367 -9.82543945 15.99755859 C-11.40137985 15.03582518 -12.96511694 14.05416548 -14.52734375 13.0703125 C-19.40416583 11.09006444 -23.83959495 10.78041207 -28.83227539 12.63037109 C-31.18703857 13.80214176 -33.43102116 15.08615716 -35.6875 16.4375 C-36.54110107 16.92750488 -37.39470215 17.41750977 -38.27416992 17.92236328 C-41.06934153 19.53334499 -43.84724202 21.17170251 -46.625 22.8125 C-48.56691025 23.94407903 -50.50963058 25.07426896 -52.453125 26.203125 C-56.49314863 28.55297866 -60.52715298 30.91280116 -64.55859375 33.27734375 C-71.27929814 37.20803833 -78.05768382 41.03259524 -84.84350586 44.84936523 C-92.09222534 48.93196321 -99.3010895 53.08029157 -106.5 57.25 C-114.07863893 61.63965239 -121.68025952 65.98033017 -129.33374023 70.23828125 C-134.44028854 73.07958378 -139.53352534 75.94429981 -144.625 78.8125 C-146.09428955 79.63524414 -146.09428955 79.63524414 -147.59326172 80.47460938 C-150.38606704 82.04741211 -153.16339768 83.64449147 -155.9375 85.25 C-156.76169434 85.70979248 -157.58588867 86.16958496 -158.43505859 86.64331055 C-159.19512207 87.089729 -159.95518555 87.53614746 -160.73828125 87.99609375 C-161.39610596 88.37306396 -162.05393066 88.75003418 -162.73168945 89.13842773 C-166.83834385 92.76954691 -168.77680601 96.81332458 -169.17089844 102.18725586 C-169.21166054 103.80024226 -169.2319484 105.4138442 -169.234375 107.02734375 C-169.25091125 107.88308487 -169.26744751 108.73882599 -169.28448486 109.62049866 C-169.33273258 112.33040713 -169.35428353 115.03975543 -169.375 117.75 C-169.4031792 119.59703304 -169.43310934 121.44404025 -169.46484375 123.29101562 C-169.53848495 127.79813091 -169.588201 132.30493946 -169.625 136.8125 C-170.34945312 136.72871094 -171.07390625 136.64492187 -171.8203125 136.55859375 C-172.78710938 136.45675781 -173.75390625 136.35492188 -174.75 136.25 C-175.70132813 136.14558594 -176.65265625 136.04117188 -177.6328125 135.93359375 C-180.77998634 135.80622771 -183.54388059 136.19536184 -186.625 136.8125 C-186.7013903 130.40795578 -186.75374214 124.00353014 -186.78979492 117.59863281 C-186.80483299 115.42215585 -186.82526873 113.24570895 -186.85131836 111.06933594 C-186.8879209 107.93156492 -186.90477661 104.7941964 -186.91796875 101.65625 C-186.93345261 100.69134644 -186.94893646 99.72644287 -186.96488953 98.7322998 C-186.96678148 91.0477891 -185.70798934 84.20048304 -180.33056641 78.26953125 C-176.43850426 74.94462044 -171.80868542 72.70717767 -167.3125 70.3125 C-165.04447961 69.07491819 -162.77757913 67.83528212 -160.51171875 66.59375 C-158.78574463 65.65208984 -158.78574463 65.65208984 -157.02490234 64.69140625 C-151.83681762 61.82428719 -146.73100976 58.82262645 -141.625 55.8125 C-133.36730948 50.96112384 -125.05470613 46.22241161 -116.6875 41.5625 C-109.85364675 37.75602657 -103.03908829 33.93085939 -96.3125 29.9375 C-79.5743149 20.0031677 -62.60310854 10.45462316 -45.625 0.9375 C-44.57505859 0.3487207 -43.52511719 -0.24005859 -42.44335938 -0.84667969 C-41.47205078 -1.38969727 -40.50074219 -1.93271484 -39.5 -2.4921875 C-38.65179688 -2.96640137 -37.80359375 -3.44061523 -36.9296875 -3.92919922 C-23.84724858 -11.07187827 -12.29306987 -7.35366705 0 0 Z " fill="#1D2026" transform="translate(202.625,8.1875)"/>
<path d="M0 0 C9.08567265 7.20641387 16.26746547 18.43954836 18 30 C19.2950372 43.24035485 17.99588629 55.43868928 10 66.5625 C7.50239565 69.55581209 4.86066978 72.34864752 2 75 C1.51144531 75.48210937 1.02289063 75.96421875 0.51953125 76.4609375 C-8.63703668 85.03026711 -21.15989511 88.60488225 -33.55859375 88.25 C-49.77743667 86.58919049 -62.02706606 79.81411967 -72.3125 67.1875 C-80.33619721 55.83579202 -82.64691843 42.62122821 -80.5390625 29.02734375 C-77.19937026 15.37389605 -69.44412788 4.9290311 -58 -3 C-38.93196989 -13.52576419 -17.86219839 -12.56688 0 0 Z " fill="#FBB51E" transform="translate(333,290)"/>
<path d="M0 0 C1.04892238 1.63631892 2.04906703 3.30485863 3 5 C5.69664208 6.34832104 7.86587521 6.16910682 10.875 6.1875 C11.92429687 6.20167969 12.97359375 6.21585938 14.0546875 6.23046875 C16.9600735 6.00312422 18.6001771 5.61678209 21 4 C21.80528889 1.94999129 21.80528889 1.94999129 22 0 C26.54152042 0.6065082 30.17560302 2.46267879 34.15234375 4.61328125 C35.185336 5.16218773 35.185336 5.16218773 36.23919678 5.72218323 C38.47540306 6.91263606 40.70649607 8.11233015 42.9375 9.3125 C44.47542803 10.13407439 46.01359666 10.95519855 47.55200195 11.77587891 C52.0402815 14.17353587 56.52159242 16.58396152 61 19 C61.93090454 19.50216034 61.93090454 19.50216034 62.88061523 20.01446533 C71.97044212 24.92151697 81.04716529 29.84642714 90 35 C90 35.66 90 36.32 90 37 C89.36312256 37.35602295 88.72624512 37.7120459 88.07006836 38.07885742 C76.53359054 44.52950535 65.00224529 50.98845675 53.5 57.5 C45.11361904 62.24606606 36.71766686 66.97477639 28.3125 71.6875 C27.24257812 72.28820312 26.17265625 72.88890625 25.0703125 73.5078125 C23.57564453 74.34505859 23.57564453 74.34505859 22.05078125 75.19921875 C21.17075439 75.69252686 20.29072754 76.18583496 19.3840332 76.6940918 C18.59730225 77.1250415 17.81057129 77.55599121 17 78 C16.33895264 78.40839111 15.67790527 78.81678223 14.99682617 79.23754883 C11.59531099 80.53635454 8.9820979 79.42959429 5.75854492 78.01953125 C5.00677979 77.62121094 4.25501465 77.22289062 3.48046875 76.8125 C2.63194336 76.36608154 1.78341797 75.91966309 0.90917969 75.4597168 C0.01102539 74.97801025 -0.88712891 74.49630371 -1.8125 74 C-2.75319336 73.50089111 -3.69388672 73.00178223 -4.66308594 72.48754883 C-12.05539967 68.54820721 -19.36690759 64.47850497 -26.64550781 60.33398438 C-31.62580277 57.51229922 -36.62822981 54.72986696 -41.625 51.9375 C-50.44342969 47.00432978 -59.24420453 42.0435888 -68 37 C-66.65669512 32.97008535 -65.08355165 32.72864377 -61.33203125 30.84765625 C-60.74918869 30.55140854 -60.16634613 30.25516083 -59.56584167 29.94993591 C-58.30831186 29.31185724 -57.04855727 28.67814841 -55.78686523 28.04833984 C-52.45862719 26.38648437 -49.14652141 24.69296572 -45.83203125 23.00390625 C-45.16519318 22.66521515 -44.4983551 22.32652405 -43.81130981 21.97756958 C-37.81506536 18.92550434 -31.89547687 15.7424076 -26 12.5 C-25.11183594 12.01313721 -24.22367188 11.52627441 -23.30859375 11.0246582 C-20.15465487 9.29327717 -17.00342939 7.55718121 -13.85791016 5.81054688 C-12.011977 4.78568117 -10.162544 3.767418 -8.3125 2.75 C-7.33925781 2.20859375 -6.36601562 1.6671875 -5.36328125 1.109375 C-3 0 -3 0 0 0 Z " fill="#FDB720" transform="translate(168,164)"/>
<path d="M0 0 C8.5401473 7.65668378 14.17428603 19.76562336 15.06884766 31.15771484 C15.77293914 49.11349638 14.82341065 64.18370744 3.0390625 78.609375 C-4.16771295 86.39734202 -13.89508937 91.18754918 -24.56640625 91.7265625 C-37.33085212 91.96712526 -47.94918647 90.73546676 -58.1484375 82.390625 C-59.34607776 87.07038076 -59.25918628 91.58326344 -59.2109375 96.375 C-59.20715088 97.23119934 -59.20336426 98.08739868 -59.19946289 98.96954346 C-59.18728195 101.69328932 -59.16863798 104.41692753 -59.1484375 107.140625 C-59.12195141 110.73958019 -59.10192594 114.33848465 -59.0859375 117.9375 C-59.07763916 118.76973083 -59.06934082 119.60196167 -59.06079102 120.45941162 C-59.05224877 122.43668014 -59.09503124 124.4140594 -59.1484375 126.390625 C-59.4784375 126.720625 -59.8084375 127.050625 -60.1484375 127.390625 C-67.4084375 127.390625 -74.6684375 127.390625 -82.1484375 127.390625 C-82.1484375 83.830625 -82.1484375 40.270625 -82.1484375 -4.609375 C-74.8884375 -4.609375 -67.6284375 -4.609375 -60.1484375 -4.609375 C-59.8184375 -2.299375 -59.4884375 0.010625 -59.1484375 2.390625 C-58.69855469 1.93171875 -58.24867187 1.4728125 -57.78515625 1 C-42.19467172 -13.87188504 -16.73010769 -12.53237158 0 0 Z M-53.78125 19.3671875 C-60.52310389 28.84486616 -60.92241299 37.98984314 -60.1484375 49.390625 C-58.8646885 56.812636 -55.13122799 63.5598233 -48.93359375 67.96484375 C-41.95792694 72.01560534 -34.85504862 73.61899722 -26.84375 71.89453125 C-19.09269851 69.58487449 -14.09332307 65.60024346 -10.1484375 58.390625 C-5.81487807 48.32858357 -5.60816036 36.82020328 -9.23828125 26.50390625 C-12.22015445 19.58032943 -16.94451387 14.57840657 -23.8984375 11.578125 C-34.31009735 8.10094852 -46.63607474 10.71776481 -53.78125 19.3671875 Z " fill="#FBB925" transform="translate(1107.1484375,178.609375)"/>
<path d="M0 0 C9.56661096 7.09415914 15.44181496 15.71018147 17.37695312 27.58203125 C18.41165085 34.57238786 18.56954852 41.39766167 18.5078125 48.453125 C18.5049826 49.69990524 18.50215271 50.94668549 18.49923706 52.23124695 C18.48815658 56.16338222 18.46307519 60.09527882 18.4375 64.02734375 C18.42630888 66.71418682 18.41810482 69.40103621 18.41015625 72.08789062 C18.38996964 78.63037139 18.35079756 85.17234447 18.3125 91.71484375 C9.4025 91.71484375 0.4925 91.71484375 -8.6875 91.71484375 C-8.74357422 85.57375 -8.74357422 85.57375 -8.80078125 79.30859375 C-8.83893679 76.02664027 -8.88000916 72.74475187 -8.9230423 69.46286011 C-8.96754679 66.00814056 -9.00701314 62.55353791 -9.03393555 59.09863281 C-9.06512537 55.12670142 -9.11990877 51.15525753 -9.17578125 47.18359375 C-9.18217117 45.95620483 -9.1885611 44.72881592 -9.19514465 43.4642334 C-9.33134751 35.47819299 -9.77769518 29.14692123 -15.125 22.83984375 C-21.55359871 17.50881067 -29.18610893 17.27538352 -37.328125 17.92578125 C-42.72387981 18.89848535 -45.9040777 20.75125848 -49.6875 24.71484375 C-53.17352188 30.36460335 -53.78742533 35.91021425 -53.89282227 42.44482422 C-53.91276749 43.54551239 -53.93271271 44.64620056 -53.95326233 45.78024292 C-53.96997482 46.95233307 -53.98668732 48.12442322 -54.00390625 49.33203125 C-54.02468735 50.54432404 -54.04546844 51.75661682 -54.06687927 53.00564575 C-54.13210982 56.86698905 -54.19113651 60.72839866 -54.25 64.58984375 C-54.29321041 67.21224636 -54.3368255 69.83464234 -54.38085938 72.45703125 C-54.48852324 78.87623518 -54.58779427 85.29549156 -54.6875 91.71484375 C-63.2675 91.71484375 -71.8475 91.71484375 -80.6875 91.71484375 C-80.77843878 83.72517261 -80.85157918 75.73591447 -80.89474869 67.74586201 C-80.91548433 64.03439679 -80.94353909 60.32330877 -80.98925781 56.61206055 C-81.0332245 53.01990831 -81.05674205 49.42811521 -81.06700897 45.83571434 C-81.07782566 43.82137057 -81.1089672 41.80716812 -81.14068604 39.79304504 C-81.14393641 26.23392776 -78.02455946 14.79370759 -68.6875 4.71484375 C-51.28654813 -10.78152633 -19.39660612 -12.71348061 0 0 Z " fill="#15181E" transform="translate(769.6875,174.28515625)"/>
<path d="M0 0 C5.61 0 11.22 0 17 0 C17.01458252 1.4226416 17.02916504 2.8452832 17.04418945 4.31103516 C17.10225816 9.6003505 17.17949126 14.88924397 17.26245117 20.17822266 C17.29566006 22.46526226 17.32370451 24.75238303 17.34643555 27.03955078 C17.3800551 30.33140578 17.43237624 33.62251972 17.48828125 36.9140625 C17.49467117 37.93303619 17.5010611 38.95200989 17.50764465 40.00186157 C17.61820549 45.36700125 17.83584375 49.45572842 21 54 C24.24498472 57.01960084 27.77854121 59.12973985 31.65625 61.25 C32.75050293 61.85223389 33.84475586 62.45446777 34.97216797 63.07495117 C35.54723083 63.38870697 36.1222937 63.70246277 36.71478271 64.02572632 C39.76583556 65.69082362 42.80804395 67.37196502 45.8515625 69.05078125 C46.76846359 69.55572868 46.76846359 69.55572868 47.70388794 70.07087708 C53.1237809 73.05878538 58.5069661 76.10761566 63.875 79.1875 C64.7203833 79.6724292 65.5657666 80.1573584 66.43676758 80.65698242 C68.12263327 81.62474926 69.80826444 82.59292476 71.49365234 83.56152344 C74.86118975 85.49426554 78.23427975 87.41720936 81.60717773 89.34057617 C99.03917753 99.28451853 116.42013119 109.31665948 133.75 119.4375 C135.72134738 120.58594915 137.69270128 121.73438711 139.6640625 122.8828125 C142.91792353 124.77946037 146.16332164 126.68876339 149.3984375 128.6171875 C150.64057686 129.34904005 151.88275987 130.08081852 153.125 130.8125 C154.13820312 131.41707031 155.15140625 132.02164063 156.1953125 132.64453125 C160.85095997 134.89454472 163.64825841 135.3812972 168.68359375 133.9609375 C174.08438608 131.69728549 179.04936017 128.62846523 184.0625 125.625 C186.18406557 124.36968948 188.30648514 123.11582136 190.4296875 121.86328125 C191.51088867 121.22471191 192.59208984 120.58614258 193.70605469 119.92822266 C199.96023199 116.26712776 206.28194836 112.72582107 212.59985352 109.17626953 C213.49889404 108.6707959 214.39793457 108.16532227 215.32421875 107.64453125 C216.10885498 107.20471924 216.89349121 106.76490723 217.7019043 106.31176758 C219.37186464 105.35854364 221.00234924 104.33511804 222.60473633 103.2722168 C223.39517334 102.85238525 224.18561035 102.43255371 225 102 C225.99 102.33 226.98 102.66 228 103 C229.203125 105.80078125 229.203125 105.80078125 230.25 109.3125 C230.60578125 110.46363281 230.9615625 111.61476563 231.328125 112.80078125 C231.99194811 115.96165991 232.22183747 117.10606253 231 120 C228.9440918 121.57714844 228.9440918 121.57714844 226.19921875 123.109375 C225.17207764 123.69178955 224.14493652 124.2742041 223.08666992 124.87426758 C221.96494385 125.49325928 220.84321777 126.11225098 219.6875 126.75 C217.93086797 127.7394383 216.17424647 128.7288957 214.41816711 129.71931458 C212.56091022 130.76457593 210.70052406 131.80410875 208.83984375 132.84326172 C204.94817698 135.02213276 201.08155852 137.24312229 197.21875 139.47265625 C195.9470532 140.20545869 194.67532504 140.93820671 193.40356445 141.67089844 C191.55598333 142.73544173 189.70859964 143.80031284 187.8621521 144.86682129 C186.14304794 145.85847977 184.42118432 146.84534983 182.69921875 147.83203125 C181.71783936 148.39639893 180.73645996 148.9607666 179.7253418 149.54223633 C175.62208588 151.73703531 171.88198004 153.23533555 167.25 153.75 C166.47140625 153.84796875 165.6928125 153.9459375 164.890625 154.046875 C155.66794527 153.89731803 148.95239112 150.05572754 141.1875 145.375 C139.46308439 144.35750605 137.7386488 143.34004467 136.01321411 142.32427979 C134.8176945 141.61957872 133.62310282 140.91330121 132.42941284 140.20550537 C126.57476592 136.73406039 120.66688122 133.359254 114.75 129.99533081 C111.81703223 128.3271747 108.88687584 126.65410262 105.95703125 124.98046875 C105.08952744 124.48496269 105.08952744 124.48496269 104.20449829 123.97944641 C98.02028632 120.4443518 91.85404374 116.87828883 85.6875 113.3125 C77.54360063 108.60491243 69.38067551 103.93381143 61.1875 99.3125 C60.24551758 98.78116455 59.30353516 98.2498291 58.33300781 97.70239258 C57.40327148 97.17798584 56.47353516 96.6535791 55.515625 96.11328125 C47.55904475 91.62477472 39.61981674 87.10800664 31.70605469 82.54443359 C28.81978832 80.89714732 25.91472637 79.28631813 23.0078125 77.67578125 C21.0256682 76.55534794 19.04388791 75.43427038 17.0625 74.3125 C16.14460693 73.81427734 15.22671387 73.31605469 14.28100586 72.80273438 C8.15215664 69.29042134 4.05211598 65.45762002 1 59 C0.13209121 55.43723796 -0.12209893 52.13624456 -0.11352539 48.4753418 C-0.11344986 47.39459885 -0.11337433 46.3138559 -0.11329651 45.20036316 C-0.10813522 44.0449855 -0.10297394 42.88960785 -0.09765625 41.69921875 C-0.0962413 40.50770706 -0.09482635 39.31619537 -0.09336853 38.08857727 C-0.08777728 34.28819249 -0.07522632 30.48786693 -0.0625 26.6875 C-0.05748387 24.10872481 -0.05292116 21.5299487 -0.04882812 18.95117188 C-0.0378107 12.63409182 -0.02055201 6.31705594 0 0 Z " fill="#1C1F25" transform="translate(16,237)"/>
<path d="M0 0 C8.58 0 17.16 0 26 0 C26.33 8.58 26.66 17.16 27 26 C40.365 26.495 40.365 26.495 54 27 C54.73699268 30.68496338 55.10891202 32.87346986 54.87890625 36.42578125 C54.81425171 37.50339722 54.81425171 37.50339722 54.74829102 38.6027832 C54.65632446 39.94409302 54.65632446 39.94409302 54.5625 41.3125 C54.2840625 45.6128125 54.2840625 45.6128125 54 50 C44.76 50 35.52 50 26 50 C26.05121163 55.55134079 26.1143721 61.09995609 26.20751953 66.65039062 C26.23562497 68.53571654 26.25689106 70.42115799 26.27099609 72.30664062 C26.29257089 75.027941 26.33929349 77.74786731 26.390625 80.46875 C26.39185364 81.30241089 26.39308228 82.13607178 26.39434814 82.99499512 C26.5326527 88.6077019 27.54428437 93.43814412 31 98 C38.085821 102.45528498 46.11526666 101.31412222 54 100 C56.80970661 107.22495986 58.19904349 115.25152117 58 123 C45.34044771 127.72313572 30.99274054 126.9536284 18.75 121.4375 C9.29797036 116.32796042 4.10890875 109.16982014 1 99 C0.15087614 96.0622997 -0.12210929 93.4709072 -0.11352539 90.41503906 C-0.11344986 89.51440735 -0.11337433 88.61377563 -0.11329651 87.68585205 C-0.10813522 86.72217712 -0.10297394 85.7585022 -0.09765625 84.765625 C-0.0962413 83.77246277 -0.09482635 82.77930054 -0.09336853 81.75604248 C-0.08777588 78.58733088 -0.0752247 75.41869021 -0.0625 72.25 C-0.05748405 70.10026144 -0.05292131 67.95052177 -0.04882812 65.80078125 C-0.03780885 60.53382688 -0.02054923 55.26692546 0 50 C-4.95 50 -9.9 50 -15 50 C-15 42.41 -15 34.82 -15 27 C-10.05 27 -5.1 27 0 27 C0 18.09 0 9.18 0 0 Z " fill="#13161D" transform="translate(813,143)"/>
<path d="M0 0 C0.55945312 0.38671875 1.11890625 0.7734375 1.6953125 1.171875 C1.15546204 5.79059562 -0.74434567 8.69582569 -3.3671875 12.484375 C-4.10066406 13.55300781 -4.83414062 14.62164062 -5.58984375 15.72265625 C-6.15574219 16.53089844 -6.72164062 17.33914062 -7.3046875 18.171875 C-8.20832031 17.75035156 -9.11195312 17.32882813 -10.04296875 16.89453125 C-11.22246094 16.34667969 -12.40195313 15.79882812 -13.6171875 15.234375 C-14.78894531 14.68910156 -15.96070313 14.14382812 -17.16796875 13.58203125 C-22.14839699 11.34300934 -26.29181896 10.95827952 -31.6796875 10.921875 C-32.43507813 10.90125 -33.19046875 10.880625 -33.96875 10.859375 C-38.59335263 10.82703512 -41.52632071 11.2155193 -45.3046875 14.171875 C-47.05162742 16.55406581 -47.32745023 17.71662033 -47.1796875 20.671875 C-46.0899514 23.78540671 -44.81690661 25.03953307 -42.3046875 27.171875 C-39.50313928 28.3545525 -39.50313928 28.3545525 -36.359375 29.13671875 C-35.19921875 29.46220703 -34.0390625 29.78769531 -32.84375 30.12304688 C-31.63460938 30.44853516 -30.42546875 30.77402344 -29.1796875 31.109375 C-6.98480362 37.12853101 -6.98480362 37.12853101 -1.3046875 44.171875 C-0.7684375 44.81125 -0.2321875 45.450625 0.3203125 46.109375 C4.58850991 52.51167112 5.39630629 60.3817508 4.296875 67.89453125 C2.43163627 74.99341042 -0.74487068 80.72245976 -6.859375 84.9296875 C-21.06099819 93.07300052 -39.46810867 93.69971522 -55.1796875 89.546875 C-61.79106152 87.28381299 -68.31935373 84.15720877 -73.3046875 79.171875 C-73.05566356 74.58501468 -70.80323517 71.55866608 -68.2421875 67.859375 C-67.14197266 66.25642578 -67.14197266 66.25642578 -66.01953125 64.62109375 C-65.45363281 63.81285156 -64.88773438 63.00460938 -64.3046875 62.171875 C-60.89257667 62.810672 -58.56982919 64.1546324 -55.6796875 66.046875 C-46.79389013 71.45901512 -37.29198992 73.99076565 -26.9375 71.6328125 C-23.98682169 70.64925306 -21.6149264 69.435108 -19.2421875 67.421875 C-17.79955848 63.95956535 -18.28659028 61.73521526 -19.3046875 58.171875 C-22.74988228 54.86362391 -25.8469327 53.42407963 -30.41796875 52.171875 C-31.58392578 51.841875 -32.74988281 51.511875 -33.95117188 51.171875 C-35.16095703 50.841875 -36.37074219 50.511875 -37.6171875 50.171875 C-61.2492202 43.66321403 -61.2492202 43.66321403 -66.52734375 35.21484375 C-70.76966757 27.01909988 -71.60733272 19.4988224 -68.8046875 10.609375 C-65.68025428 2.75428584 -60.11445826 -2.427922 -52.5546875 -6.0390625 C-35.08401513 -12.16593024 -15.50382094 -10.07000589 0 0 Z " fill="#FAB927" transform="translate(1201.3046875,178.828125)"/>
<path d="M0 0 C24.42 0 48.84 0 74 0 C74.04125 8.86875 74.0825 17.7375 74.125 26.875 C74.14320801 29.67597168 74.16141602 32.47694336 74.18017578 35.36279297 C74.18601471 37.57258919 74.19111168 39.78238756 74.1953125 41.9921875 C74.20554443 43.1479126 74.21577637 44.3036377 74.22631836 45.49438477 C74.22668091 47.1385437 74.22668091 47.1385437 74.22705078 48.81591797 C74.231492 49.77078094 74.23593323 50.72564392 74.24050903 51.70944214 C74 54 74 54 72 56 C64.15691701 57.73945679 55.68351002 57.0628923 47.71484375 56.9140625 C46.36390255 56.89224272 45.01295528 56.87079553 43.66200256 56.84970093 C40.85409892 56.80456504 38.04630547 56.75537189 35.23852539 56.703125 C31.63386167 56.63632636 28.02911971 56.5792745 24.42424679 56.52509499 C21.64562918 56.48238809 18.86710854 56.43494329 16.08859444 56.38599777 C14.11150875 56.35193575 12.13435913 56.3216531 10.1572113 56.29141235 C8.37384117 56.25665298 8.37384117 56.25665298 6.55444336 56.22119141 C5.50316757 56.20263092 4.45189178 56.18407043 3.36875916 56.16494751 C1 56 1 56 0 55 C-0.0935919 53.28134591 -0.11744611 51.55884256 -0.11352539 49.83764648 C-0.11340454 48.72111694 -0.11328369 47.6045874 -0.11315918 46.45422363 C-0.10804321 45.27179077 -0.10292725 44.08935791 -0.09765625 42.87109375 C-0.09664917 41.79089966 -0.09564209 40.71070557 -0.09460449 39.59777832 C-0.08935374 35.54434149 -0.07539263 31.49091973 -0.0625 27.4375 C-0.041875 18.383125 -0.02125 9.32875 0 0 Z " fill="#11141B" transform="translate(142,66)"/>
<path d="M0 0 C-0.33 8.58 -0.66 17.16 -1 26 C-2.98 25.67 -4.96 25.34 -7 25 C-16.47395954 24.35787608 -25.90467303 24.0115726 -33.61328125 30.3203125 C-40.33064848 37.57269128 -40.45964192 46.30380185 -40.51171875 55.59375 C-40.52966995 56.78101685 -40.54762115 57.96828369 -40.56611633 59.19152832 C-40.62003529 62.96098342 -40.6540569 66.73031319 -40.6875 70.5 C-40.72068921 73.06512153 -40.75518035 75.63022657 -40.79101562 78.1953125 C-40.87575135 84.46342926 -40.94417898 90.73156261 -41 97 C-49.53814968 99.84604989 -59.00780234 97.3746749 -68 97 C-68 65.32 -68 33.64 -68 1 C-59.42 1 -50.84 1 -42 1 C-41.67 4.3 -41.34 7.6 -41 11 C-40.46632813 10.46890625 -39.93265625 9.9378125 -39.3828125 9.390625 C-28.33748 -1.08142034 -14.60854823 -4.86951608 0 0 Z " fill="#181B22" transform="translate(628,169)"/>
<path d="M0 0 C4.57511434 0.91502287 7.10525223 1.95037249 11.09375 4.17578125 C11.67312317 4.49678299 12.25249634 4.81778473 12.84942627 5.14851379 C14.73672767 6.19655202 16.61837849 7.25430346 18.5 8.3125 C19.81647057 9.04652985 21.13320494 9.78008677 22.45019531 10.51318359 C30.73154302 15.13114327 38.97964243 19.8076913 47.19995117 24.53344727 C58.07875856 30.7861148 69.04590335 36.88039293 80 43 C80 54.22 80 65.44 80 77 C78.02 76.34 76.04 75.68 74 75 C73.278125 74.855625 72.55625 74.71125 71.8125 74.5625 C70 74 70 74 68.72143555 72.6574707 C66.5594991 70.57586717 64.28162502 69.35227057 61.64453125 67.91796875 C60.01608276 67.02489014 60.01608276 67.02489014 58.35473633 66.11376953 C57.77768951 65.80006409 57.2006427 65.48635864 56.60610962 65.16314697 C53.54328217 63.49709975 50.49023823 61.81335083 47.4375 60.12890625 C46.81434402 59.78531067 46.19118805 59.44171509 45.54914856 59.08770752 C39.41461172 55.69513972 33.35667791 52.17582619 27.3125 48.625 C18.26397412 43.31104617 9.16472976 38.11109929 0 33 C0 22.11 0 11.22 0 0 Z " fill="#181B22" transform="translate(96,208)"/>
<path d="M0 0 C4.5440965 1.88811788 8.86869225 3.9214668 13.18359375 6.30078125 C13.75225159 6.61366592 14.32090942 6.9265506 14.90679932 7.24891663 C16.75247527 8.26634651 18.59513308 9.28909191 20.4375 10.3125 C21.0739444 10.66459534 21.71038879 11.01669067 22.36611938 11.37945557 C32.19739404 16.81929968 41.93750345 22.40229897 51.62109375 28.1015625 C58.59850694 32.20424338 65.63459131 36.18419485 72.73510742 40.06982422 C77.90557672 42.90557672 77.90557672 42.90557672 79 44 C79.08843793 46.44830426 79.11528752 48.86820599 79.09765625 51.31640625 C79.0962413 52.04746078 79.09482635 52.77851532 79.09336853 53.53172302 C79.08775408 55.87535632 79.07519922 58.21889539 79.0625 60.5625 C79.05748686 62.14778508 79.05292363 63.73307166 79.04882812 65.31835938 C79.03777997 69.2122761 79.02050572 73.10612205 79 77 C78.05511719 76.67902344 77.11023438 76.35804688 76.13671875 76.02734375 C73.18609434 74.99216096 73.18609434 74.99216096 70.8125 74.5625 C69 74 69 74 67.72802734 72.66186523 C65.53565113 70.55342996 63.20892853 69.30615766 60.5390625 67.84765625 C59.43820313 67.24211914 58.33734375 66.63658203 57.203125 66.01269531 C56.32817383 65.53588318 56.32817383 65.53588318 55.43554688 65.04943848 C52.36006183 63.37297565 49.29408896 61.67924779 46.2265625 59.98828125 C45.60952454 59.64876434 44.99248657 59.30924744 44.35675049 58.95944214 C38.0184912 55.46871082 31.68273073 51.96334936 25.48022461 48.2355957 C21.22590389 45.699342 17.14918672 43.61105204 12.48046875 41.9375 C2.10352941 37.86071113 2.10352941 37.86071113 -1 33 C-3.3605572 22.70422058 -2.49851264 11.38557404 -1 1 C-0.67 0.67 -0.34 0.34 0 0 Z " fill="#181B22" transform="translate(97,248)"/>
<path d="M0 0 C0 11.22 0 22.44 0 34 C-4.29 36.31 -8.58 38.62 -13 41 C-16.94968123 43.27398041 -20.88704367 45.56038701 -24.8125 47.875 C-32.75577709 52.53284108 -40.71903041 57.14128223 -48.76171875 61.625 C-52.19390093 63.54016275 -55.60768138 65.48635664 -59.01953125 67.4375 C-60.06939209 68.03618896 -61.11925293 68.63487793 -62.20092773 69.25170898 C-64.28955128 70.44325739 -66.37635774 71.63799751 -68.46118164 72.83618164 C-69.88418579 73.64623657 -69.88418579 73.64623657 -71.3359375 74.47265625 C-72.18720215 74.96000244 -73.0384668 75.44734863 -73.91552734 75.94946289 C-76 77 -76 77 -78 77 C-78.61533572 68.73692033 -79.11968523 60.47398611 -79.25 52.1875 C-79.27578125 50.88167969 -79.3015625 49.57585937 -79.328125 48.23046875 C-78.95966209 44.6028637 -78.66491746 44.22862235 -76 42 C-74.64495289 41.12347634 -73.25831103 40.29479498 -71.8515625 39.50390625 C-71.02221191 39.03412354 -70.19286133 38.56434082 -69.33837891 38.08032227 C-68.44296387 37.57944092 -67.54754883 37.07855957 -66.625 36.5625 C-64.70825032 35.47931355 -62.79158596 34.39597612 -60.875 33.3125 C-59.40546875 32.48492187 -59.40546875 32.48492187 -57.90625 31.640625 C-53.46751914 29.13488984 -49.04712447 26.59738444 -44.625 24.0625 C-39.04260561 20.86742162 -33.45223445 17.68727714 -27.84765625 14.53125 C-26.8201123 13.95238037 -25.79256836 13.37351074 -24.73388672 12.77709961 C-22.76121903 11.6668219 -20.78764332 10.55815532 -18.81298828 9.45141602 C-13.99046764 6.73751222 -9.26645066 3.96070065 -4.66723633 0.88061523 C-3 0 -3 0 0 0 Z " fill="#181B22" transform="translate(261,208)"/>
<path d="M0 0 C2.49018167 28.15341931 2.49018167 28.15341931 -1.19970703 35.33496094 C-4.56994631 38.86084745 -8.92732172 40.3842228 -13.44580078 41.99609375 C-18.23897864 43.88001149 -22.56685414 46.6516892 -27 49.25 C-28.96409115 50.35522184 -30.93027754 51.45672768 -32.8984375 52.5546875 C-39.18478619 56.08682333 -45.4065396 59.72505531 -51.625 63.375 C-74.89001368 77 -74.89001368 77 -78 77 C-78.78388776 70.01500016 -79.20888714 63.10577035 -79.05078125 56.07421875 C-78.94671855 53.08484091 -78.94671855 53.08484091 -79.23046875 50.45703125 C-79.32478173 47.84770543 -79.15538649 46.35155133 -78 44 C-74.73195252 41.15899321 -71.06607769 39.20856272 -67.25683594 37.203125 C-63.77293267 35.34584727 -60.35630725 33.3726718 -56.92724609 31.41650391 C-53.95216404 29.72276662 -50.96944799 28.04324642 -47.984375 26.3671875 C-42.39350847 23.22525767 -36.81784632 20.0575191 -31.25 16.875 C-30.40074951 16.3903125 -29.55149902 15.905625 -28.67651367 15.40625 C-24.28292565 12.89442897 -19.90189981 10.3629188 -15.53515625 7.8046875 C-14.2188623 7.03535889 -14.2188623 7.03535889 -12.87597656 6.25048828 C-11.20249189 5.27094192 -9.53116051 4.28770487 -7.86230469 3.30029297 C-7.12012695 2.86604004 -6.37794922 2.43178711 -5.61328125 1.984375 C-4.96141846 1.59991211 -4.30955566 1.21544922 -3.63793945 0.81933594 C-2 0 -2 0 0 0 Z " fill="#191C22" transform="translate(261,248)"/>
<path d="M0 0 C8.58 0 17.16 0 26 0 C26 31.68 26 63.36 26 96 C17.42 96 8.84 96 0 96 C0 64.32 0 32.64 0 0 Z " fill="#12151C" transform="translate(643,170)"/>
<path d="M0 0 C3.86935194 0.59138567 6.71555664 1.74230778 10.11328125 3.66796875 C11.10158936 4.22436035 12.08989746 4.78075195 13.1081543 5.35400391 C14.16558838 5.95905762 15.22302246 6.56411133 16.3125 7.1875 C17.41827393 7.81317871 18.52404785 8.43885742 19.66333008 9.08349609 C28.20280102 13.93079644 36.67913513 18.88505305 45.14282227 23.86328125 C53.01850993 28.47738639 60.99697548 32.88105824 69.04760742 37.18212891 C70.33115112 37.87121338 70.33115112 37.87121338 71.640625 38.57421875 C72.38860352 38.97213623 73.13658203 39.37005371 73.90722656 39.7800293 C74.5978418 40.18261963 75.28845703 40.58520996 76 41 C76.74185547 41.42619629 77.48371094 41.85239258 78.24804688 42.29150391 C80 44 80 44 80.45410156 46.63549805 C80.4331543 47.66715088 80.41220703 48.69880371 80.390625 49.76171875 C80.37773437 50.87998047 80.36484375 51.99824219 80.3515625 53.15039062 C80.31804687 54.31763672 80.28453125 55.48488281 80.25 56.6875 C80.23195313 57.86634766 80.21390625 59.04519531 80.1953125 60.25976562 C80.14811859 63.17398926 80.08229077 66.08659031 80 69 C76.91171059 68.36352536 74.54420785 67.31783128 71.82421875 65.734375 C70.59977051 65.02740479 70.59977051 65.02740479 69.35058594 64.30615234 C68.47176758 63.79262207 67.59294922 63.2790918 66.6875 62.75 C64.79073387 61.65300707 62.8935847 60.55667621 60.99609375 59.4609375 C60.01108887 58.89084961 59.02608398 58.32076172 58.01123047 57.73339844 C53.11050295 54.9123213 48.17868053 52.14684142 43.25 49.375 C26.9063362 40.15822743 26.9063362 40.15822743 20.96606445 36.49609375 C17.58652625 34.42325513 14.31829731 32.670693 10.62109375 31.2265625 C2.42062285 27.75522054 2.42062285 27.75522054 0 24 C-1.81942312 16.16474236 -0.91460963 7.91629814 0 0 Z " fill="#1B1E25" transform="translate(96,288)"/>
<path d="M0 0 C0 0.66 0 1.32 0 2 C-0.66 2 -1.32 2 -2 2 C-2.226875 2.78375 -2.45375 3.5675 -2.6875 4.375 C-3.75045004 7.31076678 -4.89883511 9.71681456 -6.375 12.4375 C-8.09787097 15.6248113 -8.98805752 17.89642197 -9.40625 21.5234375 C-10.08015058 26.9708005 -10.72170982 31.09013914 -15.08642578 34.74902344 C-20.73373612 38.4820832 -26.78563712 41.44877926 -32.85644531 44.42382812 C-37.78968196 46.89734286 -42.54195923 49.66673795 -47.3125 52.4375 C-48.95424433 53.37401836 -50.59616469 54.31022823 -52.23828125 55.24609375 C-54.73066458 56.66773642 -57.18579282 58.11688814 -59.61474609 59.64501953 C-67.71103051 64.72163318 -67.71103051 64.72163318 -73 65 C-74.15887037 43.05806215 -74.15887037 43.05806215 -69.91796875 37.05078125 C-67.13448634 35.39261569 -64.36415552 34.13403573 -61.33837891 32.98388672 C-56.39787539 30.90514072 -51.83120746 28.0362538 -47.1875 25.375 C-45.018076 24.16460514 -42.84748288 22.95630356 -40.67578125 21.75 C-32.06724113 16.93700327 -23.56059235 11.95230332 -15.0546875 6.9609375 C-14.18295898 6.45143555 -13.31123047 5.94193359 -12.41308594 5.41699219 C-10.89531365 4.52573861 -9.3821894 3.62647313 -7.87597656 2.71582031 C-3.32263365 0 -3.32263365 0 0 0 Z " fill="#1D2027" transform="translate(255,292)"/>
<path d="M0 0 C7.15378648 2.69562969 12.49580775 10.3853386 17.3203125 16.0546875 C18.44798141 17.36068544 19.61070907 18.63714669 20.8046875 19.8828125 C21.36414062 20.47835937 21.92359375 21.07390625 22.5 21.6875 C23.0053125 22.20699219 23.510625 22.72648437 24.03125 23.26171875 C25 25 25 25 24 30 C19.05 30 14.1 30 9 30 C9 44.19 9 58.38 9 73 C3.39 73 -2.22 73 -8 73 C-8 58.81 -8 44.62 -8 30 C-12.62 30 -17.24 30 -22 30 C-22.66 29.67 -23.32 29.34 -24 29 C-23.47403544 24.83124387 -21.19493533 22.73180473 -18.375 19.75 C-17.46297173 18.77396975 -16.55151664 17.79740361 -15.640625 16.8203125 C-14.76921875 15.88960937 -13.8978125 14.95890625 -13 14 C-9.79891231 10.42585322 -6.65572172 6.83294381 -3.6875 3.0625 C-2 1 -2 1 0 0 Z " fill="#FABA29" transform="translate(24,155)"/>
<path d="M0 0 C5.61 0 11.22 0 17 0 C17 13.86 17 27.72 17 42 C21.62 42 26.24 42 31 42 C31.66 43.32 32.32 44.64 33 46 C32.21496094 46.845625 31.42992187 47.69125 30.62109375 48.5625 C19.97941695 59.99368092 19.97941695 59.99368092 10 72 C7.10368126 70.69983484 5.14805694 69.36489577 3.01171875 67.0234375 C2.20408081 66.14631104 2.20408081 66.14631104 1.38012695 65.25146484 C0.54227661 64.32261475 0.54227661 64.32261475 -0.3125 63.375 C-0.88846924 62.74416504 -1.46443848 62.11333008 -2.05786133 61.46337891 C-3.7114273 59.64774434 -5.35637108 57.82462688 -7 56 C-7.77085937 55.154375 -8.54171875 54.30875 -9.3359375 53.4375 C-12.07002209 50.39193741 -14.27730977 47.73929918 -16 44 C-13 42 -13 42 -1 42 C-0.67 28.14 -0.34 14.28 0 0 Z " fill="#F9BA2C" transform="translate(326,156)"/>
<path d="M0 0 C19.47 0 38.94 0 59 0 C57.91348441 5.43257794 56.07012041 7.54017807 52.375 11.3125 C51.83319092 11.88935547 51.29138184 12.46621094 50.7331543 13.06054688 C48.43954038 15.50104247 46.12949254 17.87880546 43.68359375 20.16796875 C38.63741109 25.10880313 38.18260348 29.35374051 38.0703125 36.33984375 C38 39 38 39 37 40 C34.66839945 40.09909302 32.33370058 40.12970504 30 40.125 C28.72125 40.12757813 27.4425 40.13015625 26.125 40.1328125 C23 40 23 40 22 39 C22 37 22 35 22 33 C21.63377889 27.59528518 20.78092372 24.96763974 16.875 21.1875 C15.25617081 19.7845147 13.63130621 18.38845804 12 17 C9.57893389 14.40668412 7.29772736 11.70253789 5 9 C4.49082031 8.43023437 3.98164063 7.86046875 3.45703125 7.2734375 C0 3.34191176 0 3.34191176 0 0 Z " fill="#1B1E24" transform="translate(149,127)"/>
<path d="M0 0 C3.43408657 3.23937032 5.77176398 6.44990144 6.203125 11.26953125 C6.30163333 16.61360816 6.13851342 20.45456678 3 25 C-1.31031653 29.08345776 -4.92133965 30.79554161 -10.8125 31.375 C-16.79489287 31.20536693 -21.3648967 28.71895475 -25.4375 24.4375 C-28.59157771 19.51713878 -28.48648849 14.66980226 -28 9 C-26.33444786 4.2663255 -24.19393323 1.73093326 -20 -1 C-12.86225499 -4.1033674 -6.80150817 -3.77861565 0 0 Z " fill="#191C23" transform="translate(667,123)"/>
<path d="M0 0 C8.32729351 -0.02255403 16.65456344 -0.04091682 24.98187923 -0.05181217 C28.84820118 -0.05704026 32.71450121 -0.06413654 36.58081055 -0.07543945 C40.30903401 -0.086271 44.03723634 -0.0922774 47.76547432 -0.09487724 C49.19089656 -0.09673101 50.61631759 -0.10035071 52.04173088 -0.10573006 C54.03163408 -0.11294393 56.02155834 -0.11340808 58.01147461 -0.11352539 C59.14620712 -0.115746 60.28093964 -0.11796661 61.45005798 -0.12025452 C64 0 64 0 65 1 C65.09873816 2.99799572 65.12971799 4.99957158 65.125 7 C65.12886719 8.6396875 65.12886719 8.6396875 65.1328125 10.3125 C65 13 65 13 64 14 C62.0056827 14.09405142 60.00800457 14.11743249 58.01147461 14.11352539 C56.73022202 14.11344986 55.44896942 14.11337433 54.12889099 14.11329651 C52.72004152 14.10818909 51.31119244 14.10297309 49.90234375 14.09765625 C48.46887766 14.09579202 47.03541093 14.09436814 45.60194397 14.09336853 C41.82240043 14.08954372 38.0428951 14.07971377 34.2633667 14.06866455 C30.40930702 14.05844963 26.55524118 14.05387074 22.70117188 14.04882812 C15.13409512 14.03809145 7.56705777 14.02049497 0 14 C0 9.38 0 4.76 0 0 Z " fill="#23262C" transform="translate(72,90)"/>
<path d="M0 0 C21.45 0 42.9 0 65 0 C65 4.29 65 8.58 65 13 C43.55 13 22.1 13 0 13 C0 8.71 0 4.42 0 0 Z " fill="#14171E" transform="translate(221,90)"/>
<path d="M0 0 C0 16.17 0 32.34 0 49 C-2.97 47.02 -5.94 45.04 -9 43 C-10.4953125 42.43925781 -11.990625 41.87851562 -13.53125 41.30078125 C-15.5 40.08056641 -15.5 40.08056641 -17 38 C-18.01904032 31.70981443 -17.75008872 25.534681 -17.5 19.1875 C-17.45985632 17.42781459 -17.42335705 15.668042 -17.390625 13.90820312 C-17.30261114 9.60331573 -17.16466894 5.30260951 -17 1 C-15.87271484 1.24169922 -15.87271484 1.24169922 -14.72265625 1.48828125 C-8.89362952 2.58383721 -4.97994625 0 0 0 Z " fill="#22252B" transform="translate(343,237)"/>
<path d="M0 0 C2.375 0.8125 2.375 0.8125 4.375 2.8125 C4.375 6.8125 4.375 6.8125 3.046875 8.27734375 C2.41265625 8.76332031 1.7784375 9.24929688 1.125 9.75 C-3.45468087 13.51333847 -7.35360153 17.72309544 -11.32324219 22.10522461 C-13.61081066 24.62876983 -15.90865024 27.09573915 -18.3203125 29.50390625 C-20.13320771 31.31987417 -21.7423115 33.10618621 -23.3125 35.125 C-24.075625 36.011875 -24.83875 36.89875 -25.625 37.8125 C-26.285 37.8125 -26.945 37.8125 -27.625 37.8125 C-27.625 38.4725 -27.625 39.1325 -27.625 39.8125 C-29.25 40.5625 -29.25 40.5625 -31.625 40.8125 C-34.92683191 39.02400772 -37.22185651 37.31968051 -39.5625 34.375 C-41.80019759 31.59483027 -44.07386356 29.95275908 -47.0390625 28.0234375 C-48.625 26.8125 -48.625 26.8125 -50.625 23.8125 C-50.31550349 20.51120394 -49.08754526 18.9538437 -46.625 16.8125 C-41.56551271 18.51684228 -38.60487857 21.39677583 -34.80859375 25.03515625 C-32.64748322 26.79419971 -31.34312295 27.41186963 -28.625 27.8125 C-28.625 27.1525 -28.625 26.4925 -28.625 25.8125 C-27.965 25.8125 -27.305 25.8125 -26.625 25.8125 C-26.37363281 25.23242188 -26.12226563 24.65234375 -25.86328125 24.0546875 C-24.4705535 21.53283978 -22.89563548 19.92105921 -20.8125 17.9375 C-18.39114395 15.58170413 -16.06637964 13.24881026 -13.9375 10.625 C-4.91285607 -0.35091829 -4.91285607 -0.35091829 0 0 Z " fill="#0F1117" transform="translate(324.625,309.1875)"/>
<path d="M0 0 C0.66 0.33 1.32 0.66 2 1 C-0.97 3.97 -3.94 6.94 -7 10 C-7.66 9.67 -8.32 9.34 -9 9 C-6.31941902 5.42589203 -3.57410797 2.68058098 0 0 Z " fill="#4D5056" transform="translate(706,175)"/>
<path d="M0 0 C1.32 0 2.64 0 4 0 C4 1.32 4 2.64 4 4 C3.01 4.495 3.01 4.495 2 5 C1.34 5.99 0.68 6.98 0 8 C0 5.36 0 2.72 0 0 Z " fill="#F2F3F4" transform="translate(177,253)"/>
<path d="M0 0 C0.66 0.33 1.32 0.66 2 1 C1.0479279 2.00596297 0.08812654 3.00461563 -0.875 4 C-1.40867187 4.556875 -1.94234375 5.11375 -2.4921875 5.6875 C-4 7 -4 7 -6 7 C-4.60667426 3.63279613 -3.0210714 2.0140476 0 0 Z " fill="#5F6166" transform="translate(647,122)"/>
<path d="M0 0 C0.33 0 0.66 0 1 0 C1 1.98 1 3.96 1 6 C-0.32 6.33 -1.64 6.66 -3 7 C-3 5.68 -3 4.36 -3 3 C-2.34 3 -1.68 3 -1 3 C-0.67 2.01 -0.34 1.02 0 0 Z " fill="#F2F3F4" transform="translate(180,349)"/>
<path d="M0 0 C0.66 0 1.32 0 2 0 C3.15941038 3.47823115 2.70820884 5.45895578 2 9 C1.34 8.67 0.68 8.34 0 8 C0 5.36 0 2.72 0 0 Z " fill="#E4D89C" transform="translate(1046,257)"/>
<path d="M0 0 C0.99 0 1.98 0 3 0 C3.33 1.32 3.66 2.64 4 4 C2.68 4.33 1.36 4.66 0 5 C0 3.35 0 1.7 0 0 Z " fill="#F3F4F4" transform="translate(177,278)"/>
<path d="M0 0 C0.99 0.33 1.98 0.66 3 1 C2.34 2.98 1.68 4.96 1 7 C0.67 7 0.34 7 0 7 C0 4.69 0 2.38 0 0 Z " fill="#F3F4F4" transform="translate(177,333)"/>
<path d="M0 0 C0.33 0 0.66 0 1 0 C1 1.65 1 3.3 1 5 C0.01 5.495 0.01 5.495 -1 6 C-1.042721 4.33388095 -1.04063832 2.66617115 -1 1 C-0.67 0.67 -0.34 0.34 0 0 Z " fill="#F3F4F4" transform="translate(180,316)"/>
<path d="M0 0 C0.33 0 0.66 0 1 0 C1 1.98 1 3.96 1 6 C0.67 6 0.34 6 0 6 C0 4.02 0 2.04 0 0 Z " fill="#F3F6F6" transform="translate(188,155)"/>
<path d="M0 0 C1 4 1 4 1 4 Z " fill="#F3F4F4" transform="translate(177,304)"/>
<path d="M0 0 C0.99 0.33 1.98 0.66 3 1 C2.01 1.33 1.02 1.66 0 2 C0 1.34 0 0.68 0 0 Z " fill="#F2F3F3" transform="translate(840,194)"/>
<path d="M0 0 C0.99 0.495 0.99 0.495 2 1 C1.01 1.495 1.01 1.495 0 2 C0 1.34 0 0.68 0 0 Z " fill="#F4F5F5" transform="translate(179,294)"/>
<path d="" fill="#F4F5F6" transform="translate(0,0)"/>
<path d="" fill="#F4F6F7" transform="translate(0,0)"/>
<path d="" fill="#F4F5F5" transform="translate(0,0)"/>
<path d="" fill="#F3F6F6" transform="translate(0,0)"/>
<path d="" fill="#F4F7F7" transform="translate(0,0)"/>
<path d="" fill="#F4F4F5" transform="translate(0,0)"/>
<path d="" fill="#F4F6F7" transform="translate(0,0)"/>
<path d="" fill="#F4F6F7" transform="translate(0,0)"/>
<path d="" fill="#F4F7F7" transform="translate(0,0)"/>
<path d="" fill="#F4F7F7" transform="translate(0,0)"/>
<path d="" fill="#F4F7F7" transform="translate(0,0)"/>
<path d="" fill="#F4F7F7" transform="translate(0,0)"/>
<path d="" fill="#F4F7F7" transform="translate(0,0)"/>
<path d="" fill="#F4F6F7" transform="translate(0,0)"/>
<path d="" fill="#F4F6F7" transform="translate(0,0)"/>
<path d="" fill="#F4F6F7" transform="translate(0,0)"/>
<path d="" fill="#F4F7F7" transform="translate(0,0)"/>
<path d="" fill="#F4F7F7" transform="translate(0,0)"/>
<path d="" fill="#F3F6F6" transform="translate(0,0)"/>
<path d="" fill="#F3F8F7" transform="translate(0,0)"/>
<path d="" fill="#F3F3F4" transform="translate(0,0)"/>
<path d="" fill="#F4F6F6" transform="translate(0,0)"/>
</svg>
